G75*
G70*
%OFA0B0*%
%FSLAX24Y24*%
%IPPOS*%
%LPD*%
%AMOC8*
5,1,8,0,0,1.08239X$1,22.5*
%
%ADD10C,0.0050*%
%ADD11C,0.0080*%
%ADD12C,0.0010*%
%ADD13C,0.0060*%
D10*
X002945Y007225D02*
X002855Y007315D01*
X003125Y007315D01*
X003125Y007225D02*
X003125Y007405D01*
X003125Y007520D02*
X002855Y007520D01*
X002945Y007610D01*
X002855Y007700D01*
X003125Y007700D01*
X014925Y002155D02*
X015015Y002245D01*
X015015Y001975D01*
X014925Y001975D02*
X015105Y001975D01*
X015220Y002020D02*
X015400Y002200D01*
X015400Y002020D01*
X015355Y001975D01*
X015265Y001975D01*
X015220Y002020D01*
X015220Y002200D01*
X015265Y002245D01*
X015355Y002245D01*
X015400Y002200D01*
X015514Y002200D02*
X015559Y002245D01*
X015649Y002245D01*
X015694Y002200D01*
X015514Y002020D01*
X015559Y001975D01*
X015649Y001975D01*
X015694Y002020D01*
X015694Y002200D01*
X015514Y002200D02*
X015514Y002020D01*
X035241Y001955D02*
X035421Y001955D01*
X035331Y001955D02*
X035331Y002225D01*
X035241Y002135D01*
X035536Y002180D02*
X035581Y002225D01*
X035671Y002225D01*
X035716Y002180D01*
X035536Y002000D01*
X035581Y001955D01*
X035671Y001955D01*
X035716Y002000D01*
X035716Y002180D01*
X035830Y002180D02*
X035875Y002225D01*
X035965Y002225D01*
X036011Y002180D01*
X035830Y002000D01*
X035875Y001955D01*
X035965Y001955D01*
X036011Y002000D01*
X036011Y002180D01*
X035830Y002180D02*
X035830Y002000D01*
X035536Y002000D02*
X035536Y002180D01*
X034965Y018955D02*
X034875Y018955D01*
X034830Y019000D01*
X035011Y019180D01*
X035011Y019000D01*
X034965Y018955D01*
X034830Y019000D02*
X034830Y019180D01*
X034875Y019225D01*
X034965Y019225D01*
X035011Y019180D01*
X034716Y019180D02*
X034536Y019000D01*
X034581Y018955D01*
X034671Y018955D01*
X034716Y019000D01*
X034716Y019180D01*
X034671Y019225D01*
X034581Y019225D01*
X034536Y019180D01*
X034536Y019000D01*
X034421Y018955D02*
X034241Y018955D01*
X034331Y018955D02*
X034331Y019225D01*
X034241Y019135D01*
X027100Y022500D02*
X009900Y022500D01*
X009900Y029700D01*
X027100Y029700D01*
X027100Y022500D01*
X017694Y019200D02*
X017514Y019020D01*
X017559Y018975D01*
X017649Y018975D01*
X017694Y019020D01*
X017694Y019200D01*
X017649Y019245D01*
X017559Y019245D01*
X017514Y019200D01*
X017514Y019020D01*
X017400Y019020D02*
X017400Y019200D01*
X017220Y019020D01*
X017265Y018975D01*
X017355Y018975D01*
X017400Y019020D01*
X017400Y019200D02*
X017355Y019245D01*
X017265Y019245D01*
X017220Y019200D01*
X017220Y019020D01*
X017105Y018975D02*
X016925Y018975D01*
X017015Y018975D02*
X017015Y019245D01*
X016925Y019155D01*
X003375Y015700D02*
X003105Y015700D01*
X003195Y015610D01*
X003105Y015520D01*
X003375Y015520D01*
X003375Y015405D02*
X003375Y015225D01*
X003375Y015315D02*
X003105Y015315D01*
X003195Y015225D01*
D11*
X009750Y002600D02*
X011250Y002600D01*
X014236Y002986D02*
X014236Y001214D01*
X018764Y001214D01*
X018764Y002986D01*
X014236Y002986D01*
X003472Y006860D02*
X003472Y009340D01*
X002528Y009340D01*
X002528Y006860D01*
X003472Y006860D01*
X003722Y014860D02*
X002778Y014860D01*
X002778Y017340D01*
X003722Y017340D01*
X003722Y014860D01*
X003807Y019328D02*
X001799Y019328D01*
X001799Y022872D01*
X006091Y022872D01*
X006091Y022124D01*
X007250Y022600D02*
X007750Y022600D01*
X007750Y021600D02*
X007250Y021600D01*
X007250Y020600D02*
X007750Y020600D01*
X007750Y019600D02*
X007250Y019600D01*
X006091Y019328D02*
X006091Y020155D01*
X006091Y019328D02*
X005657Y019328D01*
X012750Y018600D02*
X014250Y018600D01*
X016236Y018214D02*
X020764Y018214D01*
X020764Y019986D01*
X016236Y019986D01*
X016236Y018214D01*
X031236Y018214D02*
X031236Y019986D01*
X035764Y019986D01*
X035764Y018214D01*
X031236Y018214D01*
X038750Y018100D02*
X040250Y018100D01*
X046250Y022600D02*
X046750Y022600D01*
X046750Y023600D02*
X046250Y023600D01*
X046250Y024600D02*
X046750Y024600D01*
X046750Y025600D02*
X046250Y025600D01*
X046250Y026600D02*
X046750Y026600D01*
X046750Y027600D02*
X046250Y027600D01*
X046250Y028600D02*
X046750Y028600D01*
X046750Y029600D02*
X046250Y029600D01*
X036764Y002986D02*
X032236Y002986D01*
X032236Y001214D01*
X036764Y001214D01*
X036764Y002986D01*
X039250Y002600D02*
X040750Y002600D01*
D12*
X039220Y002632D02*
X039274Y002560D01*
X039273Y002561D02*
X039220Y002518D01*
X039169Y002473D01*
X039121Y002424D01*
X039076Y002373D01*
X039033Y002319D01*
X038994Y002263D01*
X038958Y002205D01*
X038925Y002145D01*
X038896Y002084D01*
X038871Y002020D01*
X038849Y001956D01*
X038830Y001890D01*
X038816Y001823D01*
X038805Y001756D01*
X038798Y001688D01*
X038795Y001620D01*
X038796Y001551D01*
X038801Y001483D01*
X038809Y001415D01*
X038822Y001348D01*
X038838Y001282D01*
X038858Y001217D01*
X038881Y001152D01*
X038908Y001090D01*
X038939Y001029D01*
X038973Y000970D01*
X039010Y000912D01*
X039051Y000857D01*
X039095Y000805D01*
X039141Y000755D01*
X039190Y000708D01*
X039242Y000663D01*
X039296Y000622D01*
X039353Y000583D01*
X039412Y000548D01*
X039472Y000517D01*
X039534Y000489D01*
X039598Y000464D01*
X039663Y000443D01*
X039729Y000426D01*
X039796Y000412D01*
X039864Y000403D01*
X039932Y000397D01*
X040000Y000395D01*
X040068Y000397D01*
X040136Y000403D01*
X040204Y000412D01*
X040271Y000426D01*
X040337Y000443D01*
X040402Y000464D01*
X040466Y000489D01*
X040528Y000517D01*
X040588Y000548D01*
X040647Y000583D01*
X040704Y000622D01*
X040758Y000663D01*
X040810Y000708D01*
X040859Y000755D01*
X040905Y000805D01*
X040949Y000857D01*
X040990Y000912D01*
X041027Y000970D01*
X041061Y001029D01*
X041092Y001090D01*
X041119Y001152D01*
X041142Y001217D01*
X041162Y001282D01*
X041178Y001348D01*
X041191Y001415D01*
X041199Y001483D01*
X041204Y001551D01*
X041205Y001620D01*
X041202Y001688D01*
X041195Y001756D01*
X041184Y001823D01*
X041170Y001890D01*
X041151Y001956D01*
X041129Y002020D01*
X041104Y002084D01*
X041075Y002145D01*
X041042Y002205D01*
X041006Y002263D01*
X040967Y002319D01*
X040924Y002373D01*
X040879Y002424D01*
X040831Y002473D01*
X040780Y002518D01*
X040727Y002561D01*
X040780Y002632D01*
X040781Y002633D01*
X040836Y002589D01*
X040889Y002541D01*
X040940Y002491D01*
X040987Y002438D01*
X041031Y002383D01*
X041073Y002325D01*
X041111Y002265D01*
X041146Y002204D01*
X041177Y002140D01*
X041205Y002075D01*
X041229Y002008D01*
X041250Y001940D01*
X041266Y001871D01*
X041279Y001801D01*
X041288Y001731D01*
X041294Y001660D01*
X041295Y001589D01*
X041292Y001518D01*
X041286Y001447D01*
X041276Y001377D01*
X041262Y001308D01*
X041244Y001239D01*
X041222Y001171D01*
X041197Y001105D01*
X041168Y001040D01*
X041135Y000977D01*
X041099Y000916D01*
X041060Y000857D01*
X041018Y000800D01*
X040973Y000745D01*
X040924Y000693D01*
X040873Y000644D01*
X040820Y000597D01*
X040763Y000554D01*
X040705Y000514D01*
X040644Y000477D01*
X040582Y000443D01*
X040518Y000413D01*
X040452Y000386D01*
X040385Y000363D01*
X040316Y000344D01*
X040247Y000329D01*
X040177Y000317D01*
X040106Y000309D01*
X040035Y000305D01*
X039965Y000305D01*
X039894Y000309D01*
X039823Y000317D01*
X039753Y000329D01*
X039684Y000344D01*
X039615Y000363D01*
X039548Y000386D01*
X039482Y000413D01*
X039418Y000443D01*
X039356Y000477D01*
X039295Y000514D01*
X039237Y000554D01*
X039180Y000597D01*
X039127Y000644D01*
X039076Y000693D01*
X039027Y000745D01*
X038982Y000800D01*
X038940Y000857D01*
X038901Y000916D01*
X038865Y000977D01*
X038832Y001040D01*
X038803Y001105D01*
X038778Y001171D01*
X038756Y001239D01*
X038738Y001308D01*
X038724Y001377D01*
X038714Y001447D01*
X038708Y001518D01*
X038705Y001589D01*
X038706Y001660D01*
X038712Y001731D01*
X038721Y001801D01*
X038734Y001871D01*
X038750Y001940D01*
X038771Y002008D01*
X038795Y002075D01*
X038823Y002140D01*
X038854Y002204D01*
X038889Y002265D01*
X038927Y002325D01*
X038969Y002383D01*
X039013Y002438D01*
X039060Y002491D01*
X039111Y002541D01*
X039164Y002589D01*
X039219Y002633D01*
X039224Y002626D01*
X039169Y002581D01*
X039116Y002534D01*
X039065Y002483D01*
X039018Y002430D01*
X038973Y002374D01*
X038932Y002316D01*
X038894Y002256D01*
X038859Y002194D01*
X038828Y002130D01*
X038801Y002064D01*
X038777Y001997D01*
X038757Y001928D01*
X038740Y001859D01*
X038728Y001789D01*
X038719Y001718D01*
X038715Y001647D01*
X038714Y001576D01*
X038718Y001505D01*
X038725Y001434D01*
X038736Y001363D01*
X038751Y001294D01*
X038770Y001225D01*
X038793Y001157D01*
X038819Y001091D01*
X038849Y001026D01*
X038883Y000964D01*
X038919Y000903D01*
X038960Y000844D01*
X039003Y000787D01*
X039050Y000733D01*
X039099Y000682D01*
X039152Y000634D01*
X039206Y000588D01*
X039264Y000546D01*
X039323Y000507D01*
X039385Y000471D01*
X039448Y000438D01*
X039513Y000410D01*
X039580Y000384D01*
X039648Y000363D01*
X039717Y000345D01*
X039787Y000332D01*
X039858Y000322D01*
X039929Y000316D01*
X040000Y000314D01*
X040071Y000316D01*
X040142Y000322D01*
X040213Y000332D01*
X040283Y000345D01*
X040352Y000363D01*
X040420Y000384D01*
X040487Y000410D01*
X040552Y000438D01*
X040615Y000471D01*
X040677Y000507D01*
X040736Y000546D01*
X040794Y000588D01*
X040848Y000634D01*
X040901Y000682D01*
X040950Y000733D01*
X040997Y000787D01*
X041040Y000844D01*
X041081Y000903D01*
X041117Y000964D01*
X041151Y001026D01*
X041181Y001091D01*
X041207Y001157D01*
X041230Y001225D01*
X041249Y001294D01*
X041264Y001363D01*
X041275Y001434D01*
X041282Y001505D01*
X041286Y001576D01*
X041285Y001647D01*
X041281Y001718D01*
X041272Y001789D01*
X041260Y001859D01*
X041243Y001928D01*
X041223Y001997D01*
X041199Y002064D01*
X041172Y002130D01*
X041141Y002194D01*
X041106Y002256D01*
X041068Y002316D01*
X041027Y002374D01*
X040982Y002430D01*
X040935Y002483D01*
X040884Y002534D01*
X040831Y002581D01*
X040776Y002626D01*
X040770Y002619D01*
X040825Y002574D01*
X040878Y002527D01*
X040928Y002477D01*
X040975Y002424D01*
X041019Y002369D01*
X041061Y002311D01*
X041098Y002252D01*
X041133Y002190D01*
X041164Y002126D01*
X041191Y002061D01*
X041215Y001994D01*
X041235Y001926D01*
X041251Y001857D01*
X041263Y001788D01*
X041272Y001717D01*
X041276Y001647D01*
X041277Y001576D01*
X041273Y001505D01*
X041266Y001435D01*
X041255Y001365D01*
X041240Y001296D01*
X041221Y001228D01*
X041199Y001160D01*
X041173Y001095D01*
X041143Y001030D01*
X041110Y000968D01*
X041073Y000908D01*
X041033Y000849D01*
X040990Y000793D01*
X040944Y000739D01*
X040894Y000689D01*
X040843Y000640D01*
X040788Y000595D01*
X040731Y000553D01*
X040672Y000514D01*
X040611Y000479D01*
X040548Y000446D01*
X040483Y000418D01*
X040417Y000393D01*
X040349Y000372D01*
X040281Y000354D01*
X040211Y000341D01*
X040141Y000331D01*
X040071Y000325D01*
X040000Y000323D01*
X039929Y000325D01*
X039859Y000331D01*
X039789Y000341D01*
X039719Y000354D01*
X039651Y000372D01*
X039583Y000393D01*
X039517Y000418D01*
X039452Y000446D01*
X039389Y000479D01*
X039328Y000514D01*
X039269Y000553D01*
X039212Y000595D01*
X039157Y000640D01*
X039106Y000689D01*
X039056Y000739D01*
X039010Y000793D01*
X038967Y000849D01*
X038927Y000908D01*
X038890Y000968D01*
X038857Y001030D01*
X038827Y001095D01*
X038801Y001160D01*
X038779Y001228D01*
X038760Y001296D01*
X038745Y001365D01*
X038734Y001435D01*
X038727Y001505D01*
X038723Y001576D01*
X038724Y001647D01*
X038728Y001717D01*
X038737Y001788D01*
X038749Y001857D01*
X038765Y001926D01*
X038785Y001994D01*
X038809Y002061D01*
X038836Y002126D01*
X038867Y002190D01*
X038902Y002252D01*
X038939Y002311D01*
X038981Y002369D01*
X039025Y002424D01*
X039072Y002477D01*
X039122Y002527D01*
X039175Y002574D01*
X039230Y002619D01*
X039235Y002611D01*
X039180Y002567D01*
X039127Y002519D01*
X039077Y002469D01*
X039029Y002416D01*
X038985Y002360D01*
X038944Y002302D01*
X038907Y002242D01*
X038872Y002180D01*
X038842Y002116D01*
X038815Y002050D01*
X038791Y001983D01*
X038772Y001915D01*
X038756Y001845D01*
X038744Y001775D01*
X038736Y001705D01*
X038732Y001634D01*
X038733Y001563D01*
X038737Y001492D01*
X038745Y001421D01*
X038757Y001351D01*
X038773Y001282D01*
X038792Y001214D01*
X038816Y001146D01*
X038843Y001081D01*
X038874Y001017D01*
X038908Y000955D01*
X038946Y000895D01*
X038988Y000837D01*
X039032Y000781D01*
X039079Y000728D01*
X039130Y000678D01*
X039183Y000631D01*
X039238Y000586D01*
X039296Y000545D01*
X039356Y000508D01*
X039419Y000473D01*
X039483Y000442D01*
X039548Y000415D01*
X039615Y000392D01*
X039684Y000372D01*
X039753Y000356D01*
X039823Y000344D01*
X039894Y000336D01*
X039964Y000332D01*
X040036Y000332D01*
X040106Y000336D01*
X040177Y000344D01*
X040247Y000356D01*
X040316Y000372D01*
X040385Y000392D01*
X040452Y000415D01*
X040517Y000442D01*
X040581Y000473D01*
X040644Y000508D01*
X040704Y000545D01*
X040762Y000586D01*
X040817Y000631D01*
X040870Y000678D01*
X040921Y000728D01*
X040968Y000781D01*
X041012Y000837D01*
X041054Y000895D01*
X041092Y000955D01*
X041126Y001017D01*
X041157Y001081D01*
X041184Y001146D01*
X041208Y001214D01*
X041227Y001282D01*
X041243Y001351D01*
X041255Y001421D01*
X041263Y001492D01*
X041267Y001563D01*
X041268Y001634D01*
X041264Y001705D01*
X041256Y001775D01*
X041244Y001845D01*
X041228Y001915D01*
X041209Y001983D01*
X041185Y002050D01*
X041158Y002116D01*
X041128Y002180D01*
X041093Y002242D01*
X041056Y002302D01*
X041015Y002360D01*
X040971Y002416D01*
X040923Y002469D01*
X040873Y002519D01*
X040820Y002567D01*
X040765Y002611D01*
X040759Y002604D01*
X040814Y002560D01*
X040867Y002513D01*
X040917Y002463D01*
X040964Y002410D01*
X041008Y002355D01*
X041048Y002297D01*
X041086Y002238D01*
X041120Y002176D01*
X041150Y002112D01*
X041177Y002047D01*
X041200Y001980D01*
X041220Y001912D01*
X041235Y001844D01*
X041247Y001774D01*
X041255Y001704D01*
X041259Y001633D01*
X041258Y001563D01*
X041254Y001492D01*
X041246Y001422D01*
X041234Y001353D01*
X041219Y001284D01*
X041199Y001216D01*
X041176Y001150D01*
X041149Y001085D01*
X041118Y001021D01*
X041084Y000959D01*
X041046Y000900D01*
X041005Y000842D01*
X040961Y000787D01*
X040914Y000734D01*
X040864Y000685D01*
X040812Y000638D01*
X040756Y000594D01*
X040699Y000553D01*
X040639Y000515D01*
X040577Y000481D01*
X040514Y000451D01*
X040449Y000424D01*
X040382Y000400D01*
X040314Y000381D01*
X040245Y000365D01*
X040176Y000353D01*
X040106Y000345D01*
X040035Y000341D01*
X039965Y000341D01*
X039894Y000345D01*
X039824Y000353D01*
X039755Y000365D01*
X039686Y000381D01*
X039618Y000400D01*
X039551Y000424D01*
X039486Y000451D01*
X039423Y000481D01*
X039361Y000515D01*
X039301Y000553D01*
X039244Y000594D01*
X039188Y000638D01*
X039136Y000685D01*
X039086Y000734D01*
X039039Y000787D01*
X038995Y000842D01*
X038954Y000900D01*
X038916Y000959D01*
X038882Y001021D01*
X038851Y001085D01*
X038824Y001150D01*
X038801Y001216D01*
X038781Y001284D01*
X038766Y001353D01*
X038754Y001422D01*
X038746Y001492D01*
X038742Y001563D01*
X038741Y001633D01*
X038745Y001704D01*
X038753Y001774D01*
X038765Y001844D01*
X038780Y001912D01*
X038800Y001980D01*
X038823Y002047D01*
X038850Y002112D01*
X038880Y002176D01*
X038914Y002238D01*
X038952Y002297D01*
X038992Y002355D01*
X039036Y002410D01*
X039083Y002463D01*
X039133Y002513D01*
X039186Y002560D01*
X039241Y002604D01*
X039246Y002597D01*
X039191Y002553D01*
X039139Y002506D01*
X039090Y002457D01*
X039043Y002404D01*
X039000Y002350D01*
X038959Y002292D01*
X038922Y002233D01*
X038888Y002172D01*
X038858Y002108D01*
X038831Y002044D01*
X038808Y001977D01*
X038789Y001910D01*
X038774Y001842D01*
X038762Y001773D01*
X038754Y001703D01*
X038750Y001633D01*
X038751Y001563D01*
X038755Y001493D01*
X038763Y001424D01*
X038774Y001355D01*
X038790Y001286D01*
X038809Y001219D01*
X038833Y001153D01*
X038860Y001088D01*
X038890Y001025D01*
X038924Y000964D01*
X038961Y000905D01*
X039002Y000847D01*
X039046Y000793D01*
X039092Y000741D01*
X039142Y000691D01*
X039194Y000644D01*
X039249Y000601D01*
X039306Y000560D01*
X039365Y000523D01*
X039427Y000489D01*
X039490Y000459D01*
X039555Y000432D01*
X039621Y000409D01*
X039688Y000390D01*
X039756Y000374D01*
X039825Y000362D01*
X039895Y000354D01*
X039965Y000350D01*
X040035Y000350D01*
X040105Y000354D01*
X040175Y000362D01*
X040244Y000374D01*
X040312Y000390D01*
X040379Y000409D01*
X040445Y000432D01*
X040510Y000459D01*
X040573Y000489D01*
X040635Y000523D01*
X040694Y000560D01*
X040751Y000601D01*
X040806Y000644D01*
X040858Y000691D01*
X040908Y000741D01*
X040954Y000793D01*
X040998Y000847D01*
X041039Y000905D01*
X041076Y000964D01*
X041110Y001025D01*
X041140Y001088D01*
X041167Y001153D01*
X041191Y001219D01*
X041210Y001286D01*
X041226Y001355D01*
X041237Y001424D01*
X041245Y001493D01*
X041249Y001563D01*
X041250Y001633D01*
X041246Y001703D01*
X041238Y001773D01*
X041226Y001842D01*
X041211Y001910D01*
X041192Y001977D01*
X041169Y002044D01*
X041142Y002108D01*
X041112Y002172D01*
X041078Y002233D01*
X041041Y002292D01*
X041000Y002350D01*
X040957Y002404D01*
X040910Y002457D01*
X040861Y002506D01*
X040809Y002553D01*
X040754Y002597D01*
X040749Y002590D01*
X040803Y002546D01*
X040855Y002500D01*
X040904Y002451D01*
X040950Y002399D01*
X040993Y002344D01*
X041033Y002287D01*
X041070Y002228D01*
X041104Y002167D01*
X041134Y002105D01*
X041160Y002040D01*
X041183Y001975D01*
X041202Y001908D01*
X041218Y001840D01*
X041229Y001771D01*
X041237Y001702D01*
X041241Y001633D01*
X041240Y001563D01*
X041236Y001494D01*
X041229Y001425D01*
X041217Y001356D01*
X041201Y001289D01*
X041182Y001222D01*
X041159Y001156D01*
X041132Y001092D01*
X041102Y001029D01*
X041068Y000968D01*
X041031Y000910D01*
X040991Y000853D01*
X040948Y000799D01*
X040901Y000747D01*
X040852Y000698D01*
X040800Y000651D01*
X040746Y000608D01*
X040689Y000568D01*
X040630Y000531D01*
X040569Y000497D01*
X040506Y000467D01*
X040442Y000440D01*
X040377Y000417D01*
X040310Y000398D01*
X040242Y000383D01*
X040173Y000371D01*
X040104Y000363D01*
X040035Y000359D01*
X039965Y000359D01*
X039896Y000363D01*
X039827Y000371D01*
X039758Y000383D01*
X039690Y000398D01*
X039623Y000417D01*
X039558Y000440D01*
X039494Y000467D01*
X039431Y000497D01*
X039370Y000531D01*
X039311Y000568D01*
X039254Y000608D01*
X039200Y000651D01*
X039148Y000698D01*
X039099Y000747D01*
X039052Y000799D01*
X039009Y000853D01*
X038969Y000910D01*
X038932Y000968D01*
X038898Y001029D01*
X038868Y001092D01*
X038841Y001156D01*
X038818Y001222D01*
X038799Y001289D01*
X038783Y001356D01*
X038771Y001425D01*
X038764Y001494D01*
X038760Y001563D01*
X038759Y001633D01*
X038763Y001702D01*
X038771Y001771D01*
X038782Y001840D01*
X038798Y001908D01*
X038817Y001975D01*
X038840Y002040D01*
X038866Y002105D01*
X038896Y002167D01*
X038930Y002228D01*
X038967Y002287D01*
X039007Y002344D01*
X039050Y002399D01*
X039096Y002451D01*
X039145Y002500D01*
X039197Y002546D01*
X039251Y002590D01*
X039257Y002583D01*
X039203Y002539D01*
X039152Y002493D01*
X039103Y002444D01*
X039057Y002393D01*
X039014Y002339D01*
X038974Y002282D01*
X038938Y002224D01*
X038904Y002163D01*
X038874Y002101D01*
X038848Y002037D01*
X038826Y001972D01*
X038807Y001906D01*
X038791Y001838D01*
X038780Y001770D01*
X038772Y001702D01*
X038768Y001633D01*
X038769Y001564D01*
X038773Y001495D01*
X038780Y001426D01*
X038792Y001358D01*
X038807Y001291D01*
X038827Y001224D01*
X038850Y001159D01*
X038876Y001096D01*
X038906Y001033D01*
X038939Y000973D01*
X038976Y000915D01*
X039016Y000858D01*
X039059Y000804D01*
X039105Y000753D01*
X039154Y000704D01*
X039206Y000658D01*
X039260Y000615D01*
X039316Y000575D01*
X039375Y000539D01*
X039435Y000505D01*
X039497Y000475D01*
X039561Y000449D01*
X039626Y000426D01*
X039693Y000407D01*
X039760Y000392D01*
X039828Y000380D01*
X039897Y000372D01*
X039965Y000368D01*
X040035Y000368D01*
X040103Y000372D01*
X040172Y000380D01*
X040240Y000392D01*
X040307Y000407D01*
X040374Y000426D01*
X040439Y000449D01*
X040503Y000475D01*
X040565Y000505D01*
X040625Y000539D01*
X040684Y000575D01*
X040740Y000615D01*
X040794Y000658D01*
X040846Y000704D01*
X040895Y000753D01*
X040941Y000804D01*
X040984Y000858D01*
X041024Y000915D01*
X041061Y000973D01*
X041094Y001033D01*
X041124Y001096D01*
X041150Y001159D01*
X041173Y001224D01*
X041193Y001291D01*
X041208Y001358D01*
X041220Y001426D01*
X041227Y001495D01*
X041231Y001564D01*
X041232Y001633D01*
X041228Y001702D01*
X041220Y001770D01*
X041209Y001838D01*
X041193Y001906D01*
X041174Y001972D01*
X041152Y002037D01*
X041126Y002101D01*
X041096Y002163D01*
X041062Y002224D01*
X041026Y002282D01*
X040986Y002339D01*
X040943Y002393D01*
X040897Y002444D01*
X040848Y002493D01*
X040797Y002539D01*
X040743Y002583D01*
X040738Y002575D01*
X040792Y002532D01*
X040843Y002486D01*
X040892Y002436D01*
X040938Y002385D01*
X040981Y002330D01*
X041021Y002273D01*
X041057Y002215D01*
X041091Y002154D01*
X041120Y002091D01*
X041146Y002027D01*
X041168Y001961D01*
X041187Y001894D01*
X041202Y001827D01*
X041213Y001758D01*
X041220Y001689D01*
X041223Y001620D01*
X041222Y001551D01*
X041217Y001481D01*
X041209Y001413D01*
X041196Y001345D01*
X041180Y001277D01*
X041159Y001211D01*
X041136Y001146D01*
X041108Y001082D01*
X041077Y001020D01*
X041042Y000960D01*
X041004Y000902D01*
X040963Y000846D01*
X040919Y000793D01*
X040872Y000742D01*
X040822Y000694D01*
X040769Y000649D01*
X040714Y000607D01*
X040657Y000568D01*
X040597Y000533D01*
X040536Y000501D01*
X040473Y000472D01*
X040408Y000447D01*
X040342Y000426D01*
X040275Y000408D01*
X040207Y000395D01*
X040138Y000385D01*
X040069Y000379D01*
X040000Y000377D01*
X039931Y000379D01*
X039862Y000385D01*
X039793Y000395D01*
X039725Y000408D01*
X039658Y000426D01*
X039592Y000447D01*
X039527Y000472D01*
X039464Y000501D01*
X039403Y000533D01*
X039343Y000568D01*
X039286Y000607D01*
X039231Y000649D01*
X039178Y000694D01*
X039128Y000742D01*
X039081Y000793D01*
X039037Y000846D01*
X038996Y000902D01*
X038958Y000960D01*
X038923Y001020D01*
X038892Y001082D01*
X038864Y001146D01*
X038841Y001211D01*
X038820Y001277D01*
X038804Y001345D01*
X038791Y001413D01*
X038783Y001481D01*
X038778Y001551D01*
X038777Y001620D01*
X038780Y001689D01*
X038787Y001758D01*
X038798Y001827D01*
X038813Y001894D01*
X038832Y001961D01*
X038854Y002027D01*
X038880Y002091D01*
X038909Y002154D01*
X038943Y002215D01*
X038979Y002273D01*
X039019Y002330D01*
X039062Y002385D01*
X039108Y002436D01*
X039157Y002486D01*
X039208Y002532D01*
X039262Y002575D01*
X039268Y002568D01*
X039214Y002525D01*
X039163Y002479D01*
X039114Y002430D01*
X039069Y002379D01*
X039026Y002325D01*
X038987Y002268D01*
X038950Y002210D01*
X038917Y002150D01*
X038888Y002087D01*
X038862Y002024D01*
X038840Y001958D01*
X038822Y001892D01*
X038807Y001825D01*
X038796Y001757D01*
X038789Y001688D01*
X038786Y001620D01*
X038787Y001551D01*
X038792Y001482D01*
X038800Y001414D01*
X038813Y001346D01*
X038829Y001280D01*
X038849Y001214D01*
X038873Y001149D01*
X038900Y001086D01*
X038931Y001025D01*
X038965Y000965D01*
X039003Y000907D01*
X039044Y000852D01*
X039088Y000799D01*
X039135Y000749D01*
X039184Y000701D01*
X039236Y000656D01*
X039291Y000614D01*
X039348Y000576D01*
X039407Y000541D01*
X039468Y000509D01*
X039531Y000480D01*
X039595Y000456D01*
X039661Y000434D01*
X039727Y000417D01*
X039795Y000404D01*
X039863Y000394D01*
X039931Y000388D01*
X040000Y000386D01*
X040069Y000388D01*
X040137Y000394D01*
X040205Y000404D01*
X040273Y000417D01*
X040339Y000434D01*
X040405Y000456D01*
X040469Y000480D01*
X040532Y000509D01*
X040593Y000541D01*
X040652Y000576D01*
X040709Y000614D01*
X040764Y000656D01*
X040816Y000701D01*
X040865Y000749D01*
X040912Y000799D01*
X040956Y000852D01*
X040997Y000907D01*
X041035Y000965D01*
X041069Y001025D01*
X041100Y001086D01*
X041127Y001149D01*
X041151Y001214D01*
X041171Y001280D01*
X041187Y001346D01*
X041200Y001414D01*
X041208Y001482D01*
X041213Y001551D01*
X041214Y001620D01*
X041211Y001688D01*
X041204Y001757D01*
X041193Y001825D01*
X041178Y001892D01*
X041160Y001958D01*
X041138Y002024D01*
X041112Y002087D01*
X041083Y002150D01*
X041050Y002210D01*
X041013Y002268D01*
X040974Y002325D01*
X040931Y002379D01*
X040886Y002430D01*
X040837Y002479D01*
X040786Y002525D01*
X040732Y002568D01*
X040280Y018068D02*
X040226Y018140D01*
X040227Y018139D02*
X040280Y018182D01*
X040331Y018227D01*
X040379Y018276D01*
X040424Y018327D01*
X040467Y018381D01*
X040506Y018437D01*
X040542Y018495D01*
X040575Y018555D01*
X040604Y018616D01*
X040629Y018680D01*
X040651Y018744D01*
X040670Y018810D01*
X040684Y018877D01*
X040695Y018944D01*
X040702Y019012D01*
X040705Y019080D01*
X040704Y019149D01*
X040699Y019217D01*
X040691Y019285D01*
X040678Y019352D01*
X040662Y019418D01*
X040642Y019483D01*
X040619Y019548D01*
X040592Y019610D01*
X040561Y019671D01*
X040527Y019730D01*
X040490Y019788D01*
X040449Y019843D01*
X040405Y019895D01*
X040359Y019945D01*
X040310Y019992D01*
X040258Y020037D01*
X040204Y020078D01*
X040147Y020117D01*
X040088Y020152D01*
X040028Y020183D01*
X039966Y020211D01*
X039902Y020236D01*
X039837Y020257D01*
X039771Y020274D01*
X039704Y020288D01*
X039636Y020297D01*
X039568Y020303D01*
X039500Y020305D01*
X039432Y020303D01*
X039364Y020297D01*
X039296Y020288D01*
X039229Y020274D01*
X039163Y020257D01*
X039098Y020236D01*
X039034Y020211D01*
X038972Y020183D01*
X038912Y020152D01*
X038853Y020117D01*
X038796Y020078D01*
X038742Y020037D01*
X038690Y019992D01*
X038641Y019945D01*
X038595Y019895D01*
X038551Y019843D01*
X038510Y019788D01*
X038473Y019730D01*
X038439Y019671D01*
X038408Y019610D01*
X038381Y019548D01*
X038358Y019483D01*
X038338Y019418D01*
X038322Y019352D01*
X038309Y019285D01*
X038301Y019217D01*
X038296Y019149D01*
X038295Y019080D01*
X038298Y019012D01*
X038305Y018944D01*
X038316Y018877D01*
X038330Y018810D01*
X038349Y018744D01*
X038371Y018680D01*
X038396Y018616D01*
X038425Y018555D01*
X038458Y018495D01*
X038494Y018437D01*
X038533Y018381D01*
X038576Y018327D01*
X038621Y018276D01*
X038669Y018227D01*
X038720Y018182D01*
X038773Y018139D01*
X038720Y018068D01*
X038719Y018067D01*
X038664Y018111D01*
X038611Y018159D01*
X038560Y018209D01*
X038513Y018262D01*
X038469Y018317D01*
X038427Y018375D01*
X038389Y018435D01*
X038354Y018496D01*
X038323Y018560D01*
X038295Y018625D01*
X038271Y018692D01*
X038250Y018760D01*
X038234Y018829D01*
X038221Y018899D01*
X038212Y018969D01*
X038206Y019040D01*
X038205Y019111D01*
X038208Y019182D01*
X038214Y019253D01*
X038224Y019323D01*
X038238Y019392D01*
X038256Y019461D01*
X038278Y019529D01*
X038303Y019595D01*
X038332Y019660D01*
X038365Y019723D01*
X038401Y019784D01*
X038440Y019843D01*
X038482Y019900D01*
X038527Y019955D01*
X038576Y020007D01*
X038627Y020056D01*
X038680Y020103D01*
X038737Y020146D01*
X038795Y020186D01*
X038856Y020223D01*
X038918Y020257D01*
X038982Y020287D01*
X039048Y020314D01*
X039115Y020337D01*
X039184Y020356D01*
X039253Y020371D01*
X039323Y020383D01*
X039394Y020391D01*
X039465Y020395D01*
X039535Y020395D01*
X039606Y020391D01*
X039677Y020383D01*
X039747Y020371D01*
X039816Y020356D01*
X039885Y020337D01*
X039952Y020314D01*
X040018Y020287D01*
X040082Y020257D01*
X040144Y020223D01*
X040205Y020186D01*
X040263Y020146D01*
X040320Y020103D01*
X040373Y020056D01*
X040424Y020007D01*
X040473Y019955D01*
X040518Y019900D01*
X040560Y019843D01*
X040599Y019784D01*
X040635Y019723D01*
X040668Y019660D01*
X040697Y019595D01*
X040722Y019529D01*
X040744Y019461D01*
X040762Y019392D01*
X040776Y019323D01*
X040786Y019253D01*
X040792Y019182D01*
X040795Y019111D01*
X040794Y019040D01*
X040788Y018969D01*
X040779Y018899D01*
X040766Y018829D01*
X040750Y018760D01*
X040729Y018692D01*
X040705Y018625D01*
X040677Y018560D01*
X040646Y018496D01*
X040611Y018435D01*
X040573Y018375D01*
X040531Y018317D01*
X040487Y018262D01*
X040440Y018209D01*
X040389Y018159D01*
X040336Y018111D01*
X040281Y018067D01*
X040276Y018074D01*
X040331Y018119D01*
X040384Y018166D01*
X040435Y018217D01*
X040482Y018270D01*
X040527Y018326D01*
X040568Y018384D01*
X040606Y018444D01*
X040641Y018506D01*
X040672Y018570D01*
X040699Y018636D01*
X040723Y018703D01*
X040743Y018772D01*
X040760Y018841D01*
X040772Y018911D01*
X040781Y018982D01*
X040785Y019053D01*
X040786Y019124D01*
X040782Y019195D01*
X040775Y019266D01*
X040764Y019337D01*
X040749Y019406D01*
X040730Y019475D01*
X040707Y019543D01*
X040681Y019609D01*
X040651Y019674D01*
X040617Y019736D01*
X040581Y019797D01*
X040540Y019856D01*
X040497Y019913D01*
X040450Y019967D01*
X040401Y020018D01*
X040348Y020066D01*
X040294Y020112D01*
X040236Y020154D01*
X040177Y020193D01*
X040115Y020229D01*
X040052Y020262D01*
X039987Y020290D01*
X039920Y020316D01*
X039852Y020337D01*
X039783Y020355D01*
X039713Y020368D01*
X039642Y020378D01*
X039571Y020384D01*
X039500Y020386D01*
X039429Y020384D01*
X039358Y020378D01*
X039287Y020368D01*
X039217Y020355D01*
X039148Y020337D01*
X039080Y020316D01*
X039013Y020290D01*
X038948Y020262D01*
X038885Y020229D01*
X038823Y020193D01*
X038764Y020154D01*
X038706Y020112D01*
X038652Y020066D01*
X038599Y020018D01*
X038550Y019967D01*
X038503Y019913D01*
X038460Y019856D01*
X038419Y019797D01*
X038383Y019736D01*
X038349Y019674D01*
X038319Y019609D01*
X038293Y019543D01*
X038270Y019475D01*
X038251Y019406D01*
X038236Y019337D01*
X038225Y019266D01*
X038218Y019195D01*
X038214Y019124D01*
X038215Y019053D01*
X038219Y018982D01*
X038228Y018911D01*
X038240Y018841D01*
X038257Y018772D01*
X038277Y018703D01*
X038301Y018636D01*
X038328Y018570D01*
X038359Y018506D01*
X038394Y018444D01*
X038432Y018384D01*
X038473Y018326D01*
X038518Y018270D01*
X038565Y018217D01*
X038616Y018166D01*
X038669Y018119D01*
X038724Y018074D01*
X038730Y018081D01*
X038675Y018126D01*
X038622Y018173D01*
X038572Y018223D01*
X038525Y018276D01*
X038481Y018331D01*
X038439Y018389D01*
X038402Y018448D01*
X038367Y018510D01*
X038336Y018574D01*
X038309Y018639D01*
X038285Y018706D01*
X038265Y018774D01*
X038249Y018843D01*
X038237Y018912D01*
X038228Y018983D01*
X038224Y019053D01*
X038223Y019124D01*
X038227Y019195D01*
X038234Y019265D01*
X038245Y019335D01*
X038260Y019404D01*
X038279Y019472D01*
X038301Y019540D01*
X038327Y019605D01*
X038357Y019670D01*
X038390Y019732D01*
X038427Y019792D01*
X038467Y019851D01*
X038510Y019907D01*
X038556Y019961D01*
X038606Y020011D01*
X038657Y020060D01*
X038712Y020105D01*
X038769Y020147D01*
X038828Y020186D01*
X038889Y020221D01*
X038952Y020254D01*
X039017Y020282D01*
X039083Y020307D01*
X039151Y020328D01*
X039219Y020346D01*
X039289Y020359D01*
X039359Y020369D01*
X039429Y020375D01*
X039500Y020377D01*
X039571Y020375D01*
X039641Y020369D01*
X039711Y020359D01*
X039781Y020346D01*
X039849Y020328D01*
X039917Y020307D01*
X039983Y020282D01*
X040048Y020254D01*
X040111Y020221D01*
X040172Y020186D01*
X040231Y020147D01*
X040288Y020105D01*
X040343Y020060D01*
X040394Y020011D01*
X040444Y019961D01*
X040490Y019907D01*
X040533Y019851D01*
X040573Y019792D01*
X040610Y019732D01*
X040643Y019670D01*
X040673Y019605D01*
X040699Y019540D01*
X040721Y019472D01*
X040740Y019404D01*
X040755Y019335D01*
X040766Y019265D01*
X040773Y019195D01*
X040777Y019124D01*
X040776Y019053D01*
X040772Y018983D01*
X040763Y018912D01*
X040751Y018843D01*
X040735Y018774D01*
X040715Y018706D01*
X040691Y018639D01*
X040664Y018574D01*
X040633Y018510D01*
X040598Y018448D01*
X040561Y018389D01*
X040519Y018331D01*
X040475Y018276D01*
X040428Y018223D01*
X040378Y018173D01*
X040325Y018126D01*
X040270Y018081D01*
X040265Y018089D01*
X040320Y018133D01*
X040373Y018181D01*
X040423Y018231D01*
X040471Y018284D01*
X040515Y018340D01*
X040556Y018398D01*
X040593Y018458D01*
X040628Y018520D01*
X040658Y018584D01*
X040685Y018650D01*
X040709Y018717D01*
X040728Y018785D01*
X040744Y018855D01*
X040756Y018925D01*
X040764Y018995D01*
X040768Y019066D01*
X040767Y019137D01*
X040763Y019208D01*
X040755Y019279D01*
X040743Y019349D01*
X040727Y019418D01*
X040708Y019486D01*
X040684Y019554D01*
X040657Y019619D01*
X040626Y019683D01*
X040592Y019745D01*
X040554Y019805D01*
X040512Y019863D01*
X040468Y019919D01*
X040421Y019972D01*
X040370Y020022D01*
X040317Y020069D01*
X040262Y020114D01*
X040204Y020155D01*
X040144Y020192D01*
X040081Y020227D01*
X040017Y020258D01*
X039952Y020285D01*
X039885Y020308D01*
X039816Y020328D01*
X039747Y020344D01*
X039677Y020356D01*
X039606Y020364D01*
X039536Y020368D01*
X039464Y020368D01*
X039394Y020364D01*
X039323Y020356D01*
X039253Y020344D01*
X039184Y020328D01*
X039115Y020308D01*
X039048Y020285D01*
X038983Y020258D01*
X038919Y020227D01*
X038856Y020192D01*
X038796Y020155D01*
X038738Y020114D01*
X038683Y020069D01*
X038630Y020022D01*
X038579Y019972D01*
X038532Y019919D01*
X038488Y019863D01*
X038446Y019805D01*
X038408Y019745D01*
X038374Y019683D01*
X038343Y019619D01*
X038316Y019554D01*
X038292Y019486D01*
X038273Y019418D01*
X038257Y019349D01*
X038245Y019279D01*
X038237Y019208D01*
X038233Y019137D01*
X038232Y019066D01*
X038236Y018995D01*
X038244Y018925D01*
X038256Y018855D01*
X038272Y018785D01*
X038291Y018717D01*
X038315Y018650D01*
X038342Y018584D01*
X038372Y018520D01*
X038407Y018458D01*
X038444Y018398D01*
X038485Y018340D01*
X038529Y018284D01*
X038577Y018231D01*
X038627Y018181D01*
X038680Y018133D01*
X038735Y018089D01*
X038741Y018096D01*
X038686Y018140D01*
X038633Y018187D01*
X038583Y018237D01*
X038536Y018290D01*
X038492Y018345D01*
X038452Y018403D01*
X038414Y018462D01*
X038380Y018524D01*
X038350Y018588D01*
X038323Y018653D01*
X038300Y018720D01*
X038280Y018788D01*
X038265Y018856D01*
X038253Y018926D01*
X038245Y018996D01*
X038241Y019067D01*
X038242Y019137D01*
X038246Y019208D01*
X038254Y019278D01*
X038266Y019347D01*
X038281Y019416D01*
X038301Y019484D01*
X038324Y019550D01*
X038351Y019615D01*
X038382Y019679D01*
X038416Y019741D01*
X038454Y019800D01*
X038495Y019858D01*
X038539Y019913D01*
X038586Y019966D01*
X038636Y020015D01*
X038688Y020062D01*
X038744Y020106D01*
X038801Y020147D01*
X038861Y020185D01*
X038923Y020219D01*
X038986Y020249D01*
X039051Y020276D01*
X039118Y020300D01*
X039186Y020319D01*
X039255Y020335D01*
X039324Y020347D01*
X039394Y020355D01*
X039465Y020359D01*
X039535Y020359D01*
X039606Y020355D01*
X039676Y020347D01*
X039745Y020335D01*
X039814Y020319D01*
X039882Y020300D01*
X039949Y020276D01*
X040014Y020249D01*
X040077Y020219D01*
X040139Y020185D01*
X040199Y020147D01*
X040256Y020106D01*
X040312Y020062D01*
X040364Y020015D01*
X040414Y019966D01*
X040461Y019913D01*
X040505Y019858D01*
X040546Y019800D01*
X040584Y019741D01*
X040618Y019679D01*
X040649Y019615D01*
X040676Y019550D01*
X040699Y019484D01*
X040719Y019416D01*
X040734Y019347D01*
X040746Y019278D01*
X040754Y019208D01*
X040758Y019137D01*
X040759Y019067D01*
X040755Y018996D01*
X040747Y018926D01*
X040735Y018856D01*
X040720Y018788D01*
X040700Y018720D01*
X040677Y018653D01*
X040650Y018588D01*
X040620Y018524D01*
X040586Y018462D01*
X040548Y018403D01*
X040508Y018345D01*
X040464Y018290D01*
X040417Y018237D01*
X040367Y018187D01*
X040314Y018140D01*
X040259Y018096D01*
X040254Y018103D01*
X040309Y018147D01*
X040361Y018194D01*
X040410Y018243D01*
X040457Y018296D01*
X040500Y018350D01*
X040541Y018408D01*
X040578Y018467D01*
X040612Y018528D01*
X040642Y018592D01*
X040669Y018656D01*
X040692Y018723D01*
X040711Y018790D01*
X040726Y018858D01*
X040738Y018927D01*
X040746Y018997D01*
X040750Y019067D01*
X040749Y019137D01*
X040745Y019207D01*
X040737Y019276D01*
X040726Y019345D01*
X040710Y019414D01*
X040691Y019481D01*
X040667Y019547D01*
X040640Y019612D01*
X040610Y019675D01*
X040576Y019736D01*
X040539Y019795D01*
X040498Y019853D01*
X040454Y019907D01*
X040408Y019959D01*
X040358Y020009D01*
X040306Y020056D01*
X040251Y020099D01*
X040194Y020140D01*
X040135Y020177D01*
X040073Y020211D01*
X040010Y020241D01*
X039945Y020268D01*
X039879Y020291D01*
X039812Y020310D01*
X039744Y020326D01*
X039675Y020338D01*
X039605Y020346D01*
X039535Y020350D01*
X039465Y020350D01*
X039395Y020346D01*
X039325Y020338D01*
X039256Y020326D01*
X039188Y020310D01*
X039121Y020291D01*
X039055Y020268D01*
X038990Y020241D01*
X038927Y020211D01*
X038865Y020177D01*
X038806Y020140D01*
X038749Y020099D01*
X038694Y020056D01*
X038642Y020009D01*
X038592Y019959D01*
X038546Y019907D01*
X038502Y019853D01*
X038461Y019795D01*
X038424Y019736D01*
X038390Y019675D01*
X038360Y019612D01*
X038333Y019547D01*
X038309Y019481D01*
X038290Y019414D01*
X038274Y019345D01*
X038263Y019276D01*
X038255Y019207D01*
X038251Y019137D01*
X038250Y019067D01*
X038254Y018997D01*
X038262Y018927D01*
X038274Y018858D01*
X038289Y018790D01*
X038308Y018723D01*
X038331Y018656D01*
X038358Y018592D01*
X038388Y018528D01*
X038422Y018467D01*
X038459Y018408D01*
X038500Y018350D01*
X038543Y018296D01*
X038590Y018243D01*
X038639Y018194D01*
X038691Y018147D01*
X038746Y018103D01*
X038751Y018110D01*
X038697Y018154D01*
X038645Y018200D01*
X038596Y018249D01*
X038550Y018301D01*
X038507Y018356D01*
X038467Y018413D01*
X038430Y018472D01*
X038396Y018533D01*
X038366Y018595D01*
X038340Y018660D01*
X038317Y018725D01*
X038298Y018792D01*
X038282Y018860D01*
X038271Y018929D01*
X038263Y018998D01*
X038259Y019067D01*
X038260Y019137D01*
X038264Y019206D01*
X038271Y019275D01*
X038283Y019344D01*
X038299Y019411D01*
X038318Y019478D01*
X038341Y019544D01*
X038368Y019608D01*
X038398Y019671D01*
X038432Y019732D01*
X038469Y019790D01*
X038509Y019847D01*
X038552Y019901D01*
X038599Y019953D01*
X038648Y020002D01*
X038700Y020049D01*
X038754Y020092D01*
X038811Y020132D01*
X038870Y020169D01*
X038931Y020203D01*
X038994Y020233D01*
X039058Y020260D01*
X039123Y020283D01*
X039190Y020302D01*
X039258Y020317D01*
X039327Y020329D01*
X039396Y020337D01*
X039465Y020341D01*
X039535Y020341D01*
X039604Y020337D01*
X039673Y020329D01*
X039742Y020317D01*
X039810Y020302D01*
X039877Y020283D01*
X039942Y020260D01*
X040006Y020233D01*
X040069Y020203D01*
X040130Y020169D01*
X040189Y020132D01*
X040246Y020092D01*
X040300Y020049D01*
X040352Y020002D01*
X040401Y019953D01*
X040448Y019901D01*
X040491Y019847D01*
X040531Y019790D01*
X040568Y019732D01*
X040602Y019671D01*
X040632Y019608D01*
X040659Y019544D01*
X040682Y019478D01*
X040701Y019411D01*
X040717Y019344D01*
X040729Y019275D01*
X040736Y019206D01*
X040740Y019137D01*
X040741Y019067D01*
X040737Y018998D01*
X040729Y018929D01*
X040718Y018860D01*
X040702Y018792D01*
X040683Y018725D01*
X040660Y018660D01*
X040634Y018595D01*
X040604Y018533D01*
X040570Y018472D01*
X040533Y018413D01*
X040493Y018356D01*
X040450Y018301D01*
X040404Y018249D01*
X040355Y018200D01*
X040303Y018154D01*
X040249Y018110D01*
X040243Y018117D01*
X040297Y018161D01*
X040348Y018207D01*
X040397Y018256D01*
X040443Y018307D01*
X040486Y018361D01*
X040526Y018418D01*
X040562Y018476D01*
X040596Y018537D01*
X040626Y018599D01*
X040652Y018663D01*
X040674Y018728D01*
X040693Y018794D01*
X040709Y018862D01*
X040720Y018930D01*
X040728Y018998D01*
X040732Y019067D01*
X040731Y019136D01*
X040727Y019205D01*
X040720Y019274D01*
X040708Y019342D01*
X040693Y019409D01*
X040673Y019476D01*
X040650Y019541D01*
X040624Y019604D01*
X040594Y019667D01*
X040561Y019727D01*
X040524Y019785D01*
X040484Y019842D01*
X040441Y019896D01*
X040395Y019947D01*
X040346Y019996D01*
X040294Y020042D01*
X040240Y020085D01*
X040184Y020125D01*
X040125Y020161D01*
X040065Y020195D01*
X040003Y020225D01*
X039939Y020251D01*
X039874Y020274D01*
X039807Y020293D01*
X039740Y020308D01*
X039672Y020320D01*
X039603Y020328D01*
X039535Y020332D01*
X039465Y020332D01*
X039397Y020328D01*
X039328Y020320D01*
X039260Y020308D01*
X039193Y020293D01*
X039126Y020274D01*
X039061Y020251D01*
X038997Y020225D01*
X038935Y020195D01*
X038875Y020161D01*
X038816Y020125D01*
X038760Y020085D01*
X038706Y020042D01*
X038654Y019996D01*
X038605Y019947D01*
X038559Y019896D01*
X038516Y019842D01*
X038476Y019785D01*
X038439Y019727D01*
X038406Y019667D01*
X038376Y019604D01*
X038350Y019541D01*
X038327Y019476D01*
X038307Y019409D01*
X038292Y019342D01*
X038280Y019274D01*
X038273Y019205D01*
X038269Y019136D01*
X038268Y019067D01*
X038272Y018998D01*
X038280Y018930D01*
X038291Y018862D01*
X038307Y018794D01*
X038326Y018728D01*
X038348Y018663D01*
X038374Y018599D01*
X038404Y018537D01*
X038438Y018476D01*
X038474Y018418D01*
X038514Y018361D01*
X038557Y018307D01*
X038603Y018256D01*
X038652Y018207D01*
X038703Y018161D01*
X038757Y018117D01*
X038762Y018125D01*
X038708Y018168D01*
X038657Y018214D01*
X038608Y018264D01*
X038562Y018315D01*
X038519Y018370D01*
X038479Y018427D01*
X038443Y018485D01*
X038409Y018546D01*
X038380Y018609D01*
X038354Y018673D01*
X038332Y018739D01*
X038313Y018806D01*
X038298Y018873D01*
X038287Y018942D01*
X038280Y019011D01*
X038277Y019080D01*
X038278Y019149D01*
X038283Y019219D01*
X038291Y019287D01*
X038304Y019355D01*
X038320Y019423D01*
X038341Y019489D01*
X038364Y019554D01*
X038392Y019618D01*
X038423Y019680D01*
X038458Y019740D01*
X038496Y019798D01*
X038537Y019854D01*
X038581Y019907D01*
X038628Y019958D01*
X038678Y020006D01*
X038731Y020051D01*
X038786Y020093D01*
X038843Y020132D01*
X038903Y020167D01*
X038964Y020199D01*
X039027Y020228D01*
X039092Y020253D01*
X039158Y020274D01*
X039225Y020292D01*
X039293Y020305D01*
X039362Y020315D01*
X039431Y020321D01*
X039500Y020323D01*
X039569Y020321D01*
X039638Y020315D01*
X039707Y020305D01*
X039775Y020292D01*
X039842Y020274D01*
X039908Y020253D01*
X039973Y020228D01*
X040036Y020199D01*
X040097Y020167D01*
X040157Y020132D01*
X040214Y020093D01*
X040269Y020051D01*
X040322Y020006D01*
X040372Y019958D01*
X040419Y019907D01*
X040463Y019854D01*
X040504Y019798D01*
X040542Y019740D01*
X040577Y019680D01*
X040608Y019618D01*
X040636Y019554D01*
X040659Y019489D01*
X040680Y019423D01*
X040696Y019355D01*
X040709Y019287D01*
X040717Y019219D01*
X040722Y019149D01*
X040723Y019080D01*
X040720Y019011D01*
X040713Y018942D01*
X040702Y018873D01*
X040687Y018806D01*
X040668Y018739D01*
X040646Y018673D01*
X040620Y018609D01*
X040591Y018546D01*
X040557Y018485D01*
X040521Y018427D01*
X040481Y018370D01*
X040438Y018315D01*
X040392Y018264D01*
X040343Y018214D01*
X040292Y018168D01*
X040238Y018125D01*
X040232Y018132D01*
X040286Y018175D01*
X040337Y018221D01*
X040386Y018270D01*
X040431Y018321D01*
X040474Y018375D01*
X040513Y018432D01*
X040550Y018490D01*
X040583Y018550D01*
X040612Y018613D01*
X040638Y018676D01*
X040660Y018742D01*
X040678Y018808D01*
X040693Y018875D01*
X040704Y018943D01*
X040711Y019012D01*
X040714Y019080D01*
X040713Y019149D01*
X040708Y019218D01*
X040700Y019286D01*
X040687Y019354D01*
X040671Y019420D01*
X040651Y019486D01*
X040627Y019551D01*
X040600Y019614D01*
X040569Y019675D01*
X040535Y019735D01*
X040497Y019793D01*
X040456Y019848D01*
X040412Y019901D01*
X040365Y019951D01*
X040316Y019999D01*
X040264Y020044D01*
X040209Y020086D01*
X040152Y020124D01*
X040093Y020159D01*
X040032Y020191D01*
X039969Y020220D01*
X039905Y020244D01*
X039839Y020266D01*
X039773Y020283D01*
X039705Y020296D01*
X039637Y020306D01*
X039569Y020312D01*
X039500Y020314D01*
X039431Y020312D01*
X039363Y020306D01*
X039295Y020296D01*
X039227Y020283D01*
X039161Y020266D01*
X039095Y020244D01*
X039031Y020220D01*
X038968Y020191D01*
X038907Y020159D01*
X038848Y020124D01*
X038791Y020086D01*
X038736Y020044D01*
X038684Y019999D01*
X038635Y019951D01*
X038588Y019901D01*
X038544Y019848D01*
X038503Y019793D01*
X038465Y019735D01*
X038431Y019675D01*
X038400Y019614D01*
X038373Y019551D01*
X038349Y019486D01*
X038329Y019420D01*
X038313Y019354D01*
X038300Y019286D01*
X038292Y019218D01*
X038287Y019149D01*
X038286Y019080D01*
X038289Y019012D01*
X038296Y018943D01*
X038307Y018875D01*
X038322Y018808D01*
X038340Y018742D01*
X038362Y018676D01*
X038388Y018613D01*
X038417Y018550D01*
X038450Y018490D01*
X038487Y018432D01*
X038526Y018375D01*
X038569Y018321D01*
X038614Y018270D01*
X038663Y018221D01*
X038714Y018175D01*
X038768Y018132D01*
X014280Y018568D02*
X014226Y018640D01*
X014227Y018639D02*
X014280Y018682D01*
X014331Y018727D01*
X014379Y018776D01*
X014424Y018827D01*
X014467Y018881D01*
X014506Y018937D01*
X014542Y018995D01*
X014575Y019055D01*
X014604Y019116D01*
X014629Y019180D01*
X014651Y019244D01*
X014670Y019310D01*
X014684Y019377D01*
X014695Y019444D01*
X014702Y019512D01*
X014705Y019580D01*
X014704Y019649D01*
X014699Y019717D01*
X014691Y019785D01*
X014678Y019852D01*
X014662Y019918D01*
X014642Y019983D01*
X014619Y020048D01*
X014592Y020110D01*
X014561Y020171D01*
X014527Y020230D01*
X014490Y020288D01*
X014449Y020343D01*
X014405Y020395D01*
X014359Y020445D01*
X014310Y020492D01*
X014258Y020537D01*
X014204Y020578D01*
X014147Y020617D01*
X014088Y020652D01*
X014028Y020683D01*
X013966Y020711D01*
X013902Y020736D01*
X013837Y020757D01*
X013771Y020774D01*
X013704Y020788D01*
X013636Y020797D01*
X013568Y020803D01*
X013500Y020805D01*
X013432Y020803D01*
X013364Y020797D01*
X013296Y020788D01*
X013229Y020774D01*
X013163Y020757D01*
X013098Y020736D01*
X013034Y020711D01*
X012972Y020683D01*
X012912Y020652D01*
X012853Y020617D01*
X012796Y020578D01*
X012742Y020537D01*
X012690Y020492D01*
X012641Y020445D01*
X012595Y020395D01*
X012551Y020343D01*
X012510Y020288D01*
X012473Y020230D01*
X012439Y020171D01*
X012408Y020110D01*
X012381Y020048D01*
X012358Y019983D01*
X012338Y019918D01*
X012322Y019852D01*
X012309Y019785D01*
X012301Y019717D01*
X012296Y019649D01*
X012295Y019580D01*
X012298Y019512D01*
X012305Y019444D01*
X012316Y019377D01*
X012330Y019310D01*
X012349Y019244D01*
X012371Y019180D01*
X012396Y019116D01*
X012425Y019055D01*
X012458Y018995D01*
X012494Y018937D01*
X012533Y018881D01*
X012576Y018827D01*
X012621Y018776D01*
X012669Y018727D01*
X012720Y018682D01*
X012773Y018639D01*
X012720Y018568D01*
X012719Y018567D01*
X012664Y018611D01*
X012611Y018659D01*
X012560Y018709D01*
X012513Y018762D01*
X012469Y018817D01*
X012427Y018875D01*
X012389Y018935D01*
X012354Y018996D01*
X012323Y019060D01*
X012295Y019125D01*
X012271Y019192D01*
X012250Y019260D01*
X012234Y019329D01*
X012221Y019399D01*
X012212Y019469D01*
X012206Y019540D01*
X012205Y019611D01*
X012208Y019682D01*
X012214Y019753D01*
X012224Y019823D01*
X012238Y019892D01*
X012256Y019961D01*
X012278Y020029D01*
X012303Y020095D01*
X012332Y020160D01*
X012365Y020223D01*
X012401Y020284D01*
X012440Y020343D01*
X012482Y020400D01*
X012527Y020455D01*
X012576Y020507D01*
X012627Y020556D01*
X012680Y020603D01*
X012737Y020646D01*
X012795Y020686D01*
X012856Y020723D01*
X012918Y020757D01*
X012982Y020787D01*
X013048Y020814D01*
X013115Y020837D01*
X013184Y020856D01*
X013253Y020871D01*
X013323Y020883D01*
X013394Y020891D01*
X013465Y020895D01*
X013535Y020895D01*
X013606Y020891D01*
X013677Y020883D01*
X013747Y020871D01*
X013816Y020856D01*
X013885Y020837D01*
X013952Y020814D01*
X014018Y020787D01*
X014082Y020757D01*
X014144Y020723D01*
X014205Y020686D01*
X014263Y020646D01*
X014320Y020603D01*
X014373Y020556D01*
X014424Y020507D01*
X014473Y020455D01*
X014518Y020400D01*
X014560Y020343D01*
X014599Y020284D01*
X014635Y020223D01*
X014668Y020160D01*
X014697Y020095D01*
X014722Y020029D01*
X014744Y019961D01*
X014762Y019892D01*
X014776Y019823D01*
X014786Y019753D01*
X014792Y019682D01*
X014795Y019611D01*
X014794Y019540D01*
X014788Y019469D01*
X014779Y019399D01*
X014766Y019329D01*
X014750Y019260D01*
X014729Y019192D01*
X014705Y019125D01*
X014677Y019060D01*
X014646Y018996D01*
X014611Y018935D01*
X014573Y018875D01*
X014531Y018817D01*
X014487Y018762D01*
X014440Y018709D01*
X014389Y018659D01*
X014336Y018611D01*
X014281Y018567D01*
X014276Y018574D01*
X014331Y018619D01*
X014384Y018666D01*
X014435Y018717D01*
X014482Y018770D01*
X014527Y018826D01*
X014568Y018884D01*
X014606Y018944D01*
X014641Y019006D01*
X014672Y019070D01*
X014699Y019136D01*
X014723Y019203D01*
X014743Y019272D01*
X014760Y019341D01*
X014772Y019411D01*
X014781Y019482D01*
X014785Y019553D01*
X014786Y019624D01*
X014782Y019695D01*
X014775Y019766D01*
X014764Y019837D01*
X014749Y019906D01*
X014730Y019975D01*
X014707Y020043D01*
X014681Y020109D01*
X014651Y020174D01*
X014617Y020236D01*
X014581Y020297D01*
X014540Y020356D01*
X014497Y020413D01*
X014450Y020467D01*
X014401Y020518D01*
X014348Y020566D01*
X014294Y020612D01*
X014236Y020654D01*
X014177Y020693D01*
X014115Y020729D01*
X014052Y020762D01*
X013987Y020790D01*
X013920Y020816D01*
X013852Y020837D01*
X013783Y020855D01*
X013713Y020868D01*
X013642Y020878D01*
X013571Y020884D01*
X013500Y020886D01*
X013429Y020884D01*
X013358Y020878D01*
X013287Y020868D01*
X013217Y020855D01*
X013148Y020837D01*
X013080Y020816D01*
X013013Y020790D01*
X012948Y020762D01*
X012885Y020729D01*
X012823Y020693D01*
X012764Y020654D01*
X012706Y020612D01*
X012652Y020566D01*
X012599Y020518D01*
X012550Y020467D01*
X012503Y020413D01*
X012460Y020356D01*
X012419Y020297D01*
X012383Y020236D01*
X012349Y020174D01*
X012319Y020109D01*
X012293Y020043D01*
X012270Y019975D01*
X012251Y019906D01*
X012236Y019837D01*
X012225Y019766D01*
X012218Y019695D01*
X012214Y019624D01*
X012215Y019553D01*
X012219Y019482D01*
X012228Y019411D01*
X012240Y019341D01*
X012257Y019272D01*
X012277Y019203D01*
X012301Y019136D01*
X012328Y019070D01*
X012359Y019006D01*
X012394Y018944D01*
X012432Y018884D01*
X012473Y018826D01*
X012518Y018770D01*
X012565Y018717D01*
X012616Y018666D01*
X012669Y018619D01*
X012724Y018574D01*
X012730Y018581D01*
X012675Y018626D01*
X012622Y018673D01*
X012572Y018723D01*
X012525Y018776D01*
X012481Y018831D01*
X012439Y018889D01*
X012402Y018948D01*
X012367Y019010D01*
X012336Y019074D01*
X012309Y019139D01*
X012285Y019206D01*
X012265Y019274D01*
X012249Y019343D01*
X012237Y019412D01*
X012228Y019483D01*
X012224Y019553D01*
X012223Y019624D01*
X012227Y019695D01*
X012234Y019765D01*
X012245Y019835D01*
X012260Y019904D01*
X012279Y019972D01*
X012301Y020040D01*
X012327Y020105D01*
X012357Y020170D01*
X012390Y020232D01*
X012427Y020292D01*
X012467Y020351D01*
X012510Y020407D01*
X012556Y020461D01*
X012606Y020511D01*
X012657Y020560D01*
X012712Y020605D01*
X012769Y020647D01*
X012828Y020686D01*
X012889Y020721D01*
X012952Y020754D01*
X013017Y020782D01*
X013083Y020807D01*
X013151Y020828D01*
X013219Y020846D01*
X013289Y020859D01*
X013359Y020869D01*
X013429Y020875D01*
X013500Y020877D01*
X013571Y020875D01*
X013641Y020869D01*
X013711Y020859D01*
X013781Y020846D01*
X013849Y020828D01*
X013917Y020807D01*
X013983Y020782D01*
X014048Y020754D01*
X014111Y020721D01*
X014172Y020686D01*
X014231Y020647D01*
X014288Y020605D01*
X014343Y020560D01*
X014394Y020511D01*
X014444Y020461D01*
X014490Y020407D01*
X014533Y020351D01*
X014573Y020292D01*
X014610Y020232D01*
X014643Y020170D01*
X014673Y020105D01*
X014699Y020040D01*
X014721Y019972D01*
X014740Y019904D01*
X014755Y019835D01*
X014766Y019765D01*
X014773Y019695D01*
X014777Y019624D01*
X014776Y019553D01*
X014772Y019483D01*
X014763Y019412D01*
X014751Y019343D01*
X014735Y019274D01*
X014715Y019206D01*
X014691Y019139D01*
X014664Y019074D01*
X014633Y019010D01*
X014598Y018948D01*
X014561Y018889D01*
X014519Y018831D01*
X014475Y018776D01*
X014428Y018723D01*
X014378Y018673D01*
X014325Y018626D01*
X014270Y018581D01*
X014265Y018589D01*
X014320Y018633D01*
X014373Y018681D01*
X014423Y018731D01*
X014471Y018784D01*
X014515Y018840D01*
X014556Y018898D01*
X014593Y018958D01*
X014628Y019020D01*
X014658Y019084D01*
X014685Y019150D01*
X014709Y019217D01*
X014728Y019285D01*
X014744Y019355D01*
X014756Y019425D01*
X014764Y019495D01*
X014768Y019566D01*
X014767Y019637D01*
X014763Y019708D01*
X014755Y019779D01*
X014743Y019849D01*
X014727Y019918D01*
X014708Y019986D01*
X014684Y020054D01*
X014657Y020119D01*
X014626Y020183D01*
X014592Y020245D01*
X014554Y020305D01*
X014512Y020363D01*
X014468Y020419D01*
X014421Y020472D01*
X014370Y020522D01*
X014317Y020569D01*
X014262Y020614D01*
X014204Y020655D01*
X014144Y020692D01*
X014081Y020727D01*
X014017Y020758D01*
X013952Y020785D01*
X013885Y020808D01*
X013816Y020828D01*
X013747Y020844D01*
X013677Y020856D01*
X013606Y020864D01*
X013536Y020868D01*
X013464Y020868D01*
X013394Y020864D01*
X013323Y020856D01*
X013253Y020844D01*
X013184Y020828D01*
X013115Y020808D01*
X013048Y020785D01*
X012983Y020758D01*
X012919Y020727D01*
X012856Y020692D01*
X012796Y020655D01*
X012738Y020614D01*
X012683Y020569D01*
X012630Y020522D01*
X012579Y020472D01*
X012532Y020419D01*
X012488Y020363D01*
X012446Y020305D01*
X012408Y020245D01*
X012374Y020183D01*
X012343Y020119D01*
X012316Y020054D01*
X012292Y019986D01*
X012273Y019918D01*
X012257Y019849D01*
X012245Y019779D01*
X012237Y019708D01*
X012233Y019637D01*
X012232Y019566D01*
X012236Y019495D01*
X012244Y019425D01*
X012256Y019355D01*
X012272Y019285D01*
X012291Y019217D01*
X012315Y019150D01*
X012342Y019084D01*
X012372Y019020D01*
X012407Y018958D01*
X012444Y018898D01*
X012485Y018840D01*
X012529Y018784D01*
X012577Y018731D01*
X012627Y018681D01*
X012680Y018633D01*
X012735Y018589D01*
X012741Y018596D01*
X012686Y018640D01*
X012633Y018687D01*
X012583Y018737D01*
X012536Y018790D01*
X012492Y018845D01*
X012452Y018903D01*
X012414Y018962D01*
X012380Y019024D01*
X012350Y019088D01*
X012323Y019153D01*
X012300Y019220D01*
X012280Y019288D01*
X012265Y019356D01*
X012253Y019426D01*
X012245Y019496D01*
X012241Y019567D01*
X012242Y019637D01*
X012246Y019708D01*
X012254Y019778D01*
X012266Y019847D01*
X012281Y019916D01*
X012301Y019984D01*
X012324Y020050D01*
X012351Y020115D01*
X012382Y020179D01*
X012416Y020241D01*
X012454Y020300D01*
X012495Y020358D01*
X012539Y020413D01*
X012586Y020466D01*
X012636Y020515D01*
X012688Y020562D01*
X012744Y020606D01*
X012801Y020647D01*
X012861Y020685D01*
X012923Y020719D01*
X012986Y020749D01*
X013051Y020776D01*
X013118Y020800D01*
X013186Y020819D01*
X013255Y020835D01*
X013324Y020847D01*
X013394Y020855D01*
X013465Y020859D01*
X013535Y020859D01*
X013606Y020855D01*
X013676Y020847D01*
X013745Y020835D01*
X013814Y020819D01*
X013882Y020800D01*
X013949Y020776D01*
X014014Y020749D01*
X014077Y020719D01*
X014139Y020685D01*
X014199Y020647D01*
X014256Y020606D01*
X014312Y020562D01*
X014364Y020515D01*
X014414Y020466D01*
X014461Y020413D01*
X014505Y020358D01*
X014546Y020300D01*
X014584Y020241D01*
X014618Y020179D01*
X014649Y020115D01*
X014676Y020050D01*
X014699Y019984D01*
X014719Y019916D01*
X014734Y019847D01*
X014746Y019778D01*
X014754Y019708D01*
X014758Y019637D01*
X014759Y019567D01*
X014755Y019496D01*
X014747Y019426D01*
X014735Y019356D01*
X014720Y019288D01*
X014700Y019220D01*
X014677Y019153D01*
X014650Y019088D01*
X014620Y019024D01*
X014586Y018962D01*
X014548Y018903D01*
X014508Y018845D01*
X014464Y018790D01*
X014417Y018737D01*
X014367Y018687D01*
X014314Y018640D01*
X014259Y018596D01*
X014254Y018603D01*
X014309Y018647D01*
X014361Y018694D01*
X014410Y018743D01*
X014457Y018796D01*
X014500Y018850D01*
X014541Y018908D01*
X014578Y018967D01*
X014612Y019028D01*
X014642Y019092D01*
X014669Y019156D01*
X014692Y019223D01*
X014711Y019290D01*
X014726Y019358D01*
X014738Y019427D01*
X014746Y019497D01*
X014750Y019567D01*
X014749Y019637D01*
X014745Y019707D01*
X014737Y019776D01*
X014726Y019845D01*
X014710Y019914D01*
X014691Y019981D01*
X014667Y020047D01*
X014640Y020112D01*
X014610Y020175D01*
X014576Y020236D01*
X014539Y020295D01*
X014498Y020353D01*
X014454Y020407D01*
X014408Y020459D01*
X014358Y020509D01*
X014306Y020556D01*
X014251Y020599D01*
X014194Y020640D01*
X014135Y020677D01*
X014073Y020711D01*
X014010Y020741D01*
X013945Y020768D01*
X013879Y020791D01*
X013812Y020810D01*
X013744Y020826D01*
X013675Y020838D01*
X013605Y020846D01*
X013535Y020850D01*
X013465Y020850D01*
X013395Y020846D01*
X013325Y020838D01*
X013256Y020826D01*
X013188Y020810D01*
X013121Y020791D01*
X013055Y020768D01*
X012990Y020741D01*
X012927Y020711D01*
X012865Y020677D01*
X012806Y020640D01*
X012749Y020599D01*
X012694Y020556D01*
X012642Y020509D01*
X012592Y020459D01*
X012546Y020407D01*
X012502Y020353D01*
X012461Y020295D01*
X012424Y020236D01*
X012390Y020175D01*
X012360Y020112D01*
X012333Y020047D01*
X012309Y019981D01*
X012290Y019914D01*
X012274Y019845D01*
X012263Y019776D01*
X012255Y019707D01*
X012251Y019637D01*
X012250Y019567D01*
X012254Y019497D01*
X012262Y019427D01*
X012274Y019358D01*
X012289Y019290D01*
X012308Y019223D01*
X012331Y019156D01*
X012358Y019092D01*
X012388Y019028D01*
X012422Y018967D01*
X012459Y018908D01*
X012500Y018850D01*
X012543Y018796D01*
X012590Y018743D01*
X012639Y018694D01*
X012691Y018647D01*
X012746Y018603D01*
X012751Y018610D01*
X012697Y018654D01*
X012645Y018700D01*
X012596Y018749D01*
X012550Y018801D01*
X012507Y018856D01*
X012467Y018913D01*
X012430Y018972D01*
X012396Y019033D01*
X012366Y019095D01*
X012340Y019160D01*
X012317Y019225D01*
X012298Y019292D01*
X012282Y019360D01*
X012271Y019429D01*
X012263Y019498D01*
X012259Y019567D01*
X012260Y019637D01*
X012264Y019706D01*
X012271Y019775D01*
X012283Y019844D01*
X012299Y019911D01*
X012318Y019978D01*
X012341Y020044D01*
X012368Y020108D01*
X012398Y020171D01*
X012432Y020232D01*
X012469Y020290D01*
X012509Y020347D01*
X012552Y020401D01*
X012599Y020453D01*
X012648Y020502D01*
X012700Y020549D01*
X012754Y020592D01*
X012811Y020632D01*
X012870Y020669D01*
X012931Y020703D01*
X012994Y020733D01*
X013058Y020760D01*
X013123Y020783D01*
X013190Y020802D01*
X013258Y020817D01*
X013327Y020829D01*
X013396Y020837D01*
X013465Y020841D01*
X013535Y020841D01*
X013604Y020837D01*
X013673Y020829D01*
X013742Y020817D01*
X013810Y020802D01*
X013877Y020783D01*
X013942Y020760D01*
X014006Y020733D01*
X014069Y020703D01*
X014130Y020669D01*
X014189Y020632D01*
X014246Y020592D01*
X014300Y020549D01*
X014352Y020502D01*
X014401Y020453D01*
X014448Y020401D01*
X014491Y020347D01*
X014531Y020290D01*
X014568Y020232D01*
X014602Y020171D01*
X014632Y020108D01*
X014659Y020044D01*
X014682Y019978D01*
X014701Y019911D01*
X014717Y019844D01*
X014729Y019775D01*
X014736Y019706D01*
X014740Y019637D01*
X014741Y019567D01*
X014737Y019498D01*
X014729Y019429D01*
X014718Y019360D01*
X014702Y019292D01*
X014683Y019225D01*
X014660Y019160D01*
X014634Y019095D01*
X014604Y019033D01*
X014570Y018972D01*
X014533Y018913D01*
X014493Y018856D01*
X014450Y018801D01*
X014404Y018749D01*
X014355Y018700D01*
X014303Y018654D01*
X014249Y018610D01*
X014243Y018617D01*
X014297Y018661D01*
X014348Y018707D01*
X014397Y018756D01*
X014443Y018807D01*
X014486Y018861D01*
X014526Y018918D01*
X014562Y018976D01*
X014596Y019037D01*
X014626Y019099D01*
X014652Y019163D01*
X014674Y019228D01*
X014693Y019294D01*
X014709Y019362D01*
X014720Y019430D01*
X014728Y019498D01*
X014732Y019567D01*
X014731Y019636D01*
X014727Y019705D01*
X014720Y019774D01*
X014708Y019842D01*
X014693Y019909D01*
X014673Y019976D01*
X014650Y020041D01*
X014624Y020104D01*
X014594Y020167D01*
X014561Y020227D01*
X014524Y020285D01*
X014484Y020342D01*
X014441Y020396D01*
X014395Y020447D01*
X014346Y020496D01*
X014294Y020542D01*
X014240Y020585D01*
X014184Y020625D01*
X014125Y020661D01*
X014065Y020695D01*
X014003Y020725D01*
X013939Y020751D01*
X013874Y020774D01*
X013807Y020793D01*
X013740Y020808D01*
X013672Y020820D01*
X013603Y020828D01*
X013535Y020832D01*
X013465Y020832D01*
X013397Y020828D01*
X013328Y020820D01*
X013260Y020808D01*
X013193Y020793D01*
X013126Y020774D01*
X013061Y020751D01*
X012997Y020725D01*
X012935Y020695D01*
X012875Y020661D01*
X012816Y020625D01*
X012760Y020585D01*
X012706Y020542D01*
X012654Y020496D01*
X012605Y020447D01*
X012559Y020396D01*
X012516Y020342D01*
X012476Y020285D01*
X012439Y020227D01*
X012406Y020167D01*
X012376Y020104D01*
X012350Y020041D01*
X012327Y019976D01*
X012307Y019909D01*
X012292Y019842D01*
X012280Y019774D01*
X012273Y019705D01*
X012269Y019636D01*
X012268Y019567D01*
X012272Y019498D01*
X012280Y019430D01*
X012291Y019362D01*
X012307Y019294D01*
X012326Y019228D01*
X012348Y019163D01*
X012374Y019099D01*
X012404Y019037D01*
X012438Y018976D01*
X012474Y018918D01*
X012514Y018861D01*
X012557Y018807D01*
X012603Y018756D01*
X012652Y018707D01*
X012703Y018661D01*
X012757Y018617D01*
X012762Y018625D01*
X012708Y018668D01*
X012657Y018714D01*
X012608Y018764D01*
X012562Y018815D01*
X012519Y018870D01*
X012479Y018927D01*
X012443Y018985D01*
X012409Y019046D01*
X012380Y019109D01*
X012354Y019173D01*
X012332Y019239D01*
X012313Y019306D01*
X012298Y019373D01*
X012287Y019442D01*
X012280Y019511D01*
X012277Y019580D01*
X012278Y019649D01*
X012283Y019719D01*
X012291Y019787D01*
X012304Y019855D01*
X012320Y019923D01*
X012341Y019989D01*
X012364Y020054D01*
X012392Y020118D01*
X012423Y020180D01*
X012458Y020240D01*
X012496Y020298D01*
X012537Y020354D01*
X012581Y020407D01*
X012628Y020458D01*
X012678Y020506D01*
X012731Y020551D01*
X012786Y020593D01*
X012843Y020632D01*
X012903Y020667D01*
X012964Y020699D01*
X013027Y020728D01*
X013092Y020753D01*
X013158Y020774D01*
X013225Y020792D01*
X013293Y020805D01*
X013362Y020815D01*
X013431Y020821D01*
X013500Y020823D01*
X013569Y020821D01*
X013638Y020815D01*
X013707Y020805D01*
X013775Y020792D01*
X013842Y020774D01*
X013908Y020753D01*
X013973Y020728D01*
X014036Y020699D01*
X014097Y020667D01*
X014157Y020632D01*
X014214Y020593D01*
X014269Y020551D01*
X014322Y020506D01*
X014372Y020458D01*
X014419Y020407D01*
X014463Y020354D01*
X014504Y020298D01*
X014542Y020240D01*
X014577Y020180D01*
X014608Y020118D01*
X014636Y020054D01*
X014659Y019989D01*
X014680Y019923D01*
X014696Y019855D01*
X014709Y019787D01*
X014717Y019719D01*
X014722Y019649D01*
X014723Y019580D01*
X014720Y019511D01*
X014713Y019442D01*
X014702Y019373D01*
X014687Y019306D01*
X014668Y019239D01*
X014646Y019173D01*
X014620Y019109D01*
X014591Y019046D01*
X014557Y018985D01*
X014521Y018927D01*
X014481Y018870D01*
X014438Y018815D01*
X014392Y018764D01*
X014343Y018714D01*
X014292Y018668D01*
X014238Y018625D01*
X014232Y018632D01*
X014286Y018675D01*
X014337Y018721D01*
X014386Y018770D01*
X014431Y018821D01*
X014474Y018875D01*
X014513Y018932D01*
X014550Y018990D01*
X014583Y019050D01*
X014612Y019113D01*
X014638Y019176D01*
X014660Y019242D01*
X014678Y019308D01*
X014693Y019375D01*
X014704Y019443D01*
X014711Y019512D01*
X014714Y019580D01*
X014713Y019649D01*
X014708Y019718D01*
X014700Y019786D01*
X014687Y019854D01*
X014671Y019920D01*
X014651Y019986D01*
X014627Y020051D01*
X014600Y020114D01*
X014569Y020175D01*
X014535Y020235D01*
X014497Y020293D01*
X014456Y020348D01*
X014412Y020401D01*
X014365Y020451D01*
X014316Y020499D01*
X014264Y020544D01*
X014209Y020586D01*
X014152Y020624D01*
X014093Y020659D01*
X014032Y020691D01*
X013969Y020720D01*
X013905Y020744D01*
X013839Y020766D01*
X013773Y020783D01*
X013705Y020796D01*
X013637Y020806D01*
X013569Y020812D01*
X013500Y020814D01*
X013431Y020812D01*
X013363Y020806D01*
X013295Y020796D01*
X013227Y020783D01*
X013161Y020766D01*
X013095Y020744D01*
X013031Y020720D01*
X012968Y020691D01*
X012907Y020659D01*
X012848Y020624D01*
X012791Y020586D01*
X012736Y020544D01*
X012684Y020499D01*
X012635Y020451D01*
X012588Y020401D01*
X012544Y020348D01*
X012503Y020293D01*
X012465Y020235D01*
X012431Y020175D01*
X012400Y020114D01*
X012373Y020051D01*
X012349Y019986D01*
X012329Y019920D01*
X012313Y019854D01*
X012300Y019786D01*
X012292Y019718D01*
X012287Y019649D01*
X012286Y019580D01*
X012289Y019512D01*
X012296Y019443D01*
X012307Y019375D01*
X012322Y019308D01*
X012340Y019242D01*
X012362Y019176D01*
X012388Y019113D01*
X012417Y019050D01*
X012450Y018990D01*
X012487Y018932D01*
X012526Y018875D01*
X012569Y018821D01*
X012614Y018770D01*
X012663Y018721D01*
X012714Y018675D01*
X012768Y018632D01*
X009720Y002632D02*
X009774Y002560D01*
X009773Y002561D02*
X009720Y002518D01*
X009669Y002473D01*
X009621Y002424D01*
X009576Y002373D01*
X009533Y002319D01*
X009494Y002263D01*
X009458Y002205D01*
X009425Y002145D01*
X009396Y002084D01*
X009371Y002020D01*
X009349Y001956D01*
X009330Y001890D01*
X009316Y001823D01*
X009305Y001756D01*
X009298Y001688D01*
X009295Y001620D01*
X009296Y001551D01*
X009301Y001483D01*
X009309Y001415D01*
X009322Y001348D01*
X009338Y001282D01*
X009358Y001217D01*
X009381Y001152D01*
X009408Y001090D01*
X009439Y001029D01*
X009473Y000970D01*
X009510Y000912D01*
X009551Y000857D01*
X009595Y000805D01*
X009641Y000755D01*
X009690Y000708D01*
X009742Y000663D01*
X009796Y000622D01*
X009853Y000583D01*
X009912Y000548D01*
X009972Y000517D01*
X010034Y000489D01*
X010098Y000464D01*
X010163Y000443D01*
X010229Y000426D01*
X010296Y000412D01*
X010364Y000403D01*
X010432Y000397D01*
X010500Y000395D01*
X010568Y000397D01*
X010636Y000403D01*
X010704Y000412D01*
X010771Y000426D01*
X010837Y000443D01*
X010902Y000464D01*
X010966Y000489D01*
X011028Y000517D01*
X011088Y000548D01*
X011147Y000583D01*
X011204Y000622D01*
X011258Y000663D01*
X011310Y000708D01*
X011359Y000755D01*
X011405Y000805D01*
X011449Y000857D01*
X011490Y000912D01*
X011527Y000970D01*
X011561Y001029D01*
X011592Y001090D01*
X011619Y001152D01*
X011642Y001217D01*
X011662Y001282D01*
X011678Y001348D01*
X011691Y001415D01*
X011699Y001483D01*
X011704Y001551D01*
X011705Y001620D01*
X011702Y001688D01*
X011695Y001756D01*
X011684Y001823D01*
X011670Y001890D01*
X011651Y001956D01*
X011629Y002020D01*
X011604Y002084D01*
X011575Y002145D01*
X011542Y002205D01*
X011506Y002263D01*
X011467Y002319D01*
X011424Y002373D01*
X011379Y002424D01*
X011331Y002473D01*
X011280Y002518D01*
X011227Y002561D01*
X011280Y002632D01*
X011281Y002633D01*
X011336Y002589D01*
X011389Y002541D01*
X011440Y002491D01*
X011487Y002438D01*
X011531Y002383D01*
X011573Y002325D01*
X011611Y002265D01*
X011646Y002204D01*
X011677Y002140D01*
X011705Y002075D01*
X011729Y002008D01*
X011750Y001940D01*
X011766Y001871D01*
X011779Y001801D01*
X011788Y001731D01*
X011794Y001660D01*
X011795Y001589D01*
X011792Y001518D01*
X011786Y001447D01*
X011776Y001377D01*
X011762Y001308D01*
X011744Y001239D01*
X011722Y001171D01*
X011697Y001105D01*
X011668Y001040D01*
X011635Y000977D01*
X011599Y000916D01*
X011560Y000857D01*
X011518Y000800D01*
X011473Y000745D01*
X011424Y000693D01*
X011373Y000644D01*
X011320Y000597D01*
X011263Y000554D01*
X011205Y000514D01*
X011144Y000477D01*
X011082Y000443D01*
X011018Y000413D01*
X010952Y000386D01*
X010885Y000363D01*
X010816Y000344D01*
X010747Y000329D01*
X010677Y000317D01*
X010606Y000309D01*
X010535Y000305D01*
X010465Y000305D01*
X010394Y000309D01*
X010323Y000317D01*
X010253Y000329D01*
X010184Y000344D01*
X010115Y000363D01*
X010048Y000386D01*
X009982Y000413D01*
X009918Y000443D01*
X009856Y000477D01*
X009795Y000514D01*
X009737Y000554D01*
X009680Y000597D01*
X009627Y000644D01*
X009576Y000693D01*
X009527Y000745D01*
X009482Y000800D01*
X009440Y000857D01*
X009401Y000916D01*
X009365Y000977D01*
X009332Y001040D01*
X009303Y001105D01*
X009278Y001171D01*
X009256Y001239D01*
X009238Y001308D01*
X009224Y001377D01*
X009214Y001447D01*
X009208Y001518D01*
X009205Y001589D01*
X009206Y001660D01*
X009212Y001731D01*
X009221Y001801D01*
X009234Y001871D01*
X009250Y001940D01*
X009271Y002008D01*
X009295Y002075D01*
X009323Y002140D01*
X009354Y002204D01*
X009389Y002265D01*
X009427Y002325D01*
X009469Y002383D01*
X009513Y002438D01*
X009560Y002491D01*
X009611Y002541D01*
X009664Y002589D01*
X009719Y002633D01*
X009724Y002626D01*
X009669Y002581D01*
X009616Y002534D01*
X009565Y002483D01*
X009518Y002430D01*
X009473Y002374D01*
X009432Y002316D01*
X009394Y002256D01*
X009359Y002194D01*
X009328Y002130D01*
X009301Y002064D01*
X009277Y001997D01*
X009257Y001928D01*
X009240Y001859D01*
X009228Y001789D01*
X009219Y001718D01*
X009215Y001647D01*
X009214Y001576D01*
X009218Y001505D01*
X009225Y001434D01*
X009236Y001363D01*
X009251Y001294D01*
X009270Y001225D01*
X009293Y001157D01*
X009319Y001091D01*
X009349Y001026D01*
X009383Y000964D01*
X009419Y000903D01*
X009460Y000844D01*
X009503Y000787D01*
X009550Y000733D01*
X009599Y000682D01*
X009652Y000634D01*
X009706Y000588D01*
X009764Y000546D01*
X009823Y000507D01*
X009885Y000471D01*
X009948Y000438D01*
X010013Y000410D01*
X010080Y000384D01*
X010148Y000363D01*
X010217Y000345D01*
X010287Y000332D01*
X010358Y000322D01*
X010429Y000316D01*
X010500Y000314D01*
X010571Y000316D01*
X010642Y000322D01*
X010713Y000332D01*
X010783Y000345D01*
X010852Y000363D01*
X010920Y000384D01*
X010987Y000410D01*
X011052Y000438D01*
X011115Y000471D01*
X011177Y000507D01*
X011236Y000546D01*
X011294Y000588D01*
X011348Y000634D01*
X011401Y000682D01*
X011450Y000733D01*
X011497Y000787D01*
X011540Y000844D01*
X011581Y000903D01*
X011617Y000964D01*
X011651Y001026D01*
X011681Y001091D01*
X011707Y001157D01*
X011730Y001225D01*
X011749Y001294D01*
X011764Y001363D01*
X011775Y001434D01*
X011782Y001505D01*
X011786Y001576D01*
X011785Y001647D01*
X011781Y001718D01*
X011772Y001789D01*
X011760Y001859D01*
X011743Y001928D01*
X011723Y001997D01*
X011699Y002064D01*
X011672Y002130D01*
X011641Y002194D01*
X011606Y002256D01*
X011568Y002316D01*
X011527Y002374D01*
X011482Y002430D01*
X011435Y002483D01*
X011384Y002534D01*
X011331Y002581D01*
X011276Y002626D01*
X011270Y002619D01*
X011325Y002574D01*
X011378Y002527D01*
X011428Y002477D01*
X011475Y002424D01*
X011519Y002369D01*
X011561Y002311D01*
X011598Y002252D01*
X011633Y002190D01*
X011664Y002126D01*
X011691Y002061D01*
X011715Y001994D01*
X011735Y001926D01*
X011751Y001857D01*
X011763Y001788D01*
X011772Y001717D01*
X011776Y001647D01*
X011777Y001576D01*
X011773Y001505D01*
X011766Y001435D01*
X011755Y001365D01*
X011740Y001296D01*
X011721Y001228D01*
X011699Y001160D01*
X011673Y001095D01*
X011643Y001030D01*
X011610Y000968D01*
X011573Y000908D01*
X011533Y000849D01*
X011490Y000793D01*
X011444Y000739D01*
X011394Y000689D01*
X011343Y000640D01*
X011288Y000595D01*
X011231Y000553D01*
X011172Y000514D01*
X011111Y000479D01*
X011048Y000446D01*
X010983Y000418D01*
X010917Y000393D01*
X010849Y000372D01*
X010781Y000354D01*
X010711Y000341D01*
X010641Y000331D01*
X010571Y000325D01*
X010500Y000323D01*
X010429Y000325D01*
X010359Y000331D01*
X010289Y000341D01*
X010219Y000354D01*
X010151Y000372D01*
X010083Y000393D01*
X010017Y000418D01*
X009952Y000446D01*
X009889Y000479D01*
X009828Y000514D01*
X009769Y000553D01*
X009712Y000595D01*
X009657Y000640D01*
X009606Y000689D01*
X009556Y000739D01*
X009510Y000793D01*
X009467Y000849D01*
X009427Y000908D01*
X009390Y000968D01*
X009357Y001030D01*
X009327Y001095D01*
X009301Y001160D01*
X009279Y001228D01*
X009260Y001296D01*
X009245Y001365D01*
X009234Y001435D01*
X009227Y001505D01*
X009223Y001576D01*
X009224Y001647D01*
X009228Y001717D01*
X009237Y001788D01*
X009249Y001857D01*
X009265Y001926D01*
X009285Y001994D01*
X009309Y002061D01*
X009336Y002126D01*
X009367Y002190D01*
X009402Y002252D01*
X009439Y002311D01*
X009481Y002369D01*
X009525Y002424D01*
X009572Y002477D01*
X009622Y002527D01*
X009675Y002574D01*
X009730Y002619D01*
X009735Y002611D01*
X009680Y002567D01*
X009627Y002519D01*
X009577Y002469D01*
X009529Y002416D01*
X009485Y002360D01*
X009444Y002302D01*
X009407Y002242D01*
X009372Y002180D01*
X009342Y002116D01*
X009315Y002050D01*
X009291Y001983D01*
X009272Y001915D01*
X009256Y001845D01*
X009244Y001775D01*
X009236Y001705D01*
X009232Y001634D01*
X009233Y001563D01*
X009237Y001492D01*
X009245Y001421D01*
X009257Y001351D01*
X009273Y001282D01*
X009292Y001214D01*
X009316Y001146D01*
X009343Y001081D01*
X009374Y001017D01*
X009408Y000955D01*
X009446Y000895D01*
X009488Y000837D01*
X009532Y000781D01*
X009579Y000728D01*
X009630Y000678D01*
X009683Y000631D01*
X009738Y000586D01*
X009796Y000545D01*
X009856Y000508D01*
X009919Y000473D01*
X009983Y000442D01*
X010048Y000415D01*
X010115Y000392D01*
X010184Y000372D01*
X010253Y000356D01*
X010323Y000344D01*
X010394Y000336D01*
X010464Y000332D01*
X010536Y000332D01*
X010606Y000336D01*
X010677Y000344D01*
X010747Y000356D01*
X010816Y000372D01*
X010885Y000392D01*
X010952Y000415D01*
X011017Y000442D01*
X011081Y000473D01*
X011144Y000508D01*
X011204Y000545D01*
X011262Y000586D01*
X011317Y000631D01*
X011370Y000678D01*
X011421Y000728D01*
X011468Y000781D01*
X011512Y000837D01*
X011554Y000895D01*
X011592Y000955D01*
X011626Y001017D01*
X011657Y001081D01*
X011684Y001146D01*
X011708Y001214D01*
X011727Y001282D01*
X011743Y001351D01*
X011755Y001421D01*
X011763Y001492D01*
X011767Y001563D01*
X011768Y001634D01*
X011764Y001705D01*
X011756Y001775D01*
X011744Y001845D01*
X011728Y001915D01*
X011709Y001983D01*
X011685Y002050D01*
X011658Y002116D01*
X011628Y002180D01*
X011593Y002242D01*
X011556Y002302D01*
X011515Y002360D01*
X011471Y002416D01*
X011423Y002469D01*
X011373Y002519D01*
X011320Y002567D01*
X011265Y002611D01*
X011259Y002604D01*
X011314Y002560D01*
X011367Y002513D01*
X011417Y002463D01*
X011464Y002410D01*
X011508Y002355D01*
X011548Y002297D01*
X011586Y002238D01*
X011620Y002176D01*
X011650Y002112D01*
X011677Y002047D01*
X011700Y001980D01*
X011720Y001912D01*
X011735Y001844D01*
X011747Y001774D01*
X011755Y001704D01*
X011759Y001633D01*
X011758Y001563D01*
X011754Y001492D01*
X011746Y001422D01*
X011734Y001353D01*
X011719Y001284D01*
X011699Y001216D01*
X011676Y001150D01*
X011649Y001085D01*
X011618Y001021D01*
X011584Y000959D01*
X011546Y000900D01*
X011505Y000842D01*
X011461Y000787D01*
X011414Y000734D01*
X011364Y000685D01*
X011312Y000638D01*
X011256Y000594D01*
X011199Y000553D01*
X011139Y000515D01*
X011077Y000481D01*
X011014Y000451D01*
X010949Y000424D01*
X010882Y000400D01*
X010814Y000381D01*
X010745Y000365D01*
X010676Y000353D01*
X010606Y000345D01*
X010535Y000341D01*
X010465Y000341D01*
X010394Y000345D01*
X010324Y000353D01*
X010255Y000365D01*
X010186Y000381D01*
X010118Y000400D01*
X010051Y000424D01*
X009986Y000451D01*
X009923Y000481D01*
X009861Y000515D01*
X009801Y000553D01*
X009744Y000594D01*
X009688Y000638D01*
X009636Y000685D01*
X009586Y000734D01*
X009539Y000787D01*
X009495Y000842D01*
X009454Y000900D01*
X009416Y000959D01*
X009382Y001021D01*
X009351Y001085D01*
X009324Y001150D01*
X009301Y001216D01*
X009281Y001284D01*
X009266Y001353D01*
X009254Y001422D01*
X009246Y001492D01*
X009242Y001563D01*
X009241Y001633D01*
X009245Y001704D01*
X009253Y001774D01*
X009265Y001844D01*
X009280Y001912D01*
X009300Y001980D01*
X009323Y002047D01*
X009350Y002112D01*
X009380Y002176D01*
X009414Y002238D01*
X009452Y002297D01*
X009492Y002355D01*
X009536Y002410D01*
X009583Y002463D01*
X009633Y002513D01*
X009686Y002560D01*
X009741Y002604D01*
X009746Y002597D01*
X009691Y002553D01*
X009639Y002506D01*
X009590Y002457D01*
X009543Y002404D01*
X009500Y002350D01*
X009459Y002292D01*
X009422Y002233D01*
X009388Y002172D01*
X009358Y002108D01*
X009331Y002044D01*
X009308Y001977D01*
X009289Y001910D01*
X009274Y001842D01*
X009262Y001773D01*
X009254Y001703D01*
X009250Y001633D01*
X009251Y001563D01*
X009255Y001493D01*
X009263Y001424D01*
X009274Y001355D01*
X009290Y001286D01*
X009309Y001219D01*
X009333Y001153D01*
X009360Y001088D01*
X009390Y001025D01*
X009424Y000964D01*
X009461Y000905D01*
X009502Y000847D01*
X009546Y000793D01*
X009592Y000741D01*
X009642Y000691D01*
X009694Y000644D01*
X009749Y000601D01*
X009806Y000560D01*
X009865Y000523D01*
X009927Y000489D01*
X009990Y000459D01*
X010055Y000432D01*
X010121Y000409D01*
X010188Y000390D01*
X010256Y000374D01*
X010325Y000362D01*
X010395Y000354D01*
X010465Y000350D01*
X010535Y000350D01*
X010605Y000354D01*
X010675Y000362D01*
X010744Y000374D01*
X010812Y000390D01*
X010879Y000409D01*
X010945Y000432D01*
X011010Y000459D01*
X011073Y000489D01*
X011135Y000523D01*
X011194Y000560D01*
X011251Y000601D01*
X011306Y000644D01*
X011358Y000691D01*
X011408Y000741D01*
X011454Y000793D01*
X011498Y000847D01*
X011539Y000905D01*
X011576Y000964D01*
X011610Y001025D01*
X011640Y001088D01*
X011667Y001153D01*
X011691Y001219D01*
X011710Y001286D01*
X011726Y001355D01*
X011737Y001424D01*
X011745Y001493D01*
X011749Y001563D01*
X011750Y001633D01*
X011746Y001703D01*
X011738Y001773D01*
X011726Y001842D01*
X011711Y001910D01*
X011692Y001977D01*
X011669Y002044D01*
X011642Y002108D01*
X011612Y002172D01*
X011578Y002233D01*
X011541Y002292D01*
X011500Y002350D01*
X011457Y002404D01*
X011410Y002457D01*
X011361Y002506D01*
X011309Y002553D01*
X011254Y002597D01*
X011249Y002590D01*
X011303Y002546D01*
X011355Y002500D01*
X011404Y002451D01*
X011450Y002399D01*
X011493Y002344D01*
X011533Y002287D01*
X011570Y002228D01*
X011604Y002167D01*
X011634Y002105D01*
X011660Y002040D01*
X011683Y001975D01*
X011702Y001908D01*
X011718Y001840D01*
X011729Y001771D01*
X011737Y001702D01*
X011741Y001633D01*
X011740Y001563D01*
X011736Y001494D01*
X011729Y001425D01*
X011717Y001356D01*
X011701Y001289D01*
X011682Y001222D01*
X011659Y001156D01*
X011632Y001092D01*
X011602Y001029D01*
X011568Y000968D01*
X011531Y000910D01*
X011491Y000853D01*
X011448Y000799D01*
X011401Y000747D01*
X011352Y000698D01*
X011300Y000651D01*
X011246Y000608D01*
X011189Y000568D01*
X011130Y000531D01*
X011069Y000497D01*
X011006Y000467D01*
X010942Y000440D01*
X010877Y000417D01*
X010810Y000398D01*
X010742Y000383D01*
X010673Y000371D01*
X010604Y000363D01*
X010535Y000359D01*
X010465Y000359D01*
X010396Y000363D01*
X010327Y000371D01*
X010258Y000383D01*
X010190Y000398D01*
X010123Y000417D01*
X010058Y000440D01*
X009994Y000467D01*
X009931Y000497D01*
X009870Y000531D01*
X009811Y000568D01*
X009754Y000608D01*
X009700Y000651D01*
X009648Y000698D01*
X009599Y000747D01*
X009552Y000799D01*
X009509Y000853D01*
X009469Y000910D01*
X009432Y000968D01*
X009398Y001029D01*
X009368Y001092D01*
X009341Y001156D01*
X009318Y001222D01*
X009299Y001289D01*
X009283Y001356D01*
X009271Y001425D01*
X009264Y001494D01*
X009260Y001563D01*
X009259Y001633D01*
X009263Y001702D01*
X009271Y001771D01*
X009282Y001840D01*
X009298Y001908D01*
X009317Y001975D01*
X009340Y002040D01*
X009366Y002105D01*
X009396Y002167D01*
X009430Y002228D01*
X009467Y002287D01*
X009507Y002344D01*
X009550Y002399D01*
X009596Y002451D01*
X009645Y002500D01*
X009697Y002546D01*
X009751Y002590D01*
X009757Y002583D01*
X009703Y002539D01*
X009652Y002493D01*
X009603Y002444D01*
X009557Y002393D01*
X009514Y002339D01*
X009474Y002282D01*
X009438Y002224D01*
X009404Y002163D01*
X009374Y002101D01*
X009348Y002037D01*
X009326Y001972D01*
X009307Y001906D01*
X009291Y001838D01*
X009280Y001770D01*
X009272Y001702D01*
X009268Y001633D01*
X009269Y001564D01*
X009273Y001495D01*
X009280Y001426D01*
X009292Y001358D01*
X009307Y001291D01*
X009327Y001224D01*
X009350Y001159D01*
X009376Y001096D01*
X009406Y001033D01*
X009439Y000973D01*
X009476Y000915D01*
X009516Y000858D01*
X009559Y000804D01*
X009605Y000753D01*
X009654Y000704D01*
X009706Y000658D01*
X009760Y000615D01*
X009816Y000575D01*
X009875Y000539D01*
X009935Y000505D01*
X009997Y000475D01*
X010061Y000449D01*
X010126Y000426D01*
X010193Y000407D01*
X010260Y000392D01*
X010328Y000380D01*
X010397Y000372D01*
X010465Y000368D01*
X010535Y000368D01*
X010603Y000372D01*
X010672Y000380D01*
X010740Y000392D01*
X010807Y000407D01*
X010874Y000426D01*
X010939Y000449D01*
X011003Y000475D01*
X011065Y000505D01*
X011125Y000539D01*
X011184Y000575D01*
X011240Y000615D01*
X011294Y000658D01*
X011346Y000704D01*
X011395Y000753D01*
X011441Y000804D01*
X011484Y000858D01*
X011524Y000915D01*
X011561Y000973D01*
X011594Y001033D01*
X011624Y001096D01*
X011650Y001159D01*
X011673Y001224D01*
X011693Y001291D01*
X011708Y001358D01*
X011720Y001426D01*
X011727Y001495D01*
X011731Y001564D01*
X011732Y001633D01*
X011728Y001702D01*
X011720Y001770D01*
X011709Y001838D01*
X011693Y001906D01*
X011674Y001972D01*
X011652Y002037D01*
X011626Y002101D01*
X011596Y002163D01*
X011562Y002224D01*
X011526Y002282D01*
X011486Y002339D01*
X011443Y002393D01*
X011397Y002444D01*
X011348Y002493D01*
X011297Y002539D01*
X011243Y002583D01*
X011238Y002575D01*
X011292Y002532D01*
X011343Y002486D01*
X011392Y002436D01*
X011438Y002385D01*
X011481Y002330D01*
X011521Y002273D01*
X011557Y002215D01*
X011591Y002154D01*
X011620Y002091D01*
X011646Y002027D01*
X011668Y001961D01*
X011687Y001894D01*
X011702Y001827D01*
X011713Y001758D01*
X011720Y001689D01*
X011723Y001620D01*
X011722Y001551D01*
X011717Y001481D01*
X011709Y001413D01*
X011696Y001345D01*
X011680Y001277D01*
X011659Y001211D01*
X011636Y001146D01*
X011608Y001082D01*
X011577Y001020D01*
X011542Y000960D01*
X011504Y000902D01*
X011463Y000846D01*
X011419Y000793D01*
X011372Y000742D01*
X011322Y000694D01*
X011269Y000649D01*
X011214Y000607D01*
X011157Y000568D01*
X011097Y000533D01*
X011036Y000501D01*
X010973Y000472D01*
X010908Y000447D01*
X010842Y000426D01*
X010775Y000408D01*
X010707Y000395D01*
X010638Y000385D01*
X010569Y000379D01*
X010500Y000377D01*
X010431Y000379D01*
X010362Y000385D01*
X010293Y000395D01*
X010225Y000408D01*
X010158Y000426D01*
X010092Y000447D01*
X010027Y000472D01*
X009964Y000501D01*
X009903Y000533D01*
X009843Y000568D01*
X009786Y000607D01*
X009731Y000649D01*
X009678Y000694D01*
X009628Y000742D01*
X009581Y000793D01*
X009537Y000846D01*
X009496Y000902D01*
X009458Y000960D01*
X009423Y001020D01*
X009392Y001082D01*
X009364Y001146D01*
X009341Y001211D01*
X009320Y001277D01*
X009304Y001345D01*
X009291Y001413D01*
X009283Y001481D01*
X009278Y001551D01*
X009277Y001620D01*
X009280Y001689D01*
X009287Y001758D01*
X009298Y001827D01*
X009313Y001894D01*
X009332Y001961D01*
X009354Y002027D01*
X009380Y002091D01*
X009409Y002154D01*
X009443Y002215D01*
X009479Y002273D01*
X009519Y002330D01*
X009562Y002385D01*
X009608Y002436D01*
X009657Y002486D01*
X009708Y002532D01*
X009762Y002575D01*
X009768Y002568D01*
X009714Y002525D01*
X009663Y002479D01*
X009614Y002430D01*
X009569Y002379D01*
X009526Y002325D01*
X009487Y002268D01*
X009450Y002210D01*
X009417Y002150D01*
X009388Y002087D01*
X009362Y002024D01*
X009340Y001958D01*
X009322Y001892D01*
X009307Y001825D01*
X009296Y001757D01*
X009289Y001688D01*
X009286Y001620D01*
X009287Y001551D01*
X009292Y001482D01*
X009300Y001414D01*
X009313Y001346D01*
X009329Y001280D01*
X009349Y001214D01*
X009373Y001149D01*
X009400Y001086D01*
X009431Y001025D01*
X009465Y000965D01*
X009503Y000907D01*
X009544Y000852D01*
X009588Y000799D01*
X009635Y000749D01*
X009684Y000701D01*
X009736Y000656D01*
X009791Y000614D01*
X009848Y000576D01*
X009907Y000541D01*
X009968Y000509D01*
X010031Y000480D01*
X010095Y000456D01*
X010161Y000434D01*
X010227Y000417D01*
X010295Y000404D01*
X010363Y000394D01*
X010431Y000388D01*
X010500Y000386D01*
X010569Y000388D01*
X010637Y000394D01*
X010705Y000404D01*
X010773Y000417D01*
X010839Y000434D01*
X010905Y000456D01*
X010969Y000480D01*
X011032Y000509D01*
X011093Y000541D01*
X011152Y000576D01*
X011209Y000614D01*
X011264Y000656D01*
X011316Y000701D01*
X011365Y000749D01*
X011412Y000799D01*
X011456Y000852D01*
X011497Y000907D01*
X011535Y000965D01*
X011569Y001025D01*
X011600Y001086D01*
X011627Y001149D01*
X011651Y001214D01*
X011671Y001280D01*
X011687Y001346D01*
X011700Y001414D01*
X011708Y001482D01*
X011713Y001551D01*
X011714Y001620D01*
X011711Y001688D01*
X011704Y001757D01*
X011693Y001825D01*
X011678Y001892D01*
X011660Y001958D01*
X011638Y002024D01*
X011612Y002087D01*
X011583Y002150D01*
X011550Y002210D01*
X011513Y002268D01*
X011474Y002325D01*
X011431Y002379D01*
X011386Y002430D01*
X011337Y002479D01*
X011286Y002525D01*
X011232Y002568D01*
D13*
X009500Y001600D02*
X009502Y001663D01*
X009508Y001725D01*
X009518Y001787D01*
X009531Y001849D01*
X009549Y001909D01*
X009570Y001968D01*
X009595Y002026D01*
X009624Y002082D01*
X009656Y002136D01*
X009691Y002188D01*
X009729Y002237D01*
X009771Y002285D01*
X009815Y002329D01*
X009863Y002371D01*
X009912Y002409D01*
X009964Y002444D01*
X010018Y002476D01*
X010074Y002505D01*
X010132Y002530D01*
X010191Y002551D01*
X010251Y002569D01*
X010313Y002582D01*
X010375Y002592D01*
X010437Y002598D01*
X010500Y002600D01*
X010563Y002598D01*
X010625Y002592D01*
X010687Y002582D01*
X010749Y002569D01*
X010809Y002551D01*
X010868Y002530D01*
X010926Y002505D01*
X010982Y002476D01*
X011036Y002444D01*
X011088Y002409D01*
X011137Y002371D01*
X011185Y002329D01*
X011229Y002285D01*
X011271Y002237D01*
X011309Y002188D01*
X011344Y002136D01*
X011376Y002082D01*
X011405Y002026D01*
X011430Y001968D01*
X011451Y001909D01*
X011469Y001849D01*
X011482Y001787D01*
X011492Y001725D01*
X011498Y001663D01*
X011500Y001600D01*
X011498Y001537D01*
X011492Y001475D01*
X011482Y001413D01*
X011469Y001351D01*
X011451Y001291D01*
X011430Y001232D01*
X011405Y001174D01*
X011376Y001118D01*
X011344Y001064D01*
X011309Y001012D01*
X011271Y000963D01*
X011229Y000915D01*
X011185Y000871D01*
X011137Y000829D01*
X011088Y000791D01*
X011036Y000756D01*
X010982Y000724D01*
X010926Y000695D01*
X010868Y000670D01*
X010809Y000649D01*
X010749Y000631D01*
X010687Y000618D01*
X010625Y000608D01*
X010563Y000602D01*
X010500Y000600D01*
X010437Y000602D01*
X010375Y000608D01*
X010313Y000618D01*
X010251Y000631D01*
X010191Y000649D01*
X010132Y000670D01*
X010074Y000695D01*
X010018Y000724D01*
X009964Y000756D01*
X009912Y000791D01*
X009863Y000829D01*
X009815Y000871D01*
X009771Y000915D01*
X009729Y000963D01*
X009691Y001012D01*
X009656Y001064D01*
X009624Y001118D01*
X009595Y001174D01*
X009570Y001232D01*
X009549Y001291D01*
X009531Y001351D01*
X009518Y001413D01*
X009508Y001475D01*
X009502Y001537D01*
X009500Y001600D01*
X012500Y019600D02*
X012502Y019663D01*
X012508Y019725D01*
X012518Y019787D01*
X012531Y019849D01*
X012549Y019909D01*
X012570Y019968D01*
X012595Y020026D01*
X012624Y020082D01*
X012656Y020136D01*
X012691Y020188D01*
X012729Y020237D01*
X012771Y020285D01*
X012815Y020329D01*
X012863Y020371D01*
X012912Y020409D01*
X012964Y020444D01*
X013018Y020476D01*
X013074Y020505D01*
X013132Y020530D01*
X013191Y020551D01*
X013251Y020569D01*
X013313Y020582D01*
X013375Y020592D01*
X013437Y020598D01*
X013500Y020600D01*
X013563Y020598D01*
X013625Y020592D01*
X013687Y020582D01*
X013749Y020569D01*
X013809Y020551D01*
X013868Y020530D01*
X013926Y020505D01*
X013982Y020476D01*
X014036Y020444D01*
X014088Y020409D01*
X014137Y020371D01*
X014185Y020329D01*
X014229Y020285D01*
X014271Y020237D01*
X014309Y020188D01*
X014344Y020136D01*
X014376Y020082D01*
X014405Y020026D01*
X014430Y019968D01*
X014451Y019909D01*
X014469Y019849D01*
X014482Y019787D01*
X014492Y019725D01*
X014498Y019663D01*
X014500Y019600D01*
X014498Y019537D01*
X014492Y019475D01*
X014482Y019413D01*
X014469Y019351D01*
X014451Y019291D01*
X014430Y019232D01*
X014405Y019174D01*
X014376Y019118D01*
X014344Y019064D01*
X014309Y019012D01*
X014271Y018963D01*
X014229Y018915D01*
X014185Y018871D01*
X014137Y018829D01*
X014088Y018791D01*
X014036Y018756D01*
X013982Y018724D01*
X013926Y018695D01*
X013868Y018670D01*
X013809Y018649D01*
X013749Y018631D01*
X013687Y018618D01*
X013625Y018608D01*
X013563Y018602D01*
X013500Y018600D01*
X013437Y018602D01*
X013375Y018608D01*
X013313Y018618D01*
X013251Y018631D01*
X013191Y018649D01*
X013132Y018670D01*
X013074Y018695D01*
X013018Y018724D01*
X012964Y018756D01*
X012912Y018791D01*
X012863Y018829D01*
X012815Y018871D01*
X012771Y018915D01*
X012729Y018963D01*
X012691Y019012D01*
X012656Y019064D01*
X012624Y019118D01*
X012595Y019174D01*
X012570Y019232D01*
X012549Y019291D01*
X012531Y019351D01*
X012518Y019413D01*
X012508Y019475D01*
X012502Y019537D01*
X012500Y019600D01*
X038500Y019100D02*
X038502Y019163D01*
X038508Y019225D01*
X038518Y019287D01*
X038531Y019349D01*
X038549Y019409D01*
X038570Y019468D01*
X038595Y019526D01*
X038624Y019582D01*
X038656Y019636D01*
X038691Y019688D01*
X038729Y019737D01*
X038771Y019785D01*
X038815Y019829D01*
X038863Y019871D01*
X038912Y019909D01*
X038964Y019944D01*
X039018Y019976D01*
X039074Y020005D01*
X039132Y020030D01*
X039191Y020051D01*
X039251Y020069D01*
X039313Y020082D01*
X039375Y020092D01*
X039437Y020098D01*
X039500Y020100D01*
X039563Y020098D01*
X039625Y020092D01*
X039687Y020082D01*
X039749Y020069D01*
X039809Y020051D01*
X039868Y020030D01*
X039926Y020005D01*
X039982Y019976D01*
X040036Y019944D01*
X040088Y019909D01*
X040137Y019871D01*
X040185Y019829D01*
X040229Y019785D01*
X040271Y019737D01*
X040309Y019688D01*
X040344Y019636D01*
X040376Y019582D01*
X040405Y019526D01*
X040430Y019468D01*
X040451Y019409D01*
X040469Y019349D01*
X040482Y019287D01*
X040492Y019225D01*
X040498Y019163D01*
X040500Y019100D01*
X040498Y019037D01*
X040492Y018975D01*
X040482Y018913D01*
X040469Y018851D01*
X040451Y018791D01*
X040430Y018732D01*
X040405Y018674D01*
X040376Y018618D01*
X040344Y018564D01*
X040309Y018512D01*
X040271Y018463D01*
X040229Y018415D01*
X040185Y018371D01*
X040137Y018329D01*
X040088Y018291D01*
X040036Y018256D01*
X039982Y018224D01*
X039926Y018195D01*
X039868Y018170D01*
X039809Y018149D01*
X039749Y018131D01*
X039687Y018118D01*
X039625Y018108D01*
X039563Y018102D01*
X039500Y018100D01*
X039437Y018102D01*
X039375Y018108D01*
X039313Y018118D01*
X039251Y018131D01*
X039191Y018149D01*
X039132Y018170D01*
X039074Y018195D01*
X039018Y018224D01*
X038964Y018256D01*
X038912Y018291D01*
X038863Y018329D01*
X038815Y018371D01*
X038771Y018415D01*
X038729Y018463D01*
X038691Y018512D01*
X038656Y018564D01*
X038624Y018618D01*
X038595Y018674D01*
X038570Y018732D01*
X038549Y018791D01*
X038531Y018851D01*
X038518Y018913D01*
X038508Y018975D01*
X038502Y019037D01*
X038500Y019100D01*
X039000Y001600D02*
X039002Y001663D01*
X039008Y001725D01*
X039018Y001787D01*
X039031Y001849D01*
X039049Y001909D01*
X039070Y001968D01*
X039095Y002026D01*
X039124Y002082D01*
X039156Y002136D01*
X039191Y002188D01*
X039229Y002237D01*
X039271Y002285D01*
X039315Y002329D01*
X039363Y002371D01*
X039412Y002409D01*
X039464Y002444D01*
X039518Y002476D01*
X039574Y002505D01*
X039632Y002530D01*
X039691Y002551D01*
X039751Y002569D01*
X039813Y002582D01*
X039875Y002592D01*
X039937Y002598D01*
X040000Y002600D01*
X040063Y002598D01*
X040125Y002592D01*
X040187Y002582D01*
X040249Y002569D01*
X040309Y002551D01*
X040368Y002530D01*
X040426Y002505D01*
X040482Y002476D01*
X040536Y002444D01*
X040588Y002409D01*
X040637Y002371D01*
X040685Y002329D01*
X040729Y002285D01*
X040771Y002237D01*
X040809Y002188D01*
X040844Y002136D01*
X040876Y002082D01*
X040905Y002026D01*
X040930Y001968D01*
X040951Y001909D01*
X040969Y001849D01*
X040982Y001787D01*
X040992Y001725D01*
X040998Y001663D01*
X041000Y001600D01*
X040998Y001537D01*
X040992Y001475D01*
X040982Y001413D01*
X040969Y001351D01*
X040951Y001291D01*
X040930Y001232D01*
X040905Y001174D01*
X040876Y001118D01*
X040844Y001064D01*
X040809Y001012D01*
X040771Y000963D01*
X040729Y000915D01*
X040685Y000871D01*
X040637Y000829D01*
X040588Y000791D01*
X040536Y000756D01*
X040482Y000724D01*
X040426Y000695D01*
X040368Y000670D01*
X040309Y000649D01*
X040249Y000631D01*
X040187Y000618D01*
X040125Y000608D01*
X040063Y000602D01*
X040000Y000600D01*
X039937Y000602D01*
X039875Y000608D01*
X039813Y000618D01*
X039751Y000631D01*
X039691Y000649D01*
X039632Y000670D01*
X039574Y000695D01*
X039518Y000724D01*
X039464Y000756D01*
X039412Y000791D01*
X039363Y000829D01*
X039315Y000871D01*
X039271Y000915D01*
X039229Y000963D01*
X039191Y001012D01*
X039156Y001064D01*
X039124Y001118D01*
X039095Y001174D01*
X039070Y001232D01*
X039049Y001291D01*
X039031Y001351D01*
X039018Y001413D01*
X039008Y001475D01*
X039002Y001537D01*
X039000Y001600D01*
M02*
