G75*
G70*
%OFA0B0*%
%FSLAX24Y24*%
%IPPOS*%
%LPD*%
%AMOC8*
5,1,8,0,0,1.08239X$1,22.5*
%
%ADD10R,0.0700X0.0700*%
%ADD11C,0.0700*%
%ADD12C,0.1220*%
%ADD13C,0.1660*%
%ADD14C,0.1502*%
%ADD15C,0.0740*%
%ADD16C,0.0740*%
%ADD17C,0.0500*%
%ADD18R,0.0396X0.0396*%
%ADD19C,0.0160*%
D10*
X025500Y029100D03*
D11*
X024500Y029100D03*
X023500Y029100D03*
X022500Y029100D03*
X021500Y029100D03*
X020500Y029100D03*
X019500Y029100D03*
X018500Y029100D03*
X017500Y029100D03*
X016500Y029100D03*
X015500Y029100D03*
X014500Y029100D03*
X013500Y029100D03*
X012500Y029100D03*
X011500Y029100D03*
X011500Y023100D03*
X012500Y023100D03*
X013500Y023100D03*
X014500Y023100D03*
X015500Y023100D03*
X016500Y023100D03*
X017500Y023100D03*
X018500Y023100D03*
X019500Y023100D03*
X020500Y023100D03*
X021500Y023100D03*
X022500Y023100D03*
X023500Y023100D03*
X024500Y023100D03*
X025500Y023100D03*
D12*
X004576Y004429D03*
X004576Y005904D03*
X004576Y007381D03*
X004575Y008859D03*
X007331Y008857D03*
X007330Y012429D03*
X004576Y012429D03*
X004576Y013904D03*
X004576Y015381D03*
X004575Y016859D03*
X007331Y016857D03*
X007330Y004429D03*
X041268Y005068D03*
X041267Y008219D03*
X041268Y013068D03*
X041267Y016219D03*
D13*
X005854Y021100D03*
D14*
X004732Y019210D03*
X003394Y021100D03*
D15*
X003250Y018100D03*
X003250Y014100D03*
X003000Y010100D03*
X003000Y006100D03*
X010500Y002100D03*
X010500Y001100D03*
X013500Y002100D03*
X019500Y002100D03*
X031500Y002100D03*
X037500Y002100D03*
X040000Y002100D03*
X040000Y001100D03*
X039500Y018600D03*
X039500Y019600D03*
X036500Y019100D03*
X030500Y019100D03*
X021500Y019100D03*
X015500Y019100D03*
X013500Y019100D03*
X013500Y020100D03*
D16*
X007870Y020100D02*
X007130Y020100D01*
X007130Y022100D02*
X007870Y022100D01*
X046130Y023100D02*
X046870Y023100D01*
X046870Y025100D02*
X046130Y025100D01*
X046130Y027100D02*
X046870Y027100D01*
X046870Y029100D02*
X046130Y029100D01*
D17*
X046500Y027100D02*
X048500Y027100D01*
X048500Y008100D01*
X041500Y008100D01*
X041500Y008219D01*
X041267Y008219D01*
X031500Y008219D01*
X031500Y002100D01*
X035500Y001100D02*
X036500Y003100D01*
X040000Y003100D01*
X040000Y002100D01*
X040000Y001100D02*
X038500Y001100D01*
X037500Y002100D01*
X035500Y001100D02*
X010500Y001100D01*
X039500Y013100D02*
X041268Y013100D01*
X041268Y013068D01*
X041268Y013100D02*
X041500Y013100D01*
X039500Y013100D02*
X039500Y018100D01*
X043500Y018100D01*
X043500Y020600D01*
X043500Y025100D01*
X046500Y025100D01*
X046500Y023100D02*
X046500Y016100D01*
X041267Y016100D01*
X041267Y016219D01*
X039500Y018100D02*
X039500Y018600D01*
X039500Y019600D02*
X037000Y019600D01*
X036500Y019100D01*
X043500Y020600D02*
X015500Y020600D01*
X013500Y020100D01*
X007500Y020100D02*
X006500Y021100D01*
X005854Y021100D01*
X007000Y022600D02*
X007500Y022100D01*
X007000Y022600D02*
X005000Y022600D01*
X003500Y021100D01*
X003394Y021100D01*
X040000Y003100D02*
X040500Y003100D01*
X040500Y005068D01*
X041268Y005068D01*
D18*
X009000Y013600D03*
D19*
X006000Y013600D01*
X006000Y012600D01*
X004576Y012600D01*
X004576Y012429D01*
X004500Y010100D02*
X003000Y010100D01*
X009500Y010100D01*
X009500Y018100D01*
X004575Y018100D01*
X003250Y018100D01*
X004575Y018100D02*
X004575Y016859D01*
X009500Y018100D02*
X009500Y024600D01*
X013500Y024600D01*
X013500Y023100D01*
X010000Y022100D02*
X010000Y005350D01*
X006000Y005350D01*
X006000Y004600D01*
X004576Y004600D01*
X004576Y004429D01*
X003000Y006100D02*
X001950Y006100D01*
X001950Y029725D01*
X021500Y029725D01*
X021500Y029100D01*
X017500Y023100D02*
X017500Y022100D01*
X010000Y022100D01*
X004500Y010100D02*
X004500Y008859D01*
X004575Y008859D01*
X004576Y007600D02*
X003500Y007600D01*
X003000Y006100D01*
X004576Y007381D02*
X004576Y007600D01*
M02*
