G75*
G70*
%OFA0B0*%
%FSLAX24Y24*%
%IPPOS*%
%LPD*%
%AMOC8*
5,1,8,0,0,1.08239X$1,22.5*
%
%ADD10R,0.0780X0.0780*%
%ADD11C,0.0780*%
%ADD12C,0.1300*%
%ADD13C,0.0789*%
%ADD14C,0.0867*%
%ADD15C,0.1740*%
%ADD16C,0.1582*%
%ADD17C,0.0820*%
%ADD18C,0.0820*%
%ADD19C,0.1380*%
%ADD20R,0.0476X0.0476*%
D10*
X025500Y029100D03*
D11*
X024500Y029100D03*
X023500Y029100D03*
X022500Y029100D03*
X021500Y029100D03*
X020500Y029100D03*
X019500Y029100D03*
X018500Y029100D03*
X017500Y029100D03*
X016500Y029100D03*
X015500Y029100D03*
X014500Y029100D03*
X013500Y029100D03*
X012500Y029100D03*
X011500Y029100D03*
X010500Y029100D03*
X010500Y023100D03*
X011500Y023100D03*
X012500Y023100D03*
X013500Y023100D03*
X014500Y023100D03*
X015500Y023100D03*
X016500Y023100D03*
X017500Y023100D03*
X018500Y023100D03*
X019500Y023100D03*
X020500Y023100D03*
X021500Y023100D03*
X022500Y023100D03*
X023500Y023100D03*
X024500Y023100D03*
X025500Y023100D03*
X026500Y023100D03*
X026500Y029100D03*
D12*
X007331Y016857D03*
X004575Y016859D03*
X004576Y015381D03*
X004576Y013904D03*
X004576Y012429D03*
X007330Y012429D03*
X007331Y008857D03*
X004575Y008859D03*
X004576Y007381D03*
X004576Y005904D03*
X004576Y004429D03*
X007330Y004429D03*
X041268Y005068D03*
X041267Y008219D03*
X041268Y013068D03*
X041267Y016219D03*
D13*
X004576Y004427D03*
X004573Y005903D03*
X004572Y007381D03*
X004574Y008862D03*
X004576Y012427D03*
X004573Y013903D03*
X004572Y015381D03*
X004574Y016862D03*
X041265Y016219D03*
X041270Y013065D03*
X041265Y008219D03*
X041270Y005065D03*
D14*
X007332Y004424D03*
X007327Y008858D03*
X007332Y012424D03*
X007327Y016858D03*
D15*
X005854Y021100D03*
D16*
X004732Y019210D03*
X003394Y021100D03*
D17*
X003250Y018100D03*
X003250Y014100D03*
X003000Y010100D03*
X003000Y006100D03*
X010500Y002100D03*
X010500Y001100D03*
X013500Y002100D03*
X019500Y002100D03*
X031500Y002100D03*
X037500Y002100D03*
X040000Y002100D03*
X040000Y001100D03*
X039500Y018600D03*
X039500Y019600D03*
X036500Y019100D03*
X030500Y019100D03*
X021500Y019100D03*
X015500Y019100D03*
X013500Y019100D03*
X013500Y020100D03*
D18*
X007870Y020100D02*
X007130Y020100D01*
X007130Y022100D02*
X007870Y022100D01*
X046130Y023100D02*
X046870Y023100D01*
X046870Y025100D02*
X046130Y025100D01*
X046130Y027100D02*
X046870Y027100D01*
X046870Y029100D02*
X046130Y029100D01*
D19*
X053500Y026100D03*
X053500Y004100D03*
X013500Y006600D03*
X005500Y026100D03*
D20*
X009000Y013600D03*
M02*
