G75*
G70*
%OFA0B0*%
%FSLAX24Y24*%
%IPPOS*%
%LPD*%
%AMOC8*
5,1,8,0,0,1.08239X$1,22.5*
%
%ADD10C,0.0000*%
%ADD11R,0.0700X0.0700*%
%ADD12C,0.0700*%
%ADD13C,0.0004*%
%ADD14C,0.1220*%
%ADD15C,0.1660*%
%ADD16C,0.1502*%
%ADD17C,0.0740*%
%ADD18C,0.0740*%
%ADD19C,0.0500*%
%ADD20C,0.0160*%
%ADD21R,0.0396X0.0396*%
D10*
X001500Y000100D02*
X001500Y030100D01*
X057500Y030100D01*
X057500Y000100D01*
X001500Y000100D01*
X004222Y004427D02*
X004224Y004464D01*
X004230Y004501D01*
X004239Y004536D01*
X004253Y004571D01*
X004269Y004604D01*
X004290Y004635D01*
X004313Y004664D01*
X004339Y004690D01*
X004368Y004713D01*
X004399Y004734D01*
X004432Y004750D01*
X004467Y004764D01*
X004502Y004773D01*
X004539Y004779D01*
X004576Y004781D01*
X004613Y004779D01*
X004650Y004773D01*
X004685Y004764D01*
X004720Y004750D01*
X004753Y004734D01*
X004784Y004713D01*
X004813Y004690D01*
X004839Y004664D01*
X004862Y004635D01*
X004883Y004604D01*
X004899Y004571D01*
X004913Y004536D01*
X004922Y004501D01*
X004928Y004464D01*
X004930Y004427D01*
X004928Y004390D01*
X004922Y004353D01*
X004913Y004318D01*
X004899Y004283D01*
X004883Y004250D01*
X004862Y004219D01*
X004839Y004190D01*
X004813Y004164D01*
X004784Y004141D01*
X004753Y004120D01*
X004720Y004104D01*
X004685Y004090D01*
X004650Y004081D01*
X004613Y004075D01*
X004576Y004073D01*
X004539Y004075D01*
X004502Y004081D01*
X004467Y004090D01*
X004432Y004104D01*
X004399Y004120D01*
X004368Y004141D01*
X004339Y004164D01*
X004313Y004190D01*
X004290Y004219D01*
X004269Y004250D01*
X004253Y004283D01*
X004239Y004318D01*
X004230Y004353D01*
X004224Y004390D01*
X004222Y004427D01*
X004219Y005903D02*
X004221Y005940D01*
X004227Y005977D01*
X004236Y006012D01*
X004250Y006047D01*
X004266Y006080D01*
X004287Y006111D01*
X004310Y006140D01*
X004336Y006166D01*
X004365Y006189D01*
X004396Y006210D01*
X004429Y006226D01*
X004464Y006240D01*
X004499Y006249D01*
X004536Y006255D01*
X004573Y006257D01*
X004610Y006255D01*
X004647Y006249D01*
X004682Y006240D01*
X004717Y006226D01*
X004750Y006210D01*
X004781Y006189D01*
X004810Y006166D01*
X004836Y006140D01*
X004859Y006111D01*
X004880Y006080D01*
X004896Y006047D01*
X004910Y006012D01*
X004919Y005977D01*
X004925Y005940D01*
X004927Y005903D01*
X004925Y005866D01*
X004919Y005829D01*
X004910Y005794D01*
X004896Y005759D01*
X004880Y005726D01*
X004859Y005695D01*
X004836Y005666D01*
X004810Y005640D01*
X004781Y005617D01*
X004750Y005596D01*
X004717Y005580D01*
X004682Y005566D01*
X004647Y005557D01*
X004610Y005551D01*
X004573Y005549D01*
X004536Y005551D01*
X004499Y005557D01*
X004464Y005566D01*
X004429Y005580D01*
X004396Y005596D01*
X004365Y005617D01*
X004336Y005640D01*
X004310Y005666D01*
X004287Y005695D01*
X004266Y005726D01*
X004250Y005759D01*
X004236Y005794D01*
X004227Y005829D01*
X004221Y005866D01*
X004219Y005903D01*
X004218Y007381D02*
X004220Y007418D01*
X004226Y007455D01*
X004235Y007490D01*
X004249Y007525D01*
X004265Y007558D01*
X004286Y007589D01*
X004309Y007618D01*
X004335Y007644D01*
X004364Y007667D01*
X004395Y007688D01*
X004428Y007704D01*
X004463Y007718D01*
X004498Y007727D01*
X004535Y007733D01*
X004572Y007735D01*
X004609Y007733D01*
X004646Y007727D01*
X004681Y007718D01*
X004716Y007704D01*
X004749Y007688D01*
X004780Y007667D01*
X004809Y007644D01*
X004835Y007618D01*
X004858Y007589D01*
X004879Y007558D01*
X004895Y007525D01*
X004909Y007490D01*
X004918Y007455D01*
X004924Y007418D01*
X004926Y007381D01*
X004924Y007344D01*
X004918Y007307D01*
X004909Y007272D01*
X004895Y007237D01*
X004879Y007204D01*
X004858Y007173D01*
X004835Y007144D01*
X004809Y007118D01*
X004780Y007095D01*
X004749Y007074D01*
X004716Y007058D01*
X004681Y007044D01*
X004646Y007035D01*
X004609Y007029D01*
X004572Y007027D01*
X004535Y007029D01*
X004498Y007035D01*
X004463Y007044D01*
X004428Y007058D01*
X004395Y007074D01*
X004364Y007095D01*
X004335Y007118D01*
X004309Y007144D01*
X004286Y007173D01*
X004265Y007204D01*
X004249Y007237D01*
X004235Y007272D01*
X004226Y007307D01*
X004220Y007344D01*
X004218Y007381D01*
X004220Y008862D02*
X004222Y008899D01*
X004228Y008936D01*
X004237Y008971D01*
X004251Y009006D01*
X004267Y009039D01*
X004288Y009070D01*
X004311Y009099D01*
X004337Y009125D01*
X004366Y009148D01*
X004397Y009169D01*
X004430Y009185D01*
X004465Y009199D01*
X004500Y009208D01*
X004537Y009214D01*
X004574Y009216D01*
X004611Y009214D01*
X004648Y009208D01*
X004683Y009199D01*
X004718Y009185D01*
X004751Y009169D01*
X004782Y009148D01*
X004811Y009125D01*
X004837Y009099D01*
X004860Y009070D01*
X004881Y009039D01*
X004897Y009006D01*
X004911Y008971D01*
X004920Y008936D01*
X004926Y008899D01*
X004928Y008862D01*
X004926Y008825D01*
X004920Y008788D01*
X004911Y008753D01*
X004897Y008718D01*
X004881Y008685D01*
X004860Y008654D01*
X004837Y008625D01*
X004811Y008599D01*
X004782Y008576D01*
X004751Y008555D01*
X004718Y008539D01*
X004683Y008525D01*
X004648Y008516D01*
X004611Y008510D01*
X004574Y008508D01*
X004537Y008510D01*
X004500Y008516D01*
X004465Y008525D01*
X004430Y008539D01*
X004397Y008555D01*
X004366Y008576D01*
X004337Y008599D01*
X004311Y008625D01*
X004288Y008654D01*
X004267Y008685D01*
X004251Y008718D01*
X004237Y008753D01*
X004228Y008788D01*
X004222Y008825D01*
X004220Y008862D01*
X006933Y008858D02*
X006935Y008897D01*
X006941Y008936D01*
X006951Y008974D01*
X006964Y009011D01*
X006981Y009046D01*
X007001Y009080D01*
X007025Y009111D01*
X007052Y009140D01*
X007081Y009166D01*
X007113Y009189D01*
X007147Y009209D01*
X007183Y009225D01*
X007220Y009237D01*
X007259Y009246D01*
X007298Y009251D01*
X007337Y009252D01*
X007376Y009249D01*
X007415Y009242D01*
X007452Y009231D01*
X007489Y009217D01*
X007524Y009199D01*
X007557Y009178D01*
X007588Y009153D01*
X007616Y009126D01*
X007641Y009096D01*
X007663Y009063D01*
X007682Y009029D01*
X007697Y008993D01*
X007709Y008955D01*
X007717Y008917D01*
X007721Y008878D01*
X007721Y008838D01*
X007717Y008799D01*
X007709Y008761D01*
X007697Y008723D01*
X007682Y008687D01*
X007663Y008653D01*
X007641Y008620D01*
X007616Y008590D01*
X007588Y008563D01*
X007557Y008538D01*
X007524Y008517D01*
X007489Y008499D01*
X007452Y008485D01*
X007415Y008474D01*
X007376Y008467D01*
X007337Y008464D01*
X007298Y008465D01*
X007259Y008470D01*
X007220Y008479D01*
X007183Y008491D01*
X007147Y008507D01*
X007113Y008527D01*
X007081Y008550D01*
X007052Y008576D01*
X007025Y008605D01*
X007001Y008636D01*
X006981Y008670D01*
X006964Y008705D01*
X006951Y008742D01*
X006941Y008780D01*
X006935Y008819D01*
X006933Y008858D01*
X006938Y012424D02*
X006940Y012463D01*
X006946Y012502D01*
X006956Y012540D01*
X006969Y012577D01*
X006986Y012612D01*
X007006Y012646D01*
X007030Y012677D01*
X007057Y012706D01*
X007086Y012732D01*
X007118Y012755D01*
X007152Y012775D01*
X007188Y012791D01*
X007225Y012803D01*
X007264Y012812D01*
X007303Y012817D01*
X007342Y012818D01*
X007381Y012815D01*
X007420Y012808D01*
X007457Y012797D01*
X007494Y012783D01*
X007529Y012765D01*
X007562Y012744D01*
X007593Y012719D01*
X007621Y012692D01*
X007646Y012662D01*
X007668Y012629D01*
X007687Y012595D01*
X007702Y012559D01*
X007714Y012521D01*
X007722Y012483D01*
X007726Y012444D01*
X007726Y012404D01*
X007722Y012365D01*
X007714Y012327D01*
X007702Y012289D01*
X007687Y012253D01*
X007668Y012219D01*
X007646Y012186D01*
X007621Y012156D01*
X007593Y012129D01*
X007562Y012104D01*
X007529Y012083D01*
X007494Y012065D01*
X007457Y012051D01*
X007420Y012040D01*
X007381Y012033D01*
X007342Y012030D01*
X007303Y012031D01*
X007264Y012036D01*
X007225Y012045D01*
X007188Y012057D01*
X007152Y012073D01*
X007118Y012093D01*
X007086Y012116D01*
X007057Y012142D01*
X007030Y012171D01*
X007006Y012202D01*
X006986Y012236D01*
X006969Y012271D01*
X006956Y012308D01*
X006946Y012346D01*
X006940Y012385D01*
X006938Y012424D01*
X004222Y012427D02*
X004224Y012464D01*
X004230Y012501D01*
X004239Y012536D01*
X004253Y012571D01*
X004269Y012604D01*
X004290Y012635D01*
X004313Y012664D01*
X004339Y012690D01*
X004368Y012713D01*
X004399Y012734D01*
X004432Y012750D01*
X004467Y012764D01*
X004502Y012773D01*
X004539Y012779D01*
X004576Y012781D01*
X004613Y012779D01*
X004650Y012773D01*
X004685Y012764D01*
X004720Y012750D01*
X004753Y012734D01*
X004784Y012713D01*
X004813Y012690D01*
X004839Y012664D01*
X004862Y012635D01*
X004883Y012604D01*
X004899Y012571D01*
X004913Y012536D01*
X004922Y012501D01*
X004928Y012464D01*
X004930Y012427D01*
X004928Y012390D01*
X004922Y012353D01*
X004913Y012318D01*
X004899Y012283D01*
X004883Y012250D01*
X004862Y012219D01*
X004839Y012190D01*
X004813Y012164D01*
X004784Y012141D01*
X004753Y012120D01*
X004720Y012104D01*
X004685Y012090D01*
X004650Y012081D01*
X004613Y012075D01*
X004576Y012073D01*
X004539Y012075D01*
X004502Y012081D01*
X004467Y012090D01*
X004432Y012104D01*
X004399Y012120D01*
X004368Y012141D01*
X004339Y012164D01*
X004313Y012190D01*
X004290Y012219D01*
X004269Y012250D01*
X004253Y012283D01*
X004239Y012318D01*
X004230Y012353D01*
X004224Y012390D01*
X004222Y012427D01*
X004219Y013903D02*
X004221Y013940D01*
X004227Y013977D01*
X004236Y014012D01*
X004250Y014047D01*
X004266Y014080D01*
X004287Y014111D01*
X004310Y014140D01*
X004336Y014166D01*
X004365Y014189D01*
X004396Y014210D01*
X004429Y014226D01*
X004464Y014240D01*
X004499Y014249D01*
X004536Y014255D01*
X004573Y014257D01*
X004610Y014255D01*
X004647Y014249D01*
X004682Y014240D01*
X004717Y014226D01*
X004750Y014210D01*
X004781Y014189D01*
X004810Y014166D01*
X004836Y014140D01*
X004859Y014111D01*
X004880Y014080D01*
X004896Y014047D01*
X004910Y014012D01*
X004919Y013977D01*
X004925Y013940D01*
X004927Y013903D01*
X004925Y013866D01*
X004919Y013829D01*
X004910Y013794D01*
X004896Y013759D01*
X004880Y013726D01*
X004859Y013695D01*
X004836Y013666D01*
X004810Y013640D01*
X004781Y013617D01*
X004750Y013596D01*
X004717Y013580D01*
X004682Y013566D01*
X004647Y013557D01*
X004610Y013551D01*
X004573Y013549D01*
X004536Y013551D01*
X004499Y013557D01*
X004464Y013566D01*
X004429Y013580D01*
X004396Y013596D01*
X004365Y013617D01*
X004336Y013640D01*
X004310Y013666D01*
X004287Y013695D01*
X004266Y013726D01*
X004250Y013759D01*
X004236Y013794D01*
X004227Y013829D01*
X004221Y013866D01*
X004219Y013903D01*
X004218Y015381D02*
X004220Y015418D01*
X004226Y015455D01*
X004235Y015490D01*
X004249Y015525D01*
X004265Y015558D01*
X004286Y015589D01*
X004309Y015618D01*
X004335Y015644D01*
X004364Y015667D01*
X004395Y015688D01*
X004428Y015704D01*
X004463Y015718D01*
X004498Y015727D01*
X004535Y015733D01*
X004572Y015735D01*
X004609Y015733D01*
X004646Y015727D01*
X004681Y015718D01*
X004716Y015704D01*
X004749Y015688D01*
X004780Y015667D01*
X004809Y015644D01*
X004835Y015618D01*
X004858Y015589D01*
X004879Y015558D01*
X004895Y015525D01*
X004909Y015490D01*
X004918Y015455D01*
X004924Y015418D01*
X004926Y015381D01*
X004924Y015344D01*
X004918Y015307D01*
X004909Y015272D01*
X004895Y015237D01*
X004879Y015204D01*
X004858Y015173D01*
X004835Y015144D01*
X004809Y015118D01*
X004780Y015095D01*
X004749Y015074D01*
X004716Y015058D01*
X004681Y015044D01*
X004646Y015035D01*
X004609Y015029D01*
X004572Y015027D01*
X004535Y015029D01*
X004498Y015035D01*
X004463Y015044D01*
X004428Y015058D01*
X004395Y015074D01*
X004364Y015095D01*
X004335Y015118D01*
X004309Y015144D01*
X004286Y015173D01*
X004265Y015204D01*
X004249Y015237D01*
X004235Y015272D01*
X004226Y015307D01*
X004220Y015344D01*
X004218Y015381D01*
X004220Y016862D02*
X004222Y016899D01*
X004228Y016936D01*
X004237Y016971D01*
X004251Y017006D01*
X004267Y017039D01*
X004288Y017070D01*
X004311Y017099D01*
X004337Y017125D01*
X004366Y017148D01*
X004397Y017169D01*
X004430Y017185D01*
X004465Y017199D01*
X004500Y017208D01*
X004537Y017214D01*
X004574Y017216D01*
X004611Y017214D01*
X004648Y017208D01*
X004683Y017199D01*
X004718Y017185D01*
X004751Y017169D01*
X004782Y017148D01*
X004811Y017125D01*
X004837Y017099D01*
X004860Y017070D01*
X004881Y017039D01*
X004897Y017006D01*
X004911Y016971D01*
X004920Y016936D01*
X004926Y016899D01*
X004928Y016862D01*
X004926Y016825D01*
X004920Y016788D01*
X004911Y016753D01*
X004897Y016718D01*
X004881Y016685D01*
X004860Y016654D01*
X004837Y016625D01*
X004811Y016599D01*
X004782Y016576D01*
X004751Y016555D01*
X004718Y016539D01*
X004683Y016525D01*
X004648Y016516D01*
X004611Y016510D01*
X004574Y016508D01*
X004537Y016510D01*
X004500Y016516D01*
X004465Y016525D01*
X004430Y016539D01*
X004397Y016555D01*
X004366Y016576D01*
X004337Y016599D01*
X004311Y016625D01*
X004288Y016654D01*
X004267Y016685D01*
X004251Y016718D01*
X004237Y016753D01*
X004228Y016788D01*
X004222Y016825D01*
X004220Y016862D01*
X006933Y016858D02*
X006935Y016897D01*
X006941Y016936D01*
X006951Y016974D01*
X006964Y017011D01*
X006981Y017046D01*
X007001Y017080D01*
X007025Y017111D01*
X007052Y017140D01*
X007081Y017166D01*
X007113Y017189D01*
X007147Y017209D01*
X007183Y017225D01*
X007220Y017237D01*
X007259Y017246D01*
X007298Y017251D01*
X007337Y017252D01*
X007376Y017249D01*
X007415Y017242D01*
X007452Y017231D01*
X007489Y017217D01*
X007524Y017199D01*
X007557Y017178D01*
X007588Y017153D01*
X007616Y017126D01*
X007641Y017096D01*
X007663Y017063D01*
X007682Y017029D01*
X007697Y016993D01*
X007709Y016955D01*
X007717Y016917D01*
X007721Y016878D01*
X007721Y016838D01*
X007717Y016799D01*
X007709Y016761D01*
X007697Y016723D01*
X007682Y016687D01*
X007663Y016653D01*
X007641Y016620D01*
X007616Y016590D01*
X007588Y016563D01*
X007557Y016538D01*
X007524Y016517D01*
X007489Y016499D01*
X007452Y016485D01*
X007415Y016474D01*
X007376Y016467D01*
X007337Y016464D01*
X007298Y016465D01*
X007259Y016470D01*
X007220Y016479D01*
X007183Y016491D01*
X007147Y016507D01*
X007113Y016527D01*
X007081Y016550D01*
X007052Y016576D01*
X007025Y016605D01*
X007001Y016636D01*
X006981Y016670D01*
X006964Y016705D01*
X006951Y016742D01*
X006941Y016780D01*
X006935Y016819D01*
X006933Y016858D01*
X010150Y023100D02*
X010152Y023137D01*
X010158Y023174D01*
X010168Y023210D01*
X010181Y023245D01*
X010198Y023278D01*
X010219Y023309D01*
X010243Y023337D01*
X010270Y023363D01*
X010299Y023386D01*
X010330Y023406D01*
X010364Y023422D01*
X010399Y023435D01*
X010435Y023444D01*
X010472Y023449D01*
X010509Y023450D01*
X010546Y023447D01*
X010583Y023440D01*
X010619Y023429D01*
X010653Y023415D01*
X010686Y023397D01*
X010716Y023375D01*
X010744Y023351D01*
X010769Y023323D01*
X010792Y023293D01*
X010811Y023261D01*
X010826Y023227D01*
X010838Y023192D01*
X010846Y023156D01*
X010850Y023119D01*
X010850Y023081D01*
X010846Y023044D01*
X010838Y023008D01*
X010826Y022973D01*
X010811Y022939D01*
X010792Y022907D01*
X010769Y022877D01*
X010744Y022849D01*
X010716Y022825D01*
X010686Y022803D01*
X010653Y022785D01*
X010619Y022771D01*
X010583Y022760D01*
X010546Y022753D01*
X010509Y022750D01*
X010472Y022751D01*
X010435Y022756D01*
X010399Y022765D01*
X010364Y022778D01*
X010330Y022794D01*
X010299Y022814D01*
X010270Y022837D01*
X010243Y022863D01*
X010219Y022891D01*
X010198Y022922D01*
X010181Y022955D01*
X010168Y022990D01*
X010158Y023026D01*
X010152Y023063D01*
X010150Y023100D01*
X004850Y026100D02*
X004852Y026150D01*
X004858Y026200D01*
X004868Y026250D01*
X004881Y026298D01*
X004898Y026346D01*
X004919Y026392D01*
X004943Y026436D01*
X004971Y026478D01*
X005002Y026518D01*
X005036Y026555D01*
X005073Y026590D01*
X005112Y026621D01*
X005153Y026650D01*
X005197Y026675D01*
X005243Y026697D01*
X005290Y026715D01*
X005338Y026729D01*
X005387Y026740D01*
X005437Y026747D01*
X005487Y026750D01*
X005538Y026749D01*
X005588Y026744D01*
X005638Y026735D01*
X005686Y026723D01*
X005734Y026706D01*
X005780Y026686D01*
X005825Y026663D01*
X005868Y026636D01*
X005908Y026606D01*
X005946Y026573D01*
X005981Y026537D01*
X006014Y026498D01*
X006043Y026457D01*
X006069Y026414D01*
X006092Y026369D01*
X006111Y026322D01*
X006126Y026274D01*
X006138Y026225D01*
X006146Y026175D01*
X006150Y026125D01*
X006150Y026075D01*
X006146Y026025D01*
X006138Y025975D01*
X006126Y025926D01*
X006111Y025878D01*
X006092Y025831D01*
X006069Y025786D01*
X006043Y025743D01*
X006014Y025702D01*
X005981Y025663D01*
X005946Y025627D01*
X005908Y025594D01*
X005868Y025564D01*
X005825Y025537D01*
X005780Y025514D01*
X005734Y025494D01*
X005686Y025477D01*
X005638Y025465D01*
X005588Y025456D01*
X005538Y025451D01*
X005487Y025450D01*
X005437Y025453D01*
X005387Y025460D01*
X005338Y025471D01*
X005290Y025485D01*
X005243Y025503D01*
X005197Y025525D01*
X005153Y025550D01*
X005112Y025579D01*
X005073Y025610D01*
X005036Y025645D01*
X005002Y025682D01*
X004971Y025722D01*
X004943Y025764D01*
X004919Y025808D01*
X004898Y025854D01*
X004881Y025902D01*
X004868Y025950D01*
X004858Y026000D01*
X004852Y026050D01*
X004850Y026100D01*
X010150Y029100D02*
X010152Y029137D01*
X010158Y029174D01*
X010168Y029210D01*
X010181Y029245D01*
X010198Y029278D01*
X010219Y029309D01*
X010243Y029337D01*
X010270Y029363D01*
X010299Y029386D01*
X010330Y029406D01*
X010364Y029422D01*
X010399Y029435D01*
X010435Y029444D01*
X010472Y029449D01*
X010509Y029450D01*
X010546Y029447D01*
X010583Y029440D01*
X010619Y029429D01*
X010653Y029415D01*
X010686Y029397D01*
X010716Y029375D01*
X010744Y029351D01*
X010769Y029323D01*
X010792Y029293D01*
X010811Y029261D01*
X010826Y029227D01*
X010838Y029192D01*
X010846Y029156D01*
X010850Y029119D01*
X010850Y029081D01*
X010846Y029044D01*
X010838Y029008D01*
X010826Y028973D01*
X010811Y028939D01*
X010792Y028907D01*
X010769Y028877D01*
X010744Y028849D01*
X010716Y028825D01*
X010686Y028803D01*
X010653Y028785D01*
X010619Y028771D01*
X010583Y028760D01*
X010546Y028753D01*
X010509Y028750D01*
X010472Y028751D01*
X010435Y028756D01*
X010399Y028765D01*
X010364Y028778D01*
X010330Y028794D01*
X010299Y028814D01*
X010270Y028837D01*
X010243Y028863D01*
X010219Y028891D01*
X010198Y028922D01*
X010181Y028955D01*
X010168Y028990D01*
X010158Y029026D01*
X010152Y029063D01*
X010150Y029100D01*
X026150Y029100D02*
X026152Y029137D01*
X026158Y029174D01*
X026168Y029210D01*
X026181Y029245D01*
X026198Y029278D01*
X026219Y029309D01*
X026243Y029337D01*
X026270Y029363D01*
X026299Y029386D01*
X026330Y029406D01*
X026364Y029422D01*
X026399Y029435D01*
X026435Y029444D01*
X026472Y029449D01*
X026509Y029450D01*
X026546Y029447D01*
X026583Y029440D01*
X026619Y029429D01*
X026653Y029415D01*
X026686Y029397D01*
X026716Y029375D01*
X026744Y029351D01*
X026769Y029323D01*
X026792Y029293D01*
X026811Y029261D01*
X026826Y029227D01*
X026838Y029192D01*
X026846Y029156D01*
X026850Y029119D01*
X026850Y029081D01*
X026846Y029044D01*
X026838Y029008D01*
X026826Y028973D01*
X026811Y028939D01*
X026792Y028907D01*
X026769Y028877D01*
X026744Y028849D01*
X026716Y028825D01*
X026686Y028803D01*
X026653Y028785D01*
X026619Y028771D01*
X026583Y028760D01*
X026546Y028753D01*
X026509Y028750D01*
X026472Y028751D01*
X026435Y028756D01*
X026399Y028765D01*
X026364Y028778D01*
X026330Y028794D01*
X026299Y028814D01*
X026270Y028837D01*
X026243Y028863D01*
X026219Y028891D01*
X026198Y028922D01*
X026181Y028955D01*
X026168Y028990D01*
X026158Y029026D01*
X026152Y029063D01*
X026150Y029100D01*
X026150Y023100D02*
X026152Y023137D01*
X026158Y023174D01*
X026168Y023210D01*
X026181Y023245D01*
X026198Y023278D01*
X026219Y023309D01*
X026243Y023337D01*
X026270Y023363D01*
X026299Y023386D01*
X026330Y023406D01*
X026364Y023422D01*
X026399Y023435D01*
X026435Y023444D01*
X026472Y023449D01*
X026509Y023450D01*
X026546Y023447D01*
X026583Y023440D01*
X026619Y023429D01*
X026653Y023415D01*
X026686Y023397D01*
X026716Y023375D01*
X026744Y023351D01*
X026769Y023323D01*
X026792Y023293D01*
X026811Y023261D01*
X026826Y023227D01*
X026838Y023192D01*
X026846Y023156D01*
X026850Y023119D01*
X026850Y023081D01*
X026846Y023044D01*
X026838Y023008D01*
X026826Y022973D01*
X026811Y022939D01*
X026792Y022907D01*
X026769Y022877D01*
X026744Y022849D01*
X026716Y022825D01*
X026686Y022803D01*
X026653Y022785D01*
X026619Y022771D01*
X026583Y022760D01*
X026546Y022753D01*
X026509Y022750D01*
X026472Y022751D01*
X026435Y022756D01*
X026399Y022765D01*
X026364Y022778D01*
X026330Y022794D01*
X026299Y022814D01*
X026270Y022837D01*
X026243Y022863D01*
X026219Y022891D01*
X026198Y022922D01*
X026181Y022955D01*
X026168Y022990D01*
X026158Y023026D01*
X026152Y023063D01*
X026150Y023100D01*
X040911Y016219D02*
X040913Y016256D01*
X040919Y016293D01*
X040928Y016328D01*
X040942Y016363D01*
X040958Y016396D01*
X040979Y016427D01*
X041002Y016456D01*
X041028Y016482D01*
X041057Y016505D01*
X041088Y016526D01*
X041121Y016542D01*
X041156Y016556D01*
X041191Y016565D01*
X041228Y016571D01*
X041265Y016573D01*
X041302Y016571D01*
X041339Y016565D01*
X041374Y016556D01*
X041409Y016542D01*
X041442Y016526D01*
X041473Y016505D01*
X041502Y016482D01*
X041528Y016456D01*
X041551Y016427D01*
X041572Y016396D01*
X041588Y016363D01*
X041602Y016328D01*
X041611Y016293D01*
X041617Y016256D01*
X041619Y016219D01*
X041617Y016182D01*
X041611Y016145D01*
X041602Y016110D01*
X041588Y016075D01*
X041572Y016042D01*
X041551Y016011D01*
X041528Y015982D01*
X041502Y015956D01*
X041473Y015933D01*
X041442Y015912D01*
X041409Y015896D01*
X041374Y015882D01*
X041339Y015873D01*
X041302Y015867D01*
X041265Y015865D01*
X041228Y015867D01*
X041191Y015873D01*
X041156Y015882D01*
X041121Y015896D01*
X041088Y015912D01*
X041057Y015933D01*
X041028Y015956D01*
X041002Y015982D01*
X040979Y016011D01*
X040958Y016042D01*
X040942Y016075D01*
X040928Y016110D01*
X040919Y016145D01*
X040913Y016182D01*
X040911Y016219D01*
X040916Y013065D02*
X040918Y013102D01*
X040924Y013139D01*
X040933Y013174D01*
X040947Y013209D01*
X040963Y013242D01*
X040984Y013273D01*
X041007Y013302D01*
X041033Y013328D01*
X041062Y013351D01*
X041093Y013372D01*
X041126Y013388D01*
X041161Y013402D01*
X041196Y013411D01*
X041233Y013417D01*
X041270Y013419D01*
X041307Y013417D01*
X041344Y013411D01*
X041379Y013402D01*
X041414Y013388D01*
X041447Y013372D01*
X041478Y013351D01*
X041507Y013328D01*
X041533Y013302D01*
X041556Y013273D01*
X041577Y013242D01*
X041593Y013209D01*
X041607Y013174D01*
X041616Y013139D01*
X041622Y013102D01*
X041624Y013065D01*
X041622Y013028D01*
X041616Y012991D01*
X041607Y012956D01*
X041593Y012921D01*
X041577Y012888D01*
X041556Y012857D01*
X041533Y012828D01*
X041507Y012802D01*
X041478Y012779D01*
X041447Y012758D01*
X041414Y012742D01*
X041379Y012728D01*
X041344Y012719D01*
X041307Y012713D01*
X041270Y012711D01*
X041233Y012713D01*
X041196Y012719D01*
X041161Y012728D01*
X041126Y012742D01*
X041093Y012758D01*
X041062Y012779D01*
X041033Y012802D01*
X041007Y012828D01*
X040984Y012857D01*
X040963Y012888D01*
X040947Y012921D01*
X040933Y012956D01*
X040924Y012991D01*
X040918Y013028D01*
X040916Y013065D01*
X040911Y008219D02*
X040913Y008256D01*
X040919Y008293D01*
X040928Y008328D01*
X040942Y008363D01*
X040958Y008396D01*
X040979Y008427D01*
X041002Y008456D01*
X041028Y008482D01*
X041057Y008505D01*
X041088Y008526D01*
X041121Y008542D01*
X041156Y008556D01*
X041191Y008565D01*
X041228Y008571D01*
X041265Y008573D01*
X041302Y008571D01*
X041339Y008565D01*
X041374Y008556D01*
X041409Y008542D01*
X041442Y008526D01*
X041473Y008505D01*
X041502Y008482D01*
X041528Y008456D01*
X041551Y008427D01*
X041572Y008396D01*
X041588Y008363D01*
X041602Y008328D01*
X041611Y008293D01*
X041617Y008256D01*
X041619Y008219D01*
X041617Y008182D01*
X041611Y008145D01*
X041602Y008110D01*
X041588Y008075D01*
X041572Y008042D01*
X041551Y008011D01*
X041528Y007982D01*
X041502Y007956D01*
X041473Y007933D01*
X041442Y007912D01*
X041409Y007896D01*
X041374Y007882D01*
X041339Y007873D01*
X041302Y007867D01*
X041265Y007865D01*
X041228Y007867D01*
X041191Y007873D01*
X041156Y007882D01*
X041121Y007896D01*
X041088Y007912D01*
X041057Y007933D01*
X041028Y007956D01*
X041002Y007982D01*
X040979Y008011D01*
X040958Y008042D01*
X040942Y008075D01*
X040928Y008110D01*
X040919Y008145D01*
X040913Y008182D01*
X040911Y008219D01*
X040916Y005065D02*
X040918Y005102D01*
X040924Y005139D01*
X040933Y005174D01*
X040947Y005209D01*
X040963Y005242D01*
X040984Y005273D01*
X041007Y005302D01*
X041033Y005328D01*
X041062Y005351D01*
X041093Y005372D01*
X041126Y005388D01*
X041161Y005402D01*
X041196Y005411D01*
X041233Y005417D01*
X041270Y005419D01*
X041307Y005417D01*
X041344Y005411D01*
X041379Y005402D01*
X041414Y005388D01*
X041447Y005372D01*
X041478Y005351D01*
X041507Y005328D01*
X041533Y005302D01*
X041556Y005273D01*
X041577Y005242D01*
X041593Y005209D01*
X041607Y005174D01*
X041616Y005139D01*
X041622Y005102D01*
X041624Y005065D01*
X041622Y005028D01*
X041616Y004991D01*
X041607Y004956D01*
X041593Y004921D01*
X041577Y004888D01*
X041556Y004857D01*
X041533Y004828D01*
X041507Y004802D01*
X041478Y004779D01*
X041447Y004758D01*
X041414Y004742D01*
X041379Y004728D01*
X041344Y004719D01*
X041307Y004713D01*
X041270Y004711D01*
X041233Y004713D01*
X041196Y004719D01*
X041161Y004728D01*
X041126Y004742D01*
X041093Y004758D01*
X041062Y004779D01*
X041033Y004802D01*
X041007Y004828D01*
X040984Y004857D01*
X040963Y004888D01*
X040947Y004921D01*
X040933Y004956D01*
X040924Y004991D01*
X040918Y005028D01*
X040916Y005065D01*
X052850Y004100D02*
X052852Y004150D01*
X052858Y004200D01*
X052868Y004250D01*
X052881Y004298D01*
X052898Y004346D01*
X052919Y004392D01*
X052943Y004436D01*
X052971Y004478D01*
X053002Y004518D01*
X053036Y004555D01*
X053073Y004590D01*
X053112Y004621D01*
X053153Y004650D01*
X053197Y004675D01*
X053243Y004697D01*
X053290Y004715D01*
X053338Y004729D01*
X053387Y004740D01*
X053437Y004747D01*
X053487Y004750D01*
X053538Y004749D01*
X053588Y004744D01*
X053638Y004735D01*
X053686Y004723D01*
X053734Y004706D01*
X053780Y004686D01*
X053825Y004663D01*
X053868Y004636D01*
X053908Y004606D01*
X053946Y004573D01*
X053981Y004537D01*
X054014Y004498D01*
X054043Y004457D01*
X054069Y004414D01*
X054092Y004369D01*
X054111Y004322D01*
X054126Y004274D01*
X054138Y004225D01*
X054146Y004175D01*
X054150Y004125D01*
X054150Y004075D01*
X054146Y004025D01*
X054138Y003975D01*
X054126Y003926D01*
X054111Y003878D01*
X054092Y003831D01*
X054069Y003786D01*
X054043Y003743D01*
X054014Y003702D01*
X053981Y003663D01*
X053946Y003627D01*
X053908Y003594D01*
X053868Y003564D01*
X053825Y003537D01*
X053780Y003514D01*
X053734Y003494D01*
X053686Y003477D01*
X053638Y003465D01*
X053588Y003456D01*
X053538Y003451D01*
X053487Y003450D01*
X053437Y003453D01*
X053387Y003460D01*
X053338Y003471D01*
X053290Y003485D01*
X053243Y003503D01*
X053197Y003525D01*
X053153Y003550D01*
X053112Y003579D01*
X053073Y003610D01*
X053036Y003645D01*
X053002Y003682D01*
X052971Y003722D01*
X052943Y003764D01*
X052919Y003808D01*
X052898Y003854D01*
X052881Y003902D01*
X052868Y003950D01*
X052858Y004000D01*
X052852Y004050D01*
X052850Y004100D01*
X052850Y026100D02*
X052852Y026150D01*
X052858Y026200D01*
X052868Y026250D01*
X052881Y026298D01*
X052898Y026346D01*
X052919Y026392D01*
X052943Y026436D01*
X052971Y026478D01*
X053002Y026518D01*
X053036Y026555D01*
X053073Y026590D01*
X053112Y026621D01*
X053153Y026650D01*
X053197Y026675D01*
X053243Y026697D01*
X053290Y026715D01*
X053338Y026729D01*
X053387Y026740D01*
X053437Y026747D01*
X053487Y026750D01*
X053538Y026749D01*
X053588Y026744D01*
X053638Y026735D01*
X053686Y026723D01*
X053734Y026706D01*
X053780Y026686D01*
X053825Y026663D01*
X053868Y026636D01*
X053908Y026606D01*
X053946Y026573D01*
X053981Y026537D01*
X054014Y026498D01*
X054043Y026457D01*
X054069Y026414D01*
X054092Y026369D01*
X054111Y026322D01*
X054126Y026274D01*
X054138Y026225D01*
X054146Y026175D01*
X054150Y026125D01*
X054150Y026075D01*
X054146Y026025D01*
X054138Y025975D01*
X054126Y025926D01*
X054111Y025878D01*
X054092Y025831D01*
X054069Y025786D01*
X054043Y025743D01*
X054014Y025702D01*
X053981Y025663D01*
X053946Y025627D01*
X053908Y025594D01*
X053868Y025564D01*
X053825Y025537D01*
X053780Y025514D01*
X053734Y025494D01*
X053686Y025477D01*
X053638Y025465D01*
X053588Y025456D01*
X053538Y025451D01*
X053487Y025450D01*
X053437Y025453D01*
X053387Y025460D01*
X053338Y025471D01*
X053290Y025485D01*
X053243Y025503D01*
X053197Y025525D01*
X053153Y025550D01*
X053112Y025579D01*
X053073Y025610D01*
X053036Y025645D01*
X053002Y025682D01*
X052971Y025722D01*
X052943Y025764D01*
X052919Y025808D01*
X052898Y025854D01*
X052881Y025902D01*
X052868Y025950D01*
X052858Y026000D01*
X052852Y026050D01*
X052850Y026100D01*
X012850Y006600D02*
X012852Y006650D01*
X012858Y006700D01*
X012868Y006750D01*
X012881Y006798D01*
X012898Y006846D01*
X012919Y006892D01*
X012943Y006936D01*
X012971Y006978D01*
X013002Y007018D01*
X013036Y007055D01*
X013073Y007090D01*
X013112Y007121D01*
X013153Y007150D01*
X013197Y007175D01*
X013243Y007197D01*
X013290Y007215D01*
X013338Y007229D01*
X013387Y007240D01*
X013437Y007247D01*
X013487Y007250D01*
X013538Y007249D01*
X013588Y007244D01*
X013638Y007235D01*
X013686Y007223D01*
X013734Y007206D01*
X013780Y007186D01*
X013825Y007163D01*
X013868Y007136D01*
X013908Y007106D01*
X013946Y007073D01*
X013981Y007037D01*
X014014Y006998D01*
X014043Y006957D01*
X014069Y006914D01*
X014092Y006869D01*
X014111Y006822D01*
X014126Y006774D01*
X014138Y006725D01*
X014146Y006675D01*
X014150Y006625D01*
X014150Y006575D01*
X014146Y006525D01*
X014138Y006475D01*
X014126Y006426D01*
X014111Y006378D01*
X014092Y006331D01*
X014069Y006286D01*
X014043Y006243D01*
X014014Y006202D01*
X013981Y006163D01*
X013946Y006127D01*
X013908Y006094D01*
X013868Y006064D01*
X013825Y006037D01*
X013780Y006014D01*
X013734Y005994D01*
X013686Y005977D01*
X013638Y005965D01*
X013588Y005956D01*
X013538Y005951D01*
X013487Y005950D01*
X013437Y005953D01*
X013387Y005960D01*
X013338Y005971D01*
X013290Y005985D01*
X013243Y006003D01*
X013197Y006025D01*
X013153Y006050D01*
X013112Y006079D01*
X013073Y006110D01*
X013036Y006145D01*
X013002Y006182D01*
X012971Y006222D01*
X012943Y006264D01*
X012919Y006308D01*
X012898Y006354D01*
X012881Y006402D01*
X012868Y006450D01*
X012858Y006500D01*
X012852Y006550D01*
X012850Y006600D01*
X006938Y004424D02*
X006940Y004463D01*
X006946Y004502D01*
X006956Y004540D01*
X006969Y004577D01*
X006986Y004612D01*
X007006Y004646D01*
X007030Y004677D01*
X007057Y004706D01*
X007086Y004732D01*
X007118Y004755D01*
X007152Y004775D01*
X007188Y004791D01*
X007225Y004803D01*
X007264Y004812D01*
X007303Y004817D01*
X007342Y004818D01*
X007381Y004815D01*
X007420Y004808D01*
X007457Y004797D01*
X007494Y004783D01*
X007529Y004765D01*
X007562Y004744D01*
X007593Y004719D01*
X007621Y004692D01*
X007646Y004662D01*
X007668Y004629D01*
X007687Y004595D01*
X007702Y004559D01*
X007714Y004521D01*
X007722Y004483D01*
X007726Y004444D01*
X007726Y004404D01*
X007722Y004365D01*
X007714Y004327D01*
X007702Y004289D01*
X007687Y004253D01*
X007668Y004219D01*
X007646Y004186D01*
X007621Y004156D01*
X007593Y004129D01*
X007562Y004104D01*
X007529Y004083D01*
X007494Y004065D01*
X007457Y004051D01*
X007420Y004040D01*
X007381Y004033D01*
X007342Y004030D01*
X007303Y004031D01*
X007264Y004036D01*
X007225Y004045D01*
X007188Y004057D01*
X007152Y004073D01*
X007118Y004093D01*
X007086Y004116D01*
X007057Y004142D01*
X007030Y004171D01*
X007006Y004202D01*
X006986Y004236D01*
X006969Y004271D01*
X006956Y004308D01*
X006946Y004346D01*
X006940Y004385D01*
X006938Y004424D01*
D11*
X025500Y029100D03*
D12*
X024500Y029100D03*
X023500Y029100D03*
X022500Y029100D03*
X021500Y029100D03*
X020500Y029100D03*
X019500Y029100D03*
X018500Y029100D03*
X017500Y029100D03*
X016500Y029100D03*
X015500Y029100D03*
X014500Y029100D03*
X013500Y029100D03*
X012500Y029100D03*
X011500Y029100D03*
X011500Y023100D03*
X012500Y023100D03*
X013500Y023100D03*
X014500Y023100D03*
X015500Y023100D03*
X016500Y023100D03*
X017500Y023100D03*
X018500Y023100D03*
X019500Y023100D03*
X020500Y023100D03*
X021500Y023100D03*
X022500Y023100D03*
X023500Y023100D03*
X024500Y023100D03*
X025500Y023100D03*
D13*
X040914Y016218D02*
X040916Y016255D01*
X040922Y016292D01*
X040931Y016327D01*
X040945Y016362D01*
X040961Y016395D01*
X040982Y016426D01*
X041005Y016455D01*
X041031Y016481D01*
X041060Y016504D01*
X041091Y016525D01*
X041124Y016541D01*
X041159Y016555D01*
X041194Y016564D01*
X041231Y016570D01*
X041268Y016572D01*
X041305Y016570D01*
X041342Y016564D01*
X041377Y016555D01*
X041412Y016541D01*
X041445Y016525D01*
X041476Y016504D01*
X041505Y016481D01*
X041531Y016455D01*
X041554Y016426D01*
X041575Y016395D01*
X041591Y016362D01*
X041605Y016327D01*
X041614Y016292D01*
X041620Y016255D01*
X041622Y016218D01*
X041620Y016181D01*
X041614Y016144D01*
X041605Y016109D01*
X041591Y016074D01*
X041575Y016041D01*
X041554Y016010D01*
X041531Y015981D01*
X041505Y015955D01*
X041476Y015932D01*
X041445Y015911D01*
X041412Y015895D01*
X041377Y015881D01*
X041342Y015872D01*
X041305Y015866D01*
X041268Y015864D01*
X041231Y015866D01*
X041194Y015872D01*
X041159Y015881D01*
X041124Y015895D01*
X041091Y015911D01*
X041060Y015932D01*
X041031Y015955D01*
X041005Y015981D01*
X040982Y016010D01*
X040961Y016041D01*
X040945Y016074D01*
X040931Y016109D01*
X040922Y016144D01*
X040916Y016181D01*
X040914Y016218D01*
X040916Y016255D01*
X040922Y016292D01*
X040931Y016327D01*
X040945Y016362D01*
X040961Y016395D01*
X040982Y016426D01*
X041005Y016455D01*
X041031Y016481D01*
X041060Y016504D01*
X041091Y016525D01*
X041124Y016541D01*
X041159Y016555D01*
X041194Y016564D01*
X041231Y016570D01*
X041268Y016572D01*
X041305Y016570D01*
X041342Y016564D01*
X041377Y016555D01*
X041412Y016541D01*
X041445Y016525D01*
X041476Y016504D01*
X041505Y016481D01*
X041531Y016455D01*
X041554Y016426D01*
X041575Y016395D01*
X041591Y016362D01*
X041605Y016327D01*
X041614Y016292D01*
X041620Y016255D01*
X041622Y016218D01*
X041620Y016181D01*
X041614Y016144D01*
X041605Y016109D01*
X041591Y016074D01*
X041575Y016041D01*
X041554Y016010D01*
X041531Y015981D01*
X041505Y015955D01*
X041476Y015932D01*
X041445Y015911D01*
X041412Y015895D01*
X041377Y015881D01*
X041342Y015872D01*
X041305Y015866D01*
X041268Y015864D01*
X041231Y015866D01*
X041194Y015872D01*
X041159Y015881D01*
X041124Y015895D01*
X041091Y015911D01*
X041060Y015932D01*
X041031Y015955D01*
X041005Y015981D01*
X040982Y016010D01*
X040961Y016041D01*
X040945Y016074D01*
X040931Y016109D01*
X040922Y016144D01*
X040916Y016181D01*
X040914Y016218D01*
X040914Y013069D02*
X040916Y013106D01*
X040922Y013143D01*
X040931Y013178D01*
X040945Y013213D01*
X040961Y013246D01*
X040982Y013277D01*
X041005Y013306D01*
X041031Y013332D01*
X041060Y013355D01*
X041091Y013376D01*
X041124Y013392D01*
X041159Y013406D01*
X041194Y013415D01*
X041231Y013421D01*
X041268Y013423D01*
X041305Y013421D01*
X041342Y013415D01*
X041377Y013406D01*
X041412Y013392D01*
X041445Y013376D01*
X041476Y013355D01*
X041505Y013332D01*
X041531Y013306D01*
X041554Y013277D01*
X041575Y013246D01*
X041591Y013213D01*
X041605Y013178D01*
X041614Y013143D01*
X041620Y013106D01*
X041622Y013069D01*
X041620Y013032D01*
X041614Y012995D01*
X041605Y012960D01*
X041591Y012925D01*
X041575Y012892D01*
X041554Y012861D01*
X041531Y012832D01*
X041505Y012806D01*
X041476Y012783D01*
X041445Y012762D01*
X041412Y012746D01*
X041377Y012732D01*
X041342Y012723D01*
X041305Y012717D01*
X041268Y012715D01*
X041231Y012717D01*
X041194Y012723D01*
X041159Y012732D01*
X041124Y012746D01*
X041091Y012762D01*
X041060Y012783D01*
X041031Y012806D01*
X041005Y012832D01*
X040982Y012861D01*
X040961Y012892D01*
X040945Y012925D01*
X040931Y012960D01*
X040922Y012995D01*
X040916Y013032D01*
X040914Y013069D01*
X040916Y013106D01*
X040922Y013143D01*
X040931Y013178D01*
X040945Y013213D01*
X040961Y013246D01*
X040982Y013277D01*
X041005Y013306D01*
X041031Y013332D01*
X041060Y013355D01*
X041091Y013376D01*
X041124Y013392D01*
X041159Y013406D01*
X041194Y013415D01*
X041231Y013421D01*
X041268Y013423D01*
X041305Y013421D01*
X041342Y013415D01*
X041377Y013406D01*
X041412Y013392D01*
X041445Y013376D01*
X041476Y013355D01*
X041505Y013332D01*
X041531Y013306D01*
X041554Y013277D01*
X041575Y013246D01*
X041591Y013213D01*
X041605Y013178D01*
X041614Y013143D01*
X041620Y013106D01*
X041622Y013069D01*
X041620Y013032D01*
X041614Y012995D01*
X041605Y012960D01*
X041591Y012925D01*
X041575Y012892D01*
X041554Y012861D01*
X041531Y012832D01*
X041505Y012806D01*
X041476Y012783D01*
X041445Y012762D01*
X041412Y012746D01*
X041377Y012732D01*
X041342Y012723D01*
X041305Y012717D01*
X041268Y012715D01*
X041231Y012717D01*
X041194Y012723D01*
X041159Y012732D01*
X041124Y012746D01*
X041091Y012762D01*
X041060Y012783D01*
X041031Y012806D01*
X041005Y012832D01*
X040982Y012861D01*
X040961Y012892D01*
X040945Y012925D01*
X040931Y012960D01*
X040922Y012995D01*
X040916Y013032D01*
X040914Y013069D01*
X040914Y008218D02*
X040916Y008255D01*
X040922Y008292D01*
X040931Y008327D01*
X040945Y008362D01*
X040961Y008395D01*
X040982Y008426D01*
X041005Y008455D01*
X041031Y008481D01*
X041060Y008504D01*
X041091Y008525D01*
X041124Y008541D01*
X041159Y008555D01*
X041194Y008564D01*
X041231Y008570D01*
X041268Y008572D01*
X041305Y008570D01*
X041342Y008564D01*
X041377Y008555D01*
X041412Y008541D01*
X041445Y008525D01*
X041476Y008504D01*
X041505Y008481D01*
X041531Y008455D01*
X041554Y008426D01*
X041575Y008395D01*
X041591Y008362D01*
X041605Y008327D01*
X041614Y008292D01*
X041620Y008255D01*
X041622Y008218D01*
X041620Y008181D01*
X041614Y008144D01*
X041605Y008109D01*
X041591Y008074D01*
X041575Y008041D01*
X041554Y008010D01*
X041531Y007981D01*
X041505Y007955D01*
X041476Y007932D01*
X041445Y007911D01*
X041412Y007895D01*
X041377Y007881D01*
X041342Y007872D01*
X041305Y007866D01*
X041268Y007864D01*
X041231Y007866D01*
X041194Y007872D01*
X041159Y007881D01*
X041124Y007895D01*
X041091Y007911D01*
X041060Y007932D01*
X041031Y007955D01*
X041005Y007981D01*
X040982Y008010D01*
X040961Y008041D01*
X040945Y008074D01*
X040931Y008109D01*
X040922Y008144D01*
X040916Y008181D01*
X040914Y008218D01*
X040916Y008255D01*
X040922Y008292D01*
X040931Y008327D01*
X040945Y008362D01*
X040961Y008395D01*
X040982Y008426D01*
X041005Y008455D01*
X041031Y008481D01*
X041060Y008504D01*
X041091Y008525D01*
X041124Y008541D01*
X041159Y008555D01*
X041194Y008564D01*
X041231Y008570D01*
X041268Y008572D01*
X041305Y008570D01*
X041342Y008564D01*
X041377Y008555D01*
X041412Y008541D01*
X041445Y008525D01*
X041476Y008504D01*
X041505Y008481D01*
X041531Y008455D01*
X041554Y008426D01*
X041575Y008395D01*
X041591Y008362D01*
X041605Y008327D01*
X041614Y008292D01*
X041620Y008255D01*
X041622Y008218D01*
X041620Y008181D01*
X041614Y008144D01*
X041605Y008109D01*
X041591Y008074D01*
X041575Y008041D01*
X041554Y008010D01*
X041531Y007981D01*
X041505Y007955D01*
X041476Y007932D01*
X041445Y007911D01*
X041412Y007895D01*
X041377Y007881D01*
X041342Y007872D01*
X041305Y007866D01*
X041268Y007864D01*
X041231Y007866D01*
X041194Y007872D01*
X041159Y007881D01*
X041124Y007895D01*
X041091Y007911D01*
X041060Y007932D01*
X041031Y007955D01*
X041005Y007981D01*
X040982Y008010D01*
X040961Y008041D01*
X040945Y008074D01*
X040931Y008109D01*
X040922Y008144D01*
X040916Y008181D01*
X040914Y008218D01*
X040914Y005069D02*
X040916Y005106D01*
X040922Y005143D01*
X040931Y005178D01*
X040945Y005213D01*
X040961Y005246D01*
X040982Y005277D01*
X041005Y005306D01*
X041031Y005332D01*
X041060Y005355D01*
X041091Y005376D01*
X041124Y005392D01*
X041159Y005406D01*
X041194Y005415D01*
X041231Y005421D01*
X041268Y005423D01*
X041305Y005421D01*
X041342Y005415D01*
X041377Y005406D01*
X041412Y005392D01*
X041445Y005376D01*
X041476Y005355D01*
X041505Y005332D01*
X041531Y005306D01*
X041554Y005277D01*
X041575Y005246D01*
X041591Y005213D01*
X041605Y005178D01*
X041614Y005143D01*
X041620Y005106D01*
X041622Y005069D01*
X041620Y005032D01*
X041614Y004995D01*
X041605Y004960D01*
X041591Y004925D01*
X041575Y004892D01*
X041554Y004861D01*
X041531Y004832D01*
X041505Y004806D01*
X041476Y004783D01*
X041445Y004762D01*
X041412Y004746D01*
X041377Y004732D01*
X041342Y004723D01*
X041305Y004717D01*
X041268Y004715D01*
X041231Y004717D01*
X041194Y004723D01*
X041159Y004732D01*
X041124Y004746D01*
X041091Y004762D01*
X041060Y004783D01*
X041031Y004806D01*
X041005Y004832D01*
X040982Y004861D01*
X040961Y004892D01*
X040945Y004925D01*
X040931Y004960D01*
X040922Y004995D01*
X040916Y005032D01*
X040914Y005069D01*
X040916Y005106D01*
X040922Y005143D01*
X040931Y005178D01*
X040945Y005213D01*
X040961Y005246D01*
X040982Y005277D01*
X041005Y005306D01*
X041031Y005332D01*
X041060Y005355D01*
X041091Y005376D01*
X041124Y005392D01*
X041159Y005406D01*
X041194Y005415D01*
X041231Y005421D01*
X041268Y005423D01*
X041305Y005421D01*
X041342Y005415D01*
X041377Y005406D01*
X041412Y005392D01*
X041445Y005376D01*
X041476Y005355D01*
X041505Y005332D01*
X041531Y005306D01*
X041554Y005277D01*
X041575Y005246D01*
X041591Y005213D01*
X041605Y005178D01*
X041614Y005143D01*
X041620Y005106D01*
X041622Y005069D01*
X041620Y005032D01*
X041614Y004995D01*
X041605Y004960D01*
X041591Y004925D01*
X041575Y004892D01*
X041554Y004861D01*
X041531Y004832D01*
X041505Y004806D01*
X041476Y004783D01*
X041445Y004762D01*
X041412Y004746D01*
X041377Y004732D01*
X041342Y004723D01*
X041305Y004717D01*
X041268Y004715D01*
X041231Y004717D01*
X041194Y004723D01*
X041159Y004732D01*
X041124Y004746D01*
X041091Y004762D01*
X041060Y004783D01*
X041031Y004806D01*
X041005Y004832D01*
X040982Y004861D01*
X040961Y004892D01*
X040945Y004925D01*
X040931Y004960D01*
X040922Y004995D01*
X040916Y005032D01*
X040914Y005069D01*
X006977Y004429D02*
X006979Y004466D01*
X006985Y004503D01*
X006994Y004538D01*
X007008Y004573D01*
X007024Y004606D01*
X007045Y004637D01*
X007068Y004666D01*
X007094Y004692D01*
X007123Y004715D01*
X007154Y004736D01*
X007187Y004752D01*
X007222Y004766D01*
X007257Y004775D01*
X007294Y004781D01*
X007331Y004783D01*
X007368Y004781D01*
X007405Y004775D01*
X007440Y004766D01*
X007475Y004752D01*
X007508Y004736D01*
X007539Y004715D01*
X007568Y004692D01*
X007594Y004666D01*
X007617Y004637D01*
X007638Y004606D01*
X007654Y004573D01*
X007668Y004538D01*
X007677Y004503D01*
X007683Y004466D01*
X007685Y004429D01*
X007683Y004392D01*
X007677Y004355D01*
X007668Y004320D01*
X007654Y004285D01*
X007638Y004252D01*
X007617Y004221D01*
X007594Y004192D01*
X007568Y004166D01*
X007539Y004143D01*
X007508Y004122D01*
X007475Y004106D01*
X007440Y004092D01*
X007405Y004083D01*
X007368Y004077D01*
X007331Y004075D01*
X007294Y004077D01*
X007257Y004083D01*
X007222Y004092D01*
X007187Y004106D01*
X007154Y004122D01*
X007123Y004143D01*
X007094Y004166D01*
X007068Y004192D01*
X007045Y004221D01*
X007024Y004252D01*
X007008Y004285D01*
X006994Y004320D01*
X006985Y004355D01*
X006979Y004392D01*
X006977Y004429D01*
X006979Y004466D01*
X006985Y004503D01*
X006994Y004538D01*
X007008Y004573D01*
X007024Y004606D01*
X007045Y004637D01*
X007068Y004666D01*
X007094Y004692D01*
X007123Y004715D01*
X007154Y004736D01*
X007187Y004752D01*
X007222Y004766D01*
X007257Y004775D01*
X007294Y004781D01*
X007331Y004783D01*
X007368Y004781D01*
X007405Y004775D01*
X007440Y004766D01*
X007475Y004752D01*
X007508Y004736D01*
X007539Y004715D01*
X007568Y004692D01*
X007594Y004666D01*
X007617Y004637D01*
X007638Y004606D01*
X007654Y004573D01*
X007668Y004538D01*
X007677Y004503D01*
X007683Y004466D01*
X007685Y004429D01*
X007683Y004392D01*
X007677Y004355D01*
X007668Y004320D01*
X007654Y004285D01*
X007638Y004252D01*
X007617Y004221D01*
X007594Y004192D01*
X007568Y004166D01*
X007539Y004143D01*
X007508Y004122D01*
X007475Y004106D01*
X007440Y004092D01*
X007405Y004083D01*
X007368Y004077D01*
X007331Y004075D01*
X007294Y004077D01*
X007257Y004083D01*
X007222Y004092D01*
X007187Y004106D01*
X007154Y004122D01*
X007123Y004143D01*
X007094Y004166D01*
X007068Y004192D01*
X007045Y004221D01*
X007024Y004252D01*
X007008Y004285D01*
X006994Y004320D01*
X006985Y004355D01*
X006979Y004392D01*
X006977Y004429D01*
X004221Y004429D02*
X004223Y004466D01*
X004229Y004503D01*
X004238Y004538D01*
X004252Y004573D01*
X004268Y004606D01*
X004289Y004637D01*
X004312Y004666D01*
X004338Y004692D01*
X004367Y004715D01*
X004398Y004736D01*
X004431Y004752D01*
X004466Y004766D01*
X004501Y004775D01*
X004538Y004781D01*
X004575Y004783D01*
X004612Y004781D01*
X004649Y004775D01*
X004684Y004766D01*
X004719Y004752D01*
X004752Y004736D01*
X004783Y004715D01*
X004812Y004692D01*
X004838Y004666D01*
X004861Y004637D01*
X004882Y004606D01*
X004898Y004573D01*
X004912Y004538D01*
X004921Y004503D01*
X004927Y004466D01*
X004929Y004429D01*
X004927Y004392D01*
X004921Y004355D01*
X004912Y004320D01*
X004898Y004285D01*
X004882Y004252D01*
X004861Y004221D01*
X004838Y004192D01*
X004812Y004166D01*
X004783Y004143D01*
X004752Y004122D01*
X004719Y004106D01*
X004684Y004092D01*
X004649Y004083D01*
X004612Y004077D01*
X004575Y004075D01*
X004538Y004077D01*
X004501Y004083D01*
X004466Y004092D01*
X004431Y004106D01*
X004398Y004122D01*
X004367Y004143D01*
X004338Y004166D01*
X004312Y004192D01*
X004289Y004221D01*
X004268Y004252D01*
X004252Y004285D01*
X004238Y004320D01*
X004229Y004355D01*
X004223Y004392D01*
X004221Y004429D01*
X004223Y004466D01*
X004229Y004503D01*
X004238Y004538D01*
X004252Y004573D01*
X004268Y004606D01*
X004289Y004637D01*
X004312Y004666D01*
X004338Y004692D01*
X004367Y004715D01*
X004398Y004736D01*
X004431Y004752D01*
X004466Y004766D01*
X004501Y004775D01*
X004538Y004781D01*
X004575Y004783D01*
X004612Y004781D01*
X004649Y004775D01*
X004684Y004766D01*
X004719Y004752D01*
X004752Y004736D01*
X004783Y004715D01*
X004812Y004692D01*
X004838Y004666D01*
X004861Y004637D01*
X004882Y004606D01*
X004898Y004573D01*
X004912Y004538D01*
X004921Y004503D01*
X004927Y004466D01*
X004929Y004429D01*
X004927Y004392D01*
X004921Y004355D01*
X004912Y004320D01*
X004898Y004285D01*
X004882Y004252D01*
X004861Y004221D01*
X004838Y004192D01*
X004812Y004166D01*
X004783Y004143D01*
X004752Y004122D01*
X004719Y004106D01*
X004684Y004092D01*
X004649Y004083D01*
X004612Y004077D01*
X004575Y004075D01*
X004538Y004077D01*
X004501Y004083D01*
X004466Y004092D01*
X004431Y004106D01*
X004398Y004122D01*
X004367Y004143D01*
X004338Y004166D01*
X004312Y004192D01*
X004289Y004221D01*
X004268Y004252D01*
X004252Y004285D01*
X004238Y004320D01*
X004229Y004355D01*
X004223Y004392D01*
X004221Y004429D01*
X004221Y005905D02*
X004223Y005942D01*
X004229Y005979D01*
X004238Y006014D01*
X004252Y006049D01*
X004268Y006082D01*
X004289Y006113D01*
X004312Y006142D01*
X004338Y006168D01*
X004367Y006191D01*
X004398Y006212D01*
X004431Y006228D01*
X004466Y006242D01*
X004501Y006251D01*
X004538Y006257D01*
X004575Y006259D01*
X004612Y006257D01*
X004649Y006251D01*
X004684Y006242D01*
X004719Y006228D01*
X004752Y006212D01*
X004783Y006191D01*
X004812Y006168D01*
X004838Y006142D01*
X004861Y006113D01*
X004882Y006082D01*
X004898Y006049D01*
X004912Y006014D01*
X004921Y005979D01*
X004927Y005942D01*
X004929Y005905D01*
X004927Y005868D01*
X004921Y005831D01*
X004912Y005796D01*
X004898Y005761D01*
X004882Y005728D01*
X004861Y005697D01*
X004838Y005668D01*
X004812Y005642D01*
X004783Y005619D01*
X004752Y005598D01*
X004719Y005582D01*
X004684Y005568D01*
X004649Y005559D01*
X004612Y005553D01*
X004575Y005551D01*
X004538Y005553D01*
X004501Y005559D01*
X004466Y005568D01*
X004431Y005582D01*
X004398Y005598D01*
X004367Y005619D01*
X004338Y005642D01*
X004312Y005668D01*
X004289Y005697D01*
X004268Y005728D01*
X004252Y005761D01*
X004238Y005796D01*
X004229Y005831D01*
X004223Y005868D01*
X004221Y005905D01*
X004223Y005942D01*
X004229Y005979D01*
X004238Y006014D01*
X004252Y006049D01*
X004268Y006082D01*
X004289Y006113D01*
X004312Y006142D01*
X004338Y006168D01*
X004367Y006191D01*
X004398Y006212D01*
X004431Y006228D01*
X004466Y006242D01*
X004501Y006251D01*
X004538Y006257D01*
X004575Y006259D01*
X004612Y006257D01*
X004649Y006251D01*
X004684Y006242D01*
X004719Y006228D01*
X004752Y006212D01*
X004783Y006191D01*
X004812Y006168D01*
X004838Y006142D01*
X004861Y006113D01*
X004882Y006082D01*
X004898Y006049D01*
X004912Y006014D01*
X004921Y005979D01*
X004927Y005942D01*
X004929Y005905D01*
X004927Y005868D01*
X004921Y005831D01*
X004912Y005796D01*
X004898Y005761D01*
X004882Y005728D01*
X004861Y005697D01*
X004838Y005668D01*
X004812Y005642D01*
X004783Y005619D01*
X004752Y005598D01*
X004719Y005582D01*
X004684Y005568D01*
X004649Y005559D01*
X004612Y005553D01*
X004575Y005551D01*
X004538Y005553D01*
X004501Y005559D01*
X004466Y005568D01*
X004431Y005582D01*
X004398Y005598D01*
X004367Y005619D01*
X004338Y005642D01*
X004312Y005668D01*
X004289Y005697D01*
X004268Y005728D01*
X004252Y005761D01*
X004238Y005796D01*
X004229Y005831D01*
X004223Y005868D01*
X004221Y005905D01*
X004221Y007381D02*
X004223Y007418D01*
X004229Y007455D01*
X004238Y007490D01*
X004252Y007525D01*
X004268Y007558D01*
X004289Y007589D01*
X004312Y007618D01*
X004338Y007644D01*
X004367Y007667D01*
X004398Y007688D01*
X004431Y007704D01*
X004466Y007718D01*
X004501Y007727D01*
X004538Y007733D01*
X004575Y007735D01*
X004612Y007733D01*
X004649Y007727D01*
X004684Y007718D01*
X004719Y007704D01*
X004752Y007688D01*
X004783Y007667D01*
X004812Y007644D01*
X004838Y007618D01*
X004861Y007589D01*
X004882Y007558D01*
X004898Y007525D01*
X004912Y007490D01*
X004921Y007455D01*
X004927Y007418D01*
X004929Y007381D01*
X004927Y007344D01*
X004921Y007307D01*
X004912Y007272D01*
X004898Y007237D01*
X004882Y007204D01*
X004861Y007173D01*
X004838Y007144D01*
X004812Y007118D01*
X004783Y007095D01*
X004752Y007074D01*
X004719Y007058D01*
X004684Y007044D01*
X004649Y007035D01*
X004612Y007029D01*
X004575Y007027D01*
X004538Y007029D01*
X004501Y007035D01*
X004466Y007044D01*
X004431Y007058D01*
X004398Y007074D01*
X004367Y007095D01*
X004338Y007118D01*
X004312Y007144D01*
X004289Y007173D01*
X004268Y007204D01*
X004252Y007237D01*
X004238Y007272D01*
X004229Y007307D01*
X004223Y007344D01*
X004221Y007381D01*
X004223Y007418D01*
X004229Y007455D01*
X004238Y007490D01*
X004252Y007525D01*
X004268Y007558D01*
X004289Y007589D01*
X004312Y007618D01*
X004338Y007644D01*
X004367Y007667D01*
X004398Y007688D01*
X004431Y007704D01*
X004466Y007718D01*
X004501Y007727D01*
X004538Y007733D01*
X004575Y007735D01*
X004612Y007733D01*
X004649Y007727D01*
X004684Y007718D01*
X004719Y007704D01*
X004752Y007688D01*
X004783Y007667D01*
X004812Y007644D01*
X004838Y007618D01*
X004861Y007589D01*
X004882Y007558D01*
X004898Y007525D01*
X004912Y007490D01*
X004921Y007455D01*
X004927Y007418D01*
X004929Y007381D01*
X004927Y007344D01*
X004921Y007307D01*
X004912Y007272D01*
X004898Y007237D01*
X004882Y007204D01*
X004861Y007173D01*
X004838Y007144D01*
X004812Y007118D01*
X004783Y007095D01*
X004752Y007074D01*
X004719Y007058D01*
X004684Y007044D01*
X004649Y007035D01*
X004612Y007029D01*
X004575Y007027D01*
X004538Y007029D01*
X004501Y007035D01*
X004466Y007044D01*
X004431Y007058D01*
X004398Y007074D01*
X004367Y007095D01*
X004338Y007118D01*
X004312Y007144D01*
X004289Y007173D01*
X004268Y007204D01*
X004252Y007237D01*
X004238Y007272D01*
X004229Y007307D01*
X004223Y007344D01*
X004221Y007381D01*
X004221Y008858D02*
X004223Y008895D01*
X004229Y008932D01*
X004238Y008967D01*
X004252Y009002D01*
X004268Y009035D01*
X004289Y009066D01*
X004312Y009095D01*
X004338Y009121D01*
X004367Y009144D01*
X004398Y009165D01*
X004431Y009181D01*
X004466Y009195D01*
X004501Y009204D01*
X004538Y009210D01*
X004575Y009212D01*
X004612Y009210D01*
X004649Y009204D01*
X004684Y009195D01*
X004719Y009181D01*
X004752Y009165D01*
X004783Y009144D01*
X004812Y009121D01*
X004838Y009095D01*
X004861Y009066D01*
X004882Y009035D01*
X004898Y009002D01*
X004912Y008967D01*
X004921Y008932D01*
X004927Y008895D01*
X004929Y008858D01*
X004927Y008821D01*
X004921Y008784D01*
X004912Y008749D01*
X004898Y008714D01*
X004882Y008681D01*
X004861Y008650D01*
X004838Y008621D01*
X004812Y008595D01*
X004783Y008572D01*
X004752Y008551D01*
X004719Y008535D01*
X004684Y008521D01*
X004649Y008512D01*
X004612Y008506D01*
X004575Y008504D01*
X004538Y008506D01*
X004501Y008512D01*
X004466Y008521D01*
X004431Y008535D01*
X004398Y008551D01*
X004367Y008572D01*
X004338Y008595D01*
X004312Y008621D01*
X004289Y008650D01*
X004268Y008681D01*
X004252Y008714D01*
X004238Y008749D01*
X004229Y008784D01*
X004223Y008821D01*
X004221Y008858D01*
X004223Y008895D01*
X004229Y008932D01*
X004238Y008967D01*
X004252Y009002D01*
X004268Y009035D01*
X004289Y009066D01*
X004312Y009095D01*
X004338Y009121D01*
X004367Y009144D01*
X004398Y009165D01*
X004431Y009181D01*
X004466Y009195D01*
X004501Y009204D01*
X004538Y009210D01*
X004575Y009212D01*
X004612Y009210D01*
X004649Y009204D01*
X004684Y009195D01*
X004719Y009181D01*
X004752Y009165D01*
X004783Y009144D01*
X004812Y009121D01*
X004838Y009095D01*
X004861Y009066D01*
X004882Y009035D01*
X004898Y009002D01*
X004912Y008967D01*
X004921Y008932D01*
X004927Y008895D01*
X004929Y008858D01*
X004927Y008821D01*
X004921Y008784D01*
X004912Y008749D01*
X004898Y008714D01*
X004882Y008681D01*
X004861Y008650D01*
X004838Y008621D01*
X004812Y008595D01*
X004783Y008572D01*
X004752Y008551D01*
X004719Y008535D01*
X004684Y008521D01*
X004649Y008512D01*
X004612Y008506D01*
X004575Y008504D01*
X004538Y008506D01*
X004501Y008512D01*
X004466Y008521D01*
X004431Y008535D01*
X004398Y008551D01*
X004367Y008572D01*
X004338Y008595D01*
X004312Y008621D01*
X004289Y008650D01*
X004268Y008681D01*
X004252Y008714D01*
X004238Y008749D01*
X004229Y008784D01*
X004223Y008821D01*
X004221Y008858D01*
X006977Y008858D02*
X006979Y008895D01*
X006985Y008932D01*
X006994Y008967D01*
X007008Y009002D01*
X007024Y009035D01*
X007045Y009066D01*
X007068Y009095D01*
X007094Y009121D01*
X007123Y009144D01*
X007154Y009165D01*
X007187Y009181D01*
X007222Y009195D01*
X007257Y009204D01*
X007294Y009210D01*
X007331Y009212D01*
X007368Y009210D01*
X007405Y009204D01*
X007440Y009195D01*
X007475Y009181D01*
X007508Y009165D01*
X007539Y009144D01*
X007568Y009121D01*
X007594Y009095D01*
X007617Y009066D01*
X007638Y009035D01*
X007654Y009002D01*
X007668Y008967D01*
X007677Y008932D01*
X007683Y008895D01*
X007685Y008858D01*
X007683Y008821D01*
X007677Y008784D01*
X007668Y008749D01*
X007654Y008714D01*
X007638Y008681D01*
X007617Y008650D01*
X007594Y008621D01*
X007568Y008595D01*
X007539Y008572D01*
X007508Y008551D01*
X007475Y008535D01*
X007440Y008521D01*
X007405Y008512D01*
X007368Y008506D01*
X007331Y008504D01*
X007294Y008506D01*
X007257Y008512D01*
X007222Y008521D01*
X007187Y008535D01*
X007154Y008551D01*
X007123Y008572D01*
X007094Y008595D01*
X007068Y008621D01*
X007045Y008650D01*
X007024Y008681D01*
X007008Y008714D01*
X006994Y008749D01*
X006985Y008784D01*
X006979Y008821D01*
X006977Y008858D01*
X006979Y008895D01*
X006985Y008932D01*
X006994Y008967D01*
X007008Y009002D01*
X007024Y009035D01*
X007045Y009066D01*
X007068Y009095D01*
X007094Y009121D01*
X007123Y009144D01*
X007154Y009165D01*
X007187Y009181D01*
X007222Y009195D01*
X007257Y009204D01*
X007294Y009210D01*
X007331Y009212D01*
X007368Y009210D01*
X007405Y009204D01*
X007440Y009195D01*
X007475Y009181D01*
X007508Y009165D01*
X007539Y009144D01*
X007568Y009121D01*
X007594Y009095D01*
X007617Y009066D01*
X007638Y009035D01*
X007654Y009002D01*
X007668Y008967D01*
X007677Y008932D01*
X007683Y008895D01*
X007685Y008858D01*
X007683Y008821D01*
X007677Y008784D01*
X007668Y008749D01*
X007654Y008714D01*
X007638Y008681D01*
X007617Y008650D01*
X007594Y008621D01*
X007568Y008595D01*
X007539Y008572D01*
X007508Y008551D01*
X007475Y008535D01*
X007440Y008521D01*
X007405Y008512D01*
X007368Y008506D01*
X007331Y008504D01*
X007294Y008506D01*
X007257Y008512D01*
X007222Y008521D01*
X007187Y008535D01*
X007154Y008551D01*
X007123Y008572D01*
X007094Y008595D01*
X007068Y008621D01*
X007045Y008650D01*
X007024Y008681D01*
X007008Y008714D01*
X006994Y008749D01*
X006985Y008784D01*
X006979Y008821D01*
X006977Y008858D01*
X006979Y008895D01*
X006985Y008932D01*
X006994Y008967D01*
X007008Y009002D01*
X007024Y009035D01*
X007045Y009066D01*
X007068Y009095D01*
X007094Y009121D01*
X007123Y009144D01*
X007154Y009165D01*
X007187Y009181D01*
X007222Y009195D01*
X007257Y009204D01*
X007294Y009210D01*
X007331Y009212D01*
X007368Y009210D01*
X007405Y009204D01*
X007440Y009195D01*
X007475Y009181D01*
X007508Y009165D01*
X007539Y009144D01*
X007568Y009121D01*
X007594Y009095D01*
X007617Y009066D01*
X007638Y009035D01*
X007654Y009002D01*
X007668Y008967D01*
X007677Y008932D01*
X007683Y008895D01*
X007685Y008858D01*
X007683Y008821D01*
X007677Y008784D01*
X007668Y008749D01*
X007654Y008714D01*
X007638Y008681D01*
X007617Y008650D01*
X007594Y008621D01*
X007568Y008595D01*
X007539Y008572D01*
X007508Y008551D01*
X007475Y008535D01*
X007440Y008521D01*
X007405Y008512D01*
X007368Y008506D01*
X007331Y008504D01*
X007294Y008506D01*
X007257Y008512D01*
X007222Y008521D01*
X007187Y008535D01*
X007154Y008551D01*
X007123Y008572D01*
X007094Y008595D01*
X007068Y008621D01*
X007045Y008650D01*
X007024Y008681D01*
X007008Y008714D01*
X006994Y008749D01*
X006985Y008784D01*
X006979Y008821D01*
X006977Y008858D01*
X006979Y008895D01*
X006985Y008932D01*
X006994Y008967D01*
X007008Y009002D01*
X007024Y009035D01*
X007045Y009066D01*
X007068Y009095D01*
X007094Y009121D01*
X007123Y009144D01*
X007154Y009165D01*
X007187Y009181D01*
X007222Y009195D01*
X007257Y009204D01*
X007294Y009210D01*
X007331Y009212D01*
X007368Y009210D01*
X007405Y009204D01*
X007440Y009195D01*
X007475Y009181D01*
X007508Y009165D01*
X007539Y009144D01*
X007568Y009121D01*
X007594Y009095D01*
X007617Y009066D01*
X007638Y009035D01*
X007654Y009002D01*
X007668Y008967D01*
X007677Y008932D01*
X007683Y008895D01*
X007685Y008858D01*
X007683Y008821D01*
X007677Y008784D01*
X007668Y008749D01*
X007654Y008714D01*
X007638Y008681D01*
X007617Y008650D01*
X007594Y008621D01*
X007568Y008595D01*
X007539Y008572D01*
X007508Y008551D01*
X007475Y008535D01*
X007440Y008521D01*
X007405Y008512D01*
X007368Y008506D01*
X007331Y008504D01*
X007294Y008506D01*
X007257Y008512D01*
X007222Y008521D01*
X007187Y008535D01*
X007154Y008551D01*
X007123Y008572D01*
X007094Y008595D01*
X007068Y008621D01*
X007045Y008650D01*
X007024Y008681D01*
X007008Y008714D01*
X006994Y008749D01*
X006985Y008784D01*
X006979Y008821D01*
X006977Y008858D01*
X006977Y012429D02*
X006979Y012466D01*
X006985Y012503D01*
X006994Y012538D01*
X007008Y012573D01*
X007024Y012606D01*
X007045Y012637D01*
X007068Y012666D01*
X007094Y012692D01*
X007123Y012715D01*
X007154Y012736D01*
X007187Y012752D01*
X007222Y012766D01*
X007257Y012775D01*
X007294Y012781D01*
X007331Y012783D01*
X007368Y012781D01*
X007405Y012775D01*
X007440Y012766D01*
X007475Y012752D01*
X007508Y012736D01*
X007539Y012715D01*
X007568Y012692D01*
X007594Y012666D01*
X007617Y012637D01*
X007638Y012606D01*
X007654Y012573D01*
X007668Y012538D01*
X007677Y012503D01*
X007683Y012466D01*
X007685Y012429D01*
X007683Y012392D01*
X007677Y012355D01*
X007668Y012320D01*
X007654Y012285D01*
X007638Y012252D01*
X007617Y012221D01*
X007594Y012192D01*
X007568Y012166D01*
X007539Y012143D01*
X007508Y012122D01*
X007475Y012106D01*
X007440Y012092D01*
X007405Y012083D01*
X007368Y012077D01*
X007331Y012075D01*
X007294Y012077D01*
X007257Y012083D01*
X007222Y012092D01*
X007187Y012106D01*
X007154Y012122D01*
X007123Y012143D01*
X007094Y012166D01*
X007068Y012192D01*
X007045Y012221D01*
X007024Y012252D01*
X007008Y012285D01*
X006994Y012320D01*
X006985Y012355D01*
X006979Y012392D01*
X006977Y012429D01*
X006979Y012466D01*
X006985Y012503D01*
X006994Y012538D01*
X007008Y012573D01*
X007024Y012606D01*
X007045Y012637D01*
X007068Y012666D01*
X007094Y012692D01*
X007123Y012715D01*
X007154Y012736D01*
X007187Y012752D01*
X007222Y012766D01*
X007257Y012775D01*
X007294Y012781D01*
X007331Y012783D01*
X007368Y012781D01*
X007405Y012775D01*
X007440Y012766D01*
X007475Y012752D01*
X007508Y012736D01*
X007539Y012715D01*
X007568Y012692D01*
X007594Y012666D01*
X007617Y012637D01*
X007638Y012606D01*
X007654Y012573D01*
X007668Y012538D01*
X007677Y012503D01*
X007683Y012466D01*
X007685Y012429D01*
X007683Y012392D01*
X007677Y012355D01*
X007668Y012320D01*
X007654Y012285D01*
X007638Y012252D01*
X007617Y012221D01*
X007594Y012192D01*
X007568Y012166D01*
X007539Y012143D01*
X007508Y012122D01*
X007475Y012106D01*
X007440Y012092D01*
X007405Y012083D01*
X007368Y012077D01*
X007331Y012075D01*
X007294Y012077D01*
X007257Y012083D01*
X007222Y012092D01*
X007187Y012106D01*
X007154Y012122D01*
X007123Y012143D01*
X007094Y012166D01*
X007068Y012192D01*
X007045Y012221D01*
X007024Y012252D01*
X007008Y012285D01*
X006994Y012320D01*
X006985Y012355D01*
X006979Y012392D01*
X006977Y012429D01*
X004221Y012429D02*
X004223Y012466D01*
X004229Y012503D01*
X004238Y012538D01*
X004252Y012573D01*
X004268Y012606D01*
X004289Y012637D01*
X004312Y012666D01*
X004338Y012692D01*
X004367Y012715D01*
X004398Y012736D01*
X004431Y012752D01*
X004466Y012766D01*
X004501Y012775D01*
X004538Y012781D01*
X004575Y012783D01*
X004612Y012781D01*
X004649Y012775D01*
X004684Y012766D01*
X004719Y012752D01*
X004752Y012736D01*
X004783Y012715D01*
X004812Y012692D01*
X004838Y012666D01*
X004861Y012637D01*
X004882Y012606D01*
X004898Y012573D01*
X004912Y012538D01*
X004921Y012503D01*
X004927Y012466D01*
X004929Y012429D01*
X004927Y012392D01*
X004921Y012355D01*
X004912Y012320D01*
X004898Y012285D01*
X004882Y012252D01*
X004861Y012221D01*
X004838Y012192D01*
X004812Y012166D01*
X004783Y012143D01*
X004752Y012122D01*
X004719Y012106D01*
X004684Y012092D01*
X004649Y012083D01*
X004612Y012077D01*
X004575Y012075D01*
X004538Y012077D01*
X004501Y012083D01*
X004466Y012092D01*
X004431Y012106D01*
X004398Y012122D01*
X004367Y012143D01*
X004338Y012166D01*
X004312Y012192D01*
X004289Y012221D01*
X004268Y012252D01*
X004252Y012285D01*
X004238Y012320D01*
X004229Y012355D01*
X004223Y012392D01*
X004221Y012429D01*
X004223Y012466D01*
X004229Y012503D01*
X004238Y012538D01*
X004252Y012573D01*
X004268Y012606D01*
X004289Y012637D01*
X004312Y012666D01*
X004338Y012692D01*
X004367Y012715D01*
X004398Y012736D01*
X004431Y012752D01*
X004466Y012766D01*
X004501Y012775D01*
X004538Y012781D01*
X004575Y012783D01*
X004612Y012781D01*
X004649Y012775D01*
X004684Y012766D01*
X004719Y012752D01*
X004752Y012736D01*
X004783Y012715D01*
X004812Y012692D01*
X004838Y012666D01*
X004861Y012637D01*
X004882Y012606D01*
X004898Y012573D01*
X004912Y012538D01*
X004921Y012503D01*
X004927Y012466D01*
X004929Y012429D01*
X004927Y012392D01*
X004921Y012355D01*
X004912Y012320D01*
X004898Y012285D01*
X004882Y012252D01*
X004861Y012221D01*
X004838Y012192D01*
X004812Y012166D01*
X004783Y012143D01*
X004752Y012122D01*
X004719Y012106D01*
X004684Y012092D01*
X004649Y012083D01*
X004612Y012077D01*
X004575Y012075D01*
X004538Y012077D01*
X004501Y012083D01*
X004466Y012092D01*
X004431Y012106D01*
X004398Y012122D01*
X004367Y012143D01*
X004338Y012166D01*
X004312Y012192D01*
X004289Y012221D01*
X004268Y012252D01*
X004252Y012285D01*
X004238Y012320D01*
X004229Y012355D01*
X004223Y012392D01*
X004221Y012429D01*
X004221Y013905D02*
X004223Y013942D01*
X004229Y013979D01*
X004238Y014014D01*
X004252Y014049D01*
X004268Y014082D01*
X004289Y014113D01*
X004312Y014142D01*
X004338Y014168D01*
X004367Y014191D01*
X004398Y014212D01*
X004431Y014228D01*
X004466Y014242D01*
X004501Y014251D01*
X004538Y014257D01*
X004575Y014259D01*
X004612Y014257D01*
X004649Y014251D01*
X004684Y014242D01*
X004719Y014228D01*
X004752Y014212D01*
X004783Y014191D01*
X004812Y014168D01*
X004838Y014142D01*
X004861Y014113D01*
X004882Y014082D01*
X004898Y014049D01*
X004912Y014014D01*
X004921Y013979D01*
X004927Y013942D01*
X004929Y013905D01*
X004927Y013868D01*
X004921Y013831D01*
X004912Y013796D01*
X004898Y013761D01*
X004882Y013728D01*
X004861Y013697D01*
X004838Y013668D01*
X004812Y013642D01*
X004783Y013619D01*
X004752Y013598D01*
X004719Y013582D01*
X004684Y013568D01*
X004649Y013559D01*
X004612Y013553D01*
X004575Y013551D01*
X004538Y013553D01*
X004501Y013559D01*
X004466Y013568D01*
X004431Y013582D01*
X004398Y013598D01*
X004367Y013619D01*
X004338Y013642D01*
X004312Y013668D01*
X004289Y013697D01*
X004268Y013728D01*
X004252Y013761D01*
X004238Y013796D01*
X004229Y013831D01*
X004223Y013868D01*
X004221Y013905D01*
X004223Y013942D01*
X004229Y013979D01*
X004238Y014014D01*
X004252Y014049D01*
X004268Y014082D01*
X004289Y014113D01*
X004312Y014142D01*
X004338Y014168D01*
X004367Y014191D01*
X004398Y014212D01*
X004431Y014228D01*
X004466Y014242D01*
X004501Y014251D01*
X004538Y014257D01*
X004575Y014259D01*
X004612Y014257D01*
X004649Y014251D01*
X004684Y014242D01*
X004719Y014228D01*
X004752Y014212D01*
X004783Y014191D01*
X004812Y014168D01*
X004838Y014142D01*
X004861Y014113D01*
X004882Y014082D01*
X004898Y014049D01*
X004912Y014014D01*
X004921Y013979D01*
X004927Y013942D01*
X004929Y013905D01*
X004927Y013868D01*
X004921Y013831D01*
X004912Y013796D01*
X004898Y013761D01*
X004882Y013728D01*
X004861Y013697D01*
X004838Y013668D01*
X004812Y013642D01*
X004783Y013619D01*
X004752Y013598D01*
X004719Y013582D01*
X004684Y013568D01*
X004649Y013559D01*
X004612Y013553D01*
X004575Y013551D01*
X004538Y013553D01*
X004501Y013559D01*
X004466Y013568D01*
X004431Y013582D01*
X004398Y013598D01*
X004367Y013619D01*
X004338Y013642D01*
X004312Y013668D01*
X004289Y013697D01*
X004268Y013728D01*
X004252Y013761D01*
X004238Y013796D01*
X004229Y013831D01*
X004223Y013868D01*
X004221Y013905D01*
X004221Y015381D02*
X004223Y015418D01*
X004229Y015455D01*
X004238Y015490D01*
X004252Y015525D01*
X004268Y015558D01*
X004289Y015589D01*
X004312Y015618D01*
X004338Y015644D01*
X004367Y015667D01*
X004398Y015688D01*
X004431Y015704D01*
X004466Y015718D01*
X004501Y015727D01*
X004538Y015733D01*
X004575Y015735D01*
X004612Y015733D01*
X004649Y015727D01*
X004684Y015718D01*
X004719Y015704D01*
X004752Y015688D01*
X004783Y015667D01*
X004812Y015644D01*
X004838Y015618D01*
X004861Y015589D01*
X004882Y015558D01*
X004898Y015525D01*
X004912Y015490D01*
X004921Y015455D01*
X004927Y015418D01*
X004929Y015381D01*
X004927Y015344D01*
X004921Y015307D01*
X004912Y015272D01*
X004898Y015237D01*
X004882Y015204D01*
X004861Y015173D01*
X004838Y015144D01*
X004812Y015118D01*
X004783Y015095D01*
X004752Y015074D01*
X004719Y015058D01*
X004684Y015044D01*
X004649Y015035D01*
X004612Y015029D01*
X004575Y015027D01*
X004538Y015029D01*
X004501Y015035D01*
X004466Y015044D01*
X004431Y015058D01*
X004398Y015074D01*
X004367Y015095D01*
X004338Y015118D01*
X004312Y015144D01*
X004289Y015173D01*
X004268Y015204D01*
X004252Y015237D01*
X004238Y015272D01*
X004229Y015307D01*
X004223Y015344D01*
X004221Y015381D01*
X004223Y015418D01*
X004229Y015455D01*
X004238Y015490D01*
X004252Y015525D01*
X004268Y015558D01*
X004289Y015589D01*
X004312Y015618D01*
X004338Y015644D01*
X004367Y015667D01*
X004398Y015688D01*
X004431Y015704D01*
X004466Y015718D01*
X004501Y015727D01*
X004538Y015733D01*
X004575Y015735D01*
X004612Y015733D01*
X004649Y015727D01*
X004684Y015718D01*
X004719Y015704D01*
X004752Y015688D01*
X004783Y015667D01*
X004812Y015644D01*
X004838Y015618D01*
X004861Y015589D01*
X004882Y015558D01*
X004898Y015525D01*
X004912Y015490D01*
X004921Y015455D01*
X004927Y015418D01*
X004929Y015381D01*
X004927Y015344D01*
X004921Y015307D01*
X004912Y015272D01*
X004898Y015237D01*
X004882Y015204D01*
X004861Y015173D01*
X004838Y015144D01*
X004812Y015118D01*
X004783Y015095D01*
X004752Y015074D01*
X004719Y015058D01*
X004684Y015044D01*
X004649Y015035D01*
X004612Y015029D01*
X004575Y015027D01*
X004538Y015029D01*
X004501Y015035D01*
X004466Y015044D01*
X004431Y015058D01*
X004398Y015074D01*
X004367Y015095D01*
X004338Y015118D01*
X004312Y015144D01*
X004289Y015173D01*
X004268Y015204D01*
X004252Y015237D01*
X004238Y015272D01*
X004229Y015307D01*
X004223Y015344D01*
X004221Y015381D01*
X004221Y016858D02*
X004223Y016895D01*
X004229Y016932D01*
X004238Y016967D01*
X004252Y017002D01*
X004268Y017035D01*
X004289Y017066D01*
X004312Y017095D01*
X004338Y017121D01*
X004367Y017144D01*
X004398Y017165D01*
X004431Y017181D01*
X004466Y017195D01*
X004501Y017204D01*
X004538Y017210D01*
X004575Y017212D01*
X004612Y017210D01*
X004649Y017204D01*
X004684Y017195D01*
X004719Y017181D01*
X004752Y017165D01*
X004783Y017144D01*
X004812Y017121D01*
X004838Y017095D01*
X004861Y017066D01*
X004882Y017035D01*
X004898Y017002D01*
X004912Y016967D01*
X004921Y016932D01*
X004927Y016895D01*
X004929Y016858D01*
X004927Y016821D01*
X004921Y016784D01*
X004912Y016749D01*
X004898Y016714D01*
X004882Y016681D01*
X004861Y016650D01*
X004838Y016621D01*
X004812Y016595D01*
X004783Y016572D01*
X004752Y016551D01*
X004719Y016535D01*
X004684Y016521D01*
X004649Y016512D01*
X004612Y016506D01*
X004575Y016504D01*
X004538Y016506D01*
X004501Y016512D01*
X004466Y016521D01*
X004431Y016535D01*
X004398Y016551D01*
X004367Y016572D01*
X004338Y016595D01*
X004312Y016621D01*
X004289Y016650D01*
X004268Y016681D01*
X004252Y016714D01*
X004238Y016749D01*
X004229Y016784D01*
X004223Y016821D01*
X004221Y016858D01*
X004223Y016895D01*
X004229Y016932D01*
X004238Y016967D01*
X004252Y017002D01*
X004268Y017035D01*
X004289Y017066D01*
X004312Y017095D01*
X004338Y017121D01*
X004367Y017144D01*
X004398Y017165D01*
X004431Y017181D01*
X004466Y017195D01*
X004501Y017204D01*
X004538Y017210D01*
X004575Y017212D01*
X004612Y017210D01*
X004649Y017204D01*
X004684Y017195D01*
X004719Y017181D01*
X004752Y017165D01*
X004783Y017144D01*
X004812Y017121D01*
X004838Y017095D01*
X004861Y017066D01*
X004882Y017035D01*
X004898Y017002D01*
X004912Y016967D01*
X004921Y016932D01*
X004927Y016895D01*
X004929Y016858D01*
X004927Y016821D01*
X004921Y016784D01*
X004912Y016749D01*
X004898Y016714D01*
X004882Y016681D01*
X004861Y016650D01*
X004838Y016621D01*
X004812Y016595D01*
X004783Y016572D01*
X004752Y016551D01*
X004719Y016535D01*
X004684Y016521D01*
X004649Y016512D01*
X004612Y016506D01*
X004575Y016504D01*
X004538Y016506D01*
X004501Y016512D01*
X004466Y016521D01*
X004431Y016535D01*
X004398Y016551D01*
X004367Y016572D01*
X004338Y016595D01*
X004312Y016621D01*
X004289Y016650D01*
X004268Y016681D01*
X004252Y016714D01*
X004238Y016749D01*
X004229Y016784D01*
X004223Y016821D01*
X004221Y016858D01*
X006977Y016858D02*
X006979Y016895D01*
X006985Y016932D01*
X006994Y016967D01*
X007008Y017002D01*
X007024Y017035D01*
X007045Y017066D01*
X007068Y017095D01*
X007094Y017121D01*
X007123Y017144D01*
X007154Y017165D01*
X007187Y017181D01*
X007222Y017195D01*
X007257Y017204D01*
X007294Y017210D01*
X007331Y017212D01*
X007368Y017210D01*
X007405Y017204D01*
X007440Y017195D01*
X007475Y017181D01*
X007508Y017165D01*
X007539Y017144D01*
X007568Y017121D01*
X007594Y017095D01*
X007617Y017066D01*
X007638Y017035D01*
X007654Y017002D01*
X007668Y016967D01*
X007677Y016932D01*
X007683Y016895D01*
X007685Y016858D01*
X007683Y016821D01*
X007677Y016784D01*
X007668Y016749D01*
X007654Y016714D01*
X007638Y016681D01*
X007617Y016650D01*
X007594Y016621D01*
X007568Y016595D01*
X007539Y016572D01*
X007508Y016551D01*
X007475Y016535D01*
X007440Y016521D01*
X007405Y016512D01*
X007368Y016506D01*
X007331Y016504D01*
X007294Y016506D01*
X007257Y016512D01*
X007222Y016521D01*
X007187Y016535D01*
X007154Y016551D01*
X007123Y016572D01*
X007094Y016595D01*
X007068Y016621D01*
X007045Y016650D01*
X007024Y016681D01*
X007008Y016714D01*
X006994Y016749D01*
X006985Y016784D01*
X006979Y016821D01*
X006977Y016858D01*
X006979Y016895D01*
X006985Y016932D01*
X006994Y016967D01*
X007008Y017002D01*
X007024Y017035D01*
X007045Y017066D01*
X007068Y017095D01*
X007094Y017121D01*
X007123Y017144D01*
X007154Y017165D01*
X007187Y017181D01*
X007222Y017195D01*
X007257Y017204D01*
X007294Y017210D01*
X007331Y017212D01*
X007368Y017210D01*
X007405Y017204D01*
X007440Y017195D01*
X007475Y017181D01*
X007508Y017165D01*
X007539Y017144D01*
X007568Y017121D01*
X007594Y017095D01*
X007617Y017066D01*
X007638Y017035D01*
X007654Y017002D01*
X007668Y016967D01*
X007677Y016932D01*
X007683Y016895D01*
X007685Y016858D01*
X007683Y016821D01*
X007677Y016784D01*
X007668Y016749D01*
X007654Y016714D01*
X007638Y016681D01*
X007617Y016650D01*
X007594Y016621D01*
X007568Y016595D01*
X007539Y016572D01*
X007508Y016551D01*
X007475Y016535D01*
X007440Y016521D01*
X007405Y016512D01*
X007368Y016506D01*
X007331Y016504D01*
X007294Y016506D01*
X007257Y016512D01*
X007222Y016521D01*
X007187Y016535D01*
X007154Y016551D01*
X007123Y016572D01*
X007094Y016595D01*
X007068Y016621D01*
X007045Y016650D01*
X007024Y016681D01*
X007008Y016714D01*
X006994Y016749D01*
X006985Y016784D01*
X006979Y016821D01*
X006977Y016858D01*
X006979Y016895D01*
X006985Y016932D01*
X006994Y016967D01*
X007008Y017002D01*
X007024Y017035D01*
X007045Y017066D01*
X007068Y017095D01*
X007094Y017121D01*
X007123Y017144D01*
X007154Y017165D01*
X007187Y017181D01*
X007222Y017195D01*
X007257Y017204D01*
X007294Y017210D01*
X007331Y017212D01*
X007368Y017210D01*
X007405Y017204D01*
X007440Y017195D01*
X007475Y017181D01*
X007508Y017165D01*
X007539Y017144D01*
X007568Y017121D01*
X007594Y017095D01*
X007617Y017066D01*
X007638Y017035D01*
X007654Y017002D01*
X007668Y016967D01*
X007677Y016932D01*
X007683Y016895D01*
X007685Y016858D01*
X007683Y016821D01*
X007677Y016784D01*
X007668Y016749D01*
X007654Y016714D01*
X007638Y016681D01*
X007617Y016650D01*
X007594Y016621D01*
X007568Y016595D01*
X007539Y016572D01*
X007508Y016551D01*
X007475Y016535D01*
X007440Y016521D01*
X007405Y016512D01*
X007368Y016506D01*
X007331Y016504D01*
X007294Y016506D01*
X007257Y016512D01*
X007222Y016521D01*
X007187Y016535D01*
X007154Y016551D01*
X007123Y016572D01*
X007094Y016595D01*
X007068Y016621D01*
X007045Y016650D01*
X007024Y016681D01*
X007008Y016714D01*
X006994Y016749D01*
X006985Y016784D01*
X006979Y016821D01*
X006977Y016858D01*
X006979Y016895D01*
X006985Y016932D01*
X006994Y016967D01*
X007008Y017002D01*
X007024Y017035D01*
X007045Y017066D01*
X007068Y017095D01*
X007094Y017121D01*
X007123Y017144D01*
X007154Y017165D01*
X007187Y017181D01*
X007222Y017195D01*
X007257Y017204D01*
X007294Y017210D01*
X007331Y017212D01*
X007368Y017210D01*
X007405Y017204D01*
X007440Y017195D01*
X007475Y017181D01*
X007508Y017165D01*
X007539Y017144D01*
X007568Y017121D01*
X007594Y017095D01*
X007617Y017066D01*
X007638Y017035D01*
X007654Y017002D01*
X007668Y016967D01*
X007677Y016932D01*
X007683Y016895D01*
X007685Y016858D01*
X007683Y016821D01*
X007677Y016784D01*
X007668Y016749D01*
X007654Y016714D01*
X007638Y016681D01*
X007617Y016650D01*
X007594Y016621D01*
X007568Y016595D01*
X007539Y016572D01*
X007508Y016551D01*
X007475Y016535D01*
X007440Y016521D01*
X007405Y016512D01*
X007368Y016506D01*
X007331Y016504D01*
X007294Y016506D01*
X007257Y016512D01*
X007222Y016521D01*
X007187Y016535D01*
X007154Y016551D01*
X007123Y016572D01*
X007094Y016595D01*
X007068Y016621D01*
X007045Y016650D01*
X007024Y016681D01*
X007008Y016714D01*
X006994Y016749D01*
X006985Y016784D01*
X006979Y016821D01*
X006977Y016858D01*
D14*
X007331Y016857D03*
X004575Y016859D03*
X004576Y015381D03*
X004576Y013904D03*
X004576Y012429D03*
X007330Y012429D03*
X007331Y008857D03*
X004575Y008859D03*
X004576Y007381D03*
X004576Y005904D03*
X004576Y004429D03*
X007330Y004429D03*
X041268Y005068D03*
X041267Y008219D03*
X041268Y013068D03*
X041267Y016219D03*
D15*
X005854Y021100D03*
D16*
X004732Y019210D03*
X003394Y021100D03*
D17*
X003250Y018100D03*
X003250Y014100D03*
X003000Y010100D03*
X003000Y006100D03*
X010500Y002100D03*
X010500Y001100D03*
X013500Y002100D03*
X019500Y002100D03*
X031500Y002100D03*
X037500Y002100D03*
X040000Y002100D03*
X040000Y001100D03*
X039500Y018600D03*
X039500Y019600D03*
X036500Y019100D03*
X030500Y019100D03*
X021500Y019100D03*
X015500Y019100D03*
X013500Y019100D03*
X013500Y020100D03*
D18*
X007870Y020100D02*
X007130Y020100D01*
X007130Y022100D02*
X007870Y022100D01*
X046130Y023100D02*
X046870Y023100D01*
X046870Y025100D02*
X046130Y025100D01*
X046130Y027100D02*
X046870Y027100D01*
X046870Y029100D02*
X046130Y029100D01*
D19*
X046500Y029100D02*
X050500Y029100D01*
X050500Y005100D01*
X041268Y005100D01*
X041268Y005068D01*
X031500Y002100D02*
X019500Y002100D01*
X013500Y002100D02*
X010500Y002100D01*
X013500Y019100D02*
X015500Y019100D01*
X021500Y019100D02*
X030500Y019100D01*
X030500Y023100D01*
X046500Y023100D01*
D20*
X022500Y026100D02*
X008500Y026100D01*
X008500Y014100D01*
X008500Y005904D01*
X004576Y005904D01*
X009000Y013600D02*
X009000Y025100D01*
X016500Y025100D01*
X016500Y023100D01*
X022500Y026100D02*
X022500Y029100D01*
X014500Y029100D02*
X014500Y028100D01*
X002300Y028100D01*
X002300Y014000D01*
X003250Y014100D01*
X003500Y015100D01*
X004576Y015100D01*
X004576Y015381D01*
X004576Y014100D02*
X004576Y013904D01*
X004576Y014100D02*
X008500Y014100D01*
D21*
X009000Y013600D03*
M02*
